<svg xmlns="http://www.w3.org/2000/svg" width="900" height="520" viewBox="0 0 900 520">
<rect width="100%" height="100%" fill="white"/>
<text x="450.0" y="32" text-anchor="middle" font-size="22" font-family="Arial" font-weight="700">Health Index scenarios, motor1</text>
<line x1="70.0" y1="70" x2="70.0" y2="450" stroke="#e5e5e5"/><line x1="70" y1="70.0" x2="830" y2="70.0" stroke="#e5e5e5"/><line x1="222.0" y1="70" x2="222.0" y2="450" stroke="#e5e5e5"/><line x1="70" y1="146.0" x2="830" y2="146.0" stroke="#e5e5e5"/><line x1="374.0" y1="70" x2="374.0" y2="450" stroke="#e5e5e5"/><line x1="70" y1="222.0" x2="830" y2="222.0" stroke="#e5e5e5"/><line x1="526.0" y1="70" x2="526.0" y2="450" stroke="#e5e5e5"/><line x1="70" y1="298.0" x2="830" y2="298.0" stroke="#e5e5e5"/><line x1="678.0" y1="70" x2="678.0" y2="450" stroke="#e5e5e5"/><line x1="70" y1="374.0" x2="830" y2="374.0" stroke="#e5e5e5"/><line x1="830.0" y1="70" x2="830.0" y2="450" stroke="#e5e5e5"/><line x1="70" y1="450.0" x2="830" y2="450.0" stroke="#e5e5e5"/>
<rect x="70" y="70" width="760" height="380" fill="none" stroke="#222"/>
<polyline points="70.0,96.2 70.0,96.2 70.0,96.2 70.0,96.2 70.0,96.2 70.0,96.2 70.0,96.2 70.0,96.2 70.0,96.2 70.0,96.2 70.0,96.2 70.0,96.2 70.0,96.2 70.0,96.2 79.6,96.2 79.6,96.2 79.6,96.2 79.6,96.2 79.6,96.2 79.6,96.2 79.6,96.2 79.6,96.2 79.6,96.2 79.6,96.2 79.6,96.2 79.6,96.2 79.6,96.2 79.6,96.2 89.2,96.2 89.2,96.2 89.2,96.2 89.2,96.2 89.2,96.2 89.2,96.2 89.2,96.2 89.2,96.2 89.2,96.2 89.2,96.2 89.2,96.2 89.2,96.2 89.2,96.2 89.2,96.2 98.9,96.2 98.9,96.2 98.9,96.2 98.9,96.2 98.9,96.2 98.9,96.2 98.9,96.2 98.9,96.2 98.9,96.2 98.9,96.2 98.9,96.2 98.9,96.2 98.9,96.2 98.9,96.2 108.5,96.2 108.5,96.2 108.5,96.2 108.5,96.2 108.5,96.2 108.5,96.2 108.5,96.2 108.5,96.2 108.5,96.2 108.5,96.2 108.5,96.2 108.5,96.2 108.5,96.2 108.5,96.2 118.1,96.2 118.1,96.2 118.1,96.2 118.1,96.2 118.1,96.2 118.1,96.2 118.1,96.2 118.1,96.2 118.1,96.2 118.1,96.2 118.1,96.2 118.1,96.2 118.1,96.2 118.1,96.2 127.7,96.2 127.7,96.2 127.7,96.2 127.7,96.2 127.7,96.2 127.7,96.2 127.7,96.2 127.7,96.2 127.7,96.2 127.7,96.2 127.7,96.2 127.7,96.2 127.7,96.2 127.7,96.2 137.3,96.2 137.3,96.2 137.3,96.2 137.3,96.2 137.3,96.2 137.3,96.2 137.3,96.2 137.3,96.2 137.3,96.2 137.3,96.2 137.3,96.2 137.3,96.2 137.3,96.2 137.3,96.2 147.0,96.2 147.0,96.2 147.0,96.2 147.0,96.2 147.0,96.2 147.0,96.2 147.0,96.2 147.0,96.2 147.0,96.2 147.0,96.2 147.0,96.2 147.0,96.2 147.0,96.2 147.0,96.2 156.6,96.2 156.6,96.2 156.6,96.2 156.6,96.2 156.6,96.2 156.6,96.2 156.6,96.2 156.6,96.2 156.6,96.2 156.6,96.2 156.6,96.2 156.6,96.2 156.6,96.2 156.6,96.2 166.2,96.2 166.2,96.2 166.2,96.2 166.2,96.2 166.2,96.2 166.2,96.2 166.2,96.2 166.2,96.2 166.2,96.2 166.2,96.2 166.2,96.2 166.2,96.2 166.2,96.2 166.2,96.2 175.8,96.2 175.8,96.2 175.8,96.2 175.8,96.2 175.8,96.2 175.8,96.2 175.8,96.2 175.8,96.2 175.8,96.2 175.8,96.2 175.8,96.2 175.8,96.2 175.8,96.2 175.8,96.2 185.4,96.2 185.4,96.2 185.4,96.2 185.4,96.2 185.4,96.2 185.4,96.2 185.4,96.2 185.4,96.2 185.4,96.2 185.4,96.2 185.4,96.2 185.4,96.2 185.4,96.2 185.4,96.2 195.1,96.2 195.1,96.2 195.1,96.2 195.1,96.2 195.1,96.2 195.1,96.2 195.1,96.2 195.1,96.2 195.1,96.2 195.1,96.2 195.1,96.2 195.1,96.2 195.1,96.2 195.1,96.2 204.7,96.2 204.7,96.2 204.7,96.2 204.7,96.2 204.7,96.2 204.7,96.2 204.7,96.2 204.7,96.2 204.7,96.2 204.7,96.2 204.7,96.2 204.7,96.2 204.7,96.2 204.7,96.2 214.3,96.2 214.3,96.2 214.3,96.2 214.3,96.2 214.3,96.2 214.3,96.2 214.3,96.2 214.3,96.2 214.3,96.2 214.3,96.2 214.3,96.2 214.3,96.2 214.3,96.2 214.3,96.2 223.9,96.2 223.9,96.2 223.9,96.2 223.9,96.2 223.9,96.2 223.9,96.2 223.9,96.2 223.9,96.2 223.9,96.2 223.9,96.2 223.9,96.2 223.9,96.2 223.9,96.2 223.9,96.2 233.5,96.2 233.5,96.2 233.5,96.2 233.5,96.2 233.5,96.2 233.5,96.2 233.5,96.2 233.5,96.2 233.5,96.2 233.5,96.2 233.5,96.2 233.5,96.2 233.5,96.2 233.5,96.2 243.2,96.2 243.2,96.2 243.2,96.2 243.2,96.2 243.2,96.2 243.2,96.2 243.2,96.2 243.2,96.2 243.2,96.2 243.2,96.2 243.2,96.2 243.2,96.2 243.2,96.2 243.2,96.2 252.8,96.2 252.8,96.2 252.8,96.2 252.8,96.2 252.8,96.2 252.8,96.2 252.8,96.2 252.8,96.2 252.8,96.2 252.8,96.2 252.8,96.2 252.8,96.2 252.8,96.2 252.8,96.2 262.4,96.2 262.4,96.2 262.4,96.2 262.4,96.2 262.4,96.2 262.4,96.2 262.4,96.2 262.4,96.2 262.4,96.2 262.4,96.2 262.4,96.2 262.4,96.2 262.4,96.2 262.4,96.2 272.0,96.2 272.0,96.2 272.0,96.2 272.0,96.2 272.0,96.2 272.0,96.2 272.0,96.2 272.0,96.2 272.0,96.2 272.0,96.2 272.0,96.2 272.0,96.2 272.0,96.2 272.0,96.2 281.6,96.2 281.6,96.2 281.6,96.2 281.6,96.2 281.6,96.2 281.6,96.2 281.6,96.2 281.6,96.2 281.6,96.2 281.6,96.2 281.6,96.2 281.6,96.2 281.6,96.2 281.6,96.2 291.3,96.2 291.3,96.2 291.3,96.2 291.3,96.2 291.3,96.2 291.3,96.2 291.3,96.2 291.3,96.2 291.3,96.2 291.3,96.2 291.3,96.2 291.3,96.2 291.3,96.2 291.3,96.2 300.9,96.2 300.9,96.2 300.9,96.2 300.9,96.2 300.9,96.2 300.9,96.2 300.9,96.2 300.9,96.2 300.9,96.2 300.9,96.2 300.9,96.2 300.9,96.2 300.9,96.2 300.9,96.2 310.5,96.2 310.5,96.2 310.5,96.2 310.5,96.2 310.5,96.2 310.5,96.2 310.5,96.2 310.5,96.2 310.5,96.2 310.5,96.2 310.5,96.2 310.5,96.2 310.5,96.2 310.5,96.2 320.1,96.2 320.1,96.2 320.1,96.2 320.1,96.2 320.1,96.2 320.1,96.2 320.1,96.2 320.1,96.2 320.1,96.2 320.1,96.2 320.1,96.2 320.1,96.2 320.1,96.2 320.1,96.2 329.7,96.2 329.7,96.2 329.7,96.2 329.7,96.2 329.7,96.2 329.7,96.2 329.7,96.2 329.7,96.2 329.7,96.2 329.7,96.2 329.7,96.2 329.7,96.2 329.7,96.2 329.7,96.2 339.4,96.2 339.4,96.2 339.4,96.2 339.4,96.2 339.4,96.2 339.4,96.2 339.4,96.2 339.4,96.2 339.4,96.2 339.4,96.2 339.4,96.2 339.4,96.2 339.4,96.2 339.4,96.2 349.0,96.2 349.0,96.2 349.0,96.2 349.0,96.2 349.0,96.2 349.0,96.2 349.0,96.2 349.0,96.2 349.0,96.2 349.0,96.2 349.0,96.2 349.0,96.2 349.0,96.2 349.0,96.2 358.6,96.2 358.6,96.2 358.6,96.2 358.6,96.2 358.6,96.2 358.6,96.2 358.6,96.2 358.6,96.2 358.6,96.2 358.6,96.2 358.6,96.2 358.6,96.2 358.6,96.2 358.6,96.2 368.2,96.2 368.2,96.2 368.2,96.2 368.2,96.2 368.2,96.2 368.2,96.2 368.2,96.2 368.2,96.2 368.2,96.2 368.2,96.2 368.2,96.2 368.2,96.2 368.2,96.2 368.2,96.2 377.8,96.2 377.8,96.2 377.8,96.2 377.8,96.2 377.8,96.2 377.8,96.2 377.8,96.2 377.8,96.2 377.8,96.2 377.8,96.2 377.8,96.2 377.8,96.2 377.8,96.2 377.8,96.2 387.5,96.2 387.5,96.2 387.5,96.2 387.5,96.2 387.5,96.2 387.5,96.2 387.5,96.2 387.5,96.2 387.5,96.2 387.5,96.2 387.5,96.2 387.5,96.2 387.5,96.2 387.5,96.2 397.1,96.2 397.1,96.2 397.1,96.2 397.1,96.2 397.1,96.2 397.1,96.2 397.1,96.2 397.1,96.2 397.1,96.2 397.1,96.2 397.1,96.2 397.1,96.2 397.1,96.2 397.1,96.2 406.7,96.2 406.7,96.2 406.7,96.2 406.7,96.2 406.7,96.2 406.7,96.2 406.7,96.2 406.7,96.2 406.7,96.2 406.7,96.2 406.7,96.2 406.7,96.2 406.7,96.2 406.7,96.2 416.3,96.2 416.3,96.2 416.3,96.2 416.3,96.2 416.3,96.2 416.3,96.2 416.3,96.2 416.3,96.2 416.3,96.2 416.3,96.2 416.3,96.2 416.3,96.2 416.3,96.2 416.3,96.2 425.9,96.2 425.9,96.2 425.9,96.2 425.9,96.2 425.9,96.2 425.9,96.2 425.9,96.2 425.9,96.2 425.9,96.2 425.9,96.2 425.9,96.2 425.9,96.2 425.9,96.2 425.9,96.2 435.6,96.2 435.6,96.2 435.6,96.2 435.6,96.2 435.6,96.2 435.6,96.2 435.6,96.2 435.6,96.2 435.6,96.2 435.6,96.2 435.6,96.2 435.6,96.2 435.6,96.2 435.6,96.2 445.2,96.2 445.2,96.2 445.2,96.2 445.2,96.2 445.2,96.2 445.2,96.2 445.2,96.2 445.2,96.2 445.2,96.2 445.2,96.2 445.2,96.2 445.2,96.2 445.2,96.2 445.2,96.2 454.8,96.2 454.8,96.2 454.8,96.2 454.8,96.2 454.8,96.2 454.8,96.2 454.8,96.2 454.8,96.2 454.8,96.2 454.8,96.2 454.8,96.2 454.8,96.2 454.8,96.2 454.8,96.2 464.4,96.2 464.4,96.2 464.4,96.2 464.4,96.2 464.4,96.2 464.4,96.2 464.4,96.2 464.4,96.2 464.4,96.2 464.4,96.2 464.4,96.2 464.4,96.2 464.4,96.2 464.4,96.2 474.1,96.2 474.1,96.2 474.1,96.2 474.1,96.2 474.1,96.2 474.1,96.2 474.1,96.2 474.1,96.2 474.1,96.2 474.1,96.2 474.1,96.2 474.1,96.2 474.1,96.2 474.1,96.2 483.7,96.2 483.7,96.2 483.7,96.2 483.7,96.2 483.7,96.2 483.7,96.2 483.7,96.2 483.7,96.2 483.7,96.2 483.7,96.2 483.7,96.2 483.7,96.2 483.7,96.2 483.7,96.2 493.3,96.2 493.3,96.2 493.3,96.2 493.3,96.2 493.3,96.2 493.3,96.2 493.3,96.2 493.3,96.2 493.3,96.2 493.3,96.2 493.3,96.2 493.3,96.2 493.3,96.2 493.3,96.2 502.9,96.2 502.9,96.2 502.9,96.2 502.9,96.2 502.9,96.2 502.9,96.2 502.9,96.2 502.9,96.2 502.9,96.2 502.9,96.2 502.9,96.2 502.9,96.2 502.9,96.2 502.9,96.2 512.5,96.2 512.5,96.2 512.5,96.2 512.5,96.2 512.5,96.2 512.5,96.2 512.5,96.2 512.5,96.2 512.5,96.2 512.5,96.2 512.5,96.2 512.5,96.2 512.5,96.2 512.5,96.2 522.2,96.2 522.2,96.2 522.2,96.2 522.2,96.2 522.2,96.2 522.2,96.2 522.2,96.2 522.2,96.2 522.2,96.2 522.2,96.2 522.2,96.2 522.2,96.2 522.2,96.2 522.2,96.2 531.8,96.2 531.8,96.2 531.8,96.2 531.8,96.2 531.8,96.2 531.8,96.2 531.8,96.2 531.8,96.2 531.8,96.2 531.8,96.2 531.8,96.2 531.8,96.2 531.8,96.2 531.8,96.2 541.4,96.2 541.4,96.2 541.4,96.2 541.4,96.2 541.4,96.2 541.4,96.2 541.4,96.2 541.4,96.2 541.4,96.2 541.4,96.2 541.4,96.2 541.4,96.2 541.4,96.2 541.4,96.2 551.0,96.2 551.0,96.2 551.0,96.2 551.0,96.2 551.0,96.2 551.0,96.2 551.0,96.2 551.0,96.2 551.0,96.2 551.0,96.2 551.0,96.2 551.0,96.2 551.0,96.2 551.0,96.2 560.6,96.2 560.6,96.2 560.6,96.2 560.6,96.2 560.6,96.2 560.6,96.2 560.6,96.2 560.6,96.2 560.6,96.2 560.6,96.2 560.6,96.2 560.6,96.2 560.6,96.2 560.6,96.2 570.3,96.2 570.3,96.2 570.3,96.2 570.3,96.2 570.3,96.2 570.3,96.2 570.3,96.2 570.3,96.2 570.3,96.2 570.3,96.2 570.3,96.2 570.3,96.2 570.3,96.2 570.3,96.2 579.9,96.2 579.9,96.2 579.9,96.2 579.9,96.2 579.9,96.2 579.9,96.2 579.9,96.2 579.9,96.2 579.9,96.2 579.9,96.2 579.9,96.2 579.9,96.2 579.9,96.2 579.9,96.2 589.5,96.2 589.5,96.2 589.5,96.2 589.5,96.2 589.5,96.2 589.5,96.2 589.5,96.2 589.5,96.2 589.5,96.2 589.5,96.2 589.5,96.2 589.5,96.2 589.5,96.2 589.5,96.2 599.1,96.2 599.1,96.2 599.1,96.2 599.1,96.2 599.1,96.2 599.1,96.2 599.1,96.2 599.1,96.2 599.1,96.2 599.1,96.2 599.1,96.2 599.1,96.2 599.1,96.2 599.1,96.2 608.7,96.2 608.7,96.2 608.7,96.2 608.7,96.2 608.7,96.2 608.7,96.2 608.7,96.2 608.7,96.2 608.7,96.2 608.7,96.2 608.7,96.2 608.7,96.2 608.7,96.2 608.7,96.2 618.4,96.2 618.4,96.2 618.4,96.2 618.4,96.2 618.4,96.2 618.4,96.2 618.4,96.2 618.4,96.2 618.4,96.2 618.4,96.2 618.4,96.2 618.4,96.2 618.4,96.2 618.4,96.2 628.0,96.2 628.0,96.2 628.0,96.2 628.0,96.2 628.0,96.2 628.0,96.2 628.0,96.2 628.0,96.2 628.0,96.2 628.0,96.2 628.0,96.2 628.0,96.2 628.0,96.2 628.0,96.2 637.6,96.2 637.6,96.2 637.6,96.2 637.6,96.2 637.6,96.2 637.6,96.2 637.6,96.2 637.6,96.2 637.6,96.2 637.6,96.2 637.6,96.2 637.6,96.2 637.6,96.2 637.6,96.2 647.2,96.2 647.2,96.2 647.2,96.2 647.2,96.2 647.2,96.2 647.2,96.2 647.2,96.2 647.2,96.2 647.2,96.2 647.2,96.2 647.2,96.2 647.2,96.2 647.2,96.2 647.2,96.2 656.8,96.2 656.8,96.2 656.8,96.2 656.8,96.2 656.8,96.2 656.8,96.2 656.8,96.2 656.8,96.2 656.8,96.2 656.8,96.2 656.8,96.2 656.8,96.2 656.8,96.2 656.8,96.2 666.5,96.2 666.5,96.2 666.5,96.2 666.5,96.2 666.5,96.2 666.5,96.2 666.5,96.2 666.5,96.2 666.5,96.2 666.5,96.2 666.5,96.2 666.5,96.2 666.5,96.2 666.5,96.2 676.1,96.2 676.1,96.2 676.1,96.2 676.1,96.2 676.1,96.2 676.1,96.2 676.1,96.2 676.1,96.2 676.1,96.2 676.1,96.2 676.1,96.2 676.1,96.2 676.1,96.2 676.1,96.2 685.7,96.2 685.7,96.2 685.7,96.2 685.7,96.2 685.7,96.2 685.7,96.2 685.7,96.2 685.7,96.2 685.7,96.2 685.7,96.2 685.7,96.2 685.7,96.2 685.7,96.2 685.7,96.2 695.3,96.2 695.3,96.2 695.3,96.2 695.3,96.2 695.3,96.2 695.3,96.2 695.3,96.2 695.3,96.2 695.3,96.2 695.3,96.2 695.3,96.2 695.3,96.2 695.3,96.2 695.3,96.2 704.9,96.2 704.9,96.2 704.9,96.2 704.9,96.2 704.9,96.2 704.9,96.2 704.9,96.2 704.9,96.2 704.9,96.2 704.9,96.2 704.9,96.2 704.9,96.2 704.9,96.2 704.9,96.2 714.6,96.2 714.6,96.2 714.6,96.2 714.6,96.2 714.6,96.2 714.6,96.2 714.6,96.2 714.6,96.2 714.6,96.2 714.6,96.2 714.6,96.2 714.6,96.2 714.6,96.2 714.6,96.2 724.2,96.2 724.2,96.2 724.2,96.2 724.2,96.2 724.2,96.2 724.2,96.2 724.2,96.2 724.2,96.2 724.2,96.2 724.2,96.2 724.2,96.2 724.2,96.2 724.2,96.2 724.2,96.2 733.8,96.2 733.8,96.2 733.8,96.2 733.8,96.2 733.8,96.2 733.8,96.2 733.8,96.2 733.8,96.2 733.8,96.2 733.8,96.2 733.8,96.2 733.8,96.2 733.8,96.2 733.8,96.2 743.4,96.2 743.4,96.2 743.4,96.2 743.4,96.2 743.4,96.2 743.4,96.2 743.4,96.2 743.4,96.2 743.4,96.2 743.4,96.2 743.4,96.2 743.4,96.2 743.4,96.2 743.4,96.2 753.0,96.2 753.0,96.2 753.0,96.2 753.0,96.2 753.0,96.2 753.0,96.2 753.0,96.2 753.0,96.2 753.0,96.2 753.0,96.2 753.0,96.2 753.0,96.2 753.0,96.2 753.0,96.2 762.7,96.2 762.7,96.2 762.7,96.2 762.7,96.2 762.7,96.2 762.7,96.2 762.7,96.2 762.7,96.2 762.7,96.2 762.7,96.2 762.7,96.2 762.7,96.2 762.7,96.2 762.7,96.2 772.3,96.2 772.3,96.2 772.3,96.2 772.3,96.2 772.3,96.2 772.3,96.2 772.3,96.2 772.3,96.2 772.3,96.2 772.3,96.2 772.3,96.2 772.3,96.2 772.3,96.2 772.3,96.2 781.9,96.2 781.9,96.2 781.9,96.2 781.9,96.2 781.9,96.2 781.9,96.2 781.9,96.2 781.9,96.2 781.9,96.2 781.9,96.2 781.9,96.2 781.9,96.2 781.9,96.2 781.9,96.2 791.5,96.2 791.5,96.2 791.5,96.2 791.5,96.2 791.5,96.2 791.5,96.2 791.5,96.2 791.5,96.2 791.5,96.2 791.5,96.2 791.5,96.2 791.5,96.2 791.5,96.2 791.5,96.2 801.1,96.2 801.1,96.2 801.1,96.2 801.1,96.2 801.1,96.2 801.1,96.2 801.1,96.2 801.1,96.2 801.1,96.2 801.1,96.2 801.1,96.2 801.1,96.2 801.1,96.2 801.1,96.2 810.8,96.2 810.8,96.2 810.8,96.2 810.8,96.2 810.8,96.2 810.8,96.2 810.8,96.2 810.8,96.2 810.8,96.2 810.8,96.2 810.8,96.2 810.8,96.2 810.8,96.2 810.8,96.2 820.4,96.2 820.4,96.2 820.4,96.2 820.4,96.2 820.4,96.2 820.4,96.2 820.4,96.2 820.4,96.2 820.4,96.2 820.4,96.2 820.4,96.2 820.4,96.2 820.4,96.2 820.4,96.2 830.0,96.2 830.0,96.2 830.0,96.2 830.0,96.2 830.0,96.2 830.0,96.2 830.0,96.2 830.0,96.2 830.0,96.2 830.0,96.2 830.0,96.2 830.0,96.2 830.0,96.2 830.0,96.2" fill="none" stroke="#1f77b4" stroke-width="2.5"/><polyline points="70.0,97.1 70.0,97.1 70.0,97.1 70.0,97.1 70.0,97.1 70.0,97.1 70.0,97.1 70.0,97.1 70.0,97.1 70.0,97.1 70.0,97.1 70.0,97.1 70.0,97.1 70.0,97.1 79.6,98.1 79.6,98.1 79.6,98.1 79.6,98.1 79.6,98.1 79.6,98.1 79.6,98.1 79.6,98.1 79.6,98.1 79.6,98.1 79.6,98.1 79.6,98.1 79.6,98.1 79.6,98.1 89.2,99.0 89.2,99.0 89.2,99.0 89.2,99.0 89.2,99.0 89.2,99.0 89.2,99.0 89.2,99.0 89.2,99.0 89.2,99.0 89.2,99.0 89.2,99.0 89.2,99.0 89.2,99.0 98.9,100.0 98.9,100.0 98.9,100.0 98.9,100.0 98.9,100.0 98.9,100.0 98.9,100.0 98.9,100.0 98.9,100.0 98.9,100.0 98.9,100.0 98.9,100.0 98.9,100.0 98.9,100.0 108.5,100.9 108.5,100.9 108.5,100.9 108.5,100.9 108.5,100.9 108.5,100.9 108.5,100.9 108.5,100.9 108.5,100.9 108.5,100.9 108.5,100.9 108.5,100.9 108.5,100.9 108.5,100.9 118.1,101.8 118.1,101.8 118.1,101.8 118.1,101.8 118.1,101.8 118.1,101.8 118.1,101.8 118.1,101.8 118.1,101.8 118.1,101.8 118.1,101.8 118.1,101.8 118.1,101.8 118.1,101.8 127.7,102.8 127.7,102.8 127.7,102.8 127.7,102.8 127.7,102.8 127.7,102.8 127.7,102.8 127.7,102.8 127.7,102.8 127.7,102.8 127.7,102.8 127.7,102.8 127.7,102.8 127.7,102.8 137.3,103.7 137.3,103.7 137.3,103.7 137.3,103.7 137.3,103.7 137.3,103.7 137.3,103.7 137.3,103.7 137.3,103.7 137.3,103.7 137.3,103.7 137.3,103.7 137.3,103.7 137.3,103.7 147.0,104.6 147.0,104.6 147.0,104.6 147.0,104.6 147.0,104.6 147.0,104.6 147.0,104.6 147.0,104.6 147.0,104.6 147.0,104.6 147.0,104.6 147.0,104.6 147.0,104.6 147.0,104.6 156.6,105.6 156.6,105.6 156.6,105.6 156.6,105.6 156.6,105.6 156.6,105.6 156.6,105.6 156.6,105.6 156.6,105.6 156.6,105.6 156.6,105.6 156.6,105.6 156.6,105.6 156.6,105.6 166.2,106.5 166.2,106.5 166.2,106.5 166.2,106.5 166.2,106.5 166.2,106.5 166.2,106.5 166.2,106.5 166.2,106.5 166.2,106.5 166.2,106.5 166.2,106.5 166.2,106.5 166.2,106.5 175.8,107.4 175.8,107.4 175.8,107.4 175.8,107.4 175.8,107.4 175.8,107.4 175.8,107.4 175.8,107.4 175.8,107.4 175.8,107.4 175.8,107.4 175.8,107.4 175.8,107.4 175.8,107.4 185.4,108.4 185.4,108.4 185.4,108.4 185.4,108.4 185.4,108.4 185.4,108.4 185.4,108.4 185.4,108.4 185.4,108.4 185.4,108.4 185.4,108.4 185.4,108.4 185.4,108.4 185.4,108.4 195.1,109.3 195.1,109.3 195.1,109.3 195.1,109.3 195.1,109.3 195.1,109.3 195.1,109.3 195.1,109.3 195.1,109.3 195.1,109.3 195.1,109.3 195.1,109.3 195.1,109.3 195.1,109.3 204.7,110.2 204.7,110.2 204.7,110.2 204.7,110.2 204.7,110.2 204.7,110.2 204.7,110.2 204.7,110.2 204.7,110.2 204.7,110.2 204.7,110.2 204.7,110.2 204.7,110.2 204.7,110.2 214.3,111.2 214.3,111.2 214.3,111.2 214.3,111.2 214.3,111.2 214.3,111.2 214.3,111.2 214.3,111.2 214.3,111.2 214.3,111.2 214.3,111.2 214.3,111.2 214.3,111.2 214.3,111.2 223.9,112.1 223.9,112.1 223.9,112.1 223.9,112.1 223.9,112.1 223.9,112.1 223.9,112.1 223.9,112.1 223.9,112.1 223.9,112.1 223.9,112.1 223.9,112.1 223.9,112.1 223.9,112.1 233.5,113.1 233.5,113.1 233.5,113.1 233.5,113.1 233.5,113.1 233.5,113.1 233.5,113.1 233.5,113.1 233.5,113.1 233.5,113.1 233.5,113.1 233.5,113.1 233.5,113.1 233.5,113.1 243.2,114.0 243.2,114.0 243.2,114.0 243.2,114.0 243.2,114.0 243.2,114.0 243.2,114.0 243.2,114.0 243.2,114.0 243.2,114.0 243.2,114.0 243.2,114.0 243.2,114.0 243.2,114.0 252.8,114.9 252.8,114.9 252.8,114.9 252.8,114.9 252.8,114.9 252.8,114.9 252.8,114.9 252.8,114.9 252.8,114.9 252.8,114.9 252.8,114.9 252.8,114.9 252.8,114.9 252.8,114.9 262.4,115.9 262.4,115.9 262.4,115.9 262.4,115.9 262.4,115.9 262.4,115.9 262.4,115.9 262.4,115.9 262.4,115.9 262.4,115.9 262.4,115.9 262.4,115.9 262.4,115.9 262.4,115.9 272.0,116.8 272.0,116.8 272.0,116.8 272.0,116.8 272.0,116.8 272.0,116.8 272.0,116.8 272.0,116.8 272.0,116.8 272.0,116.8 272.0,116.8 272.0,116.8 272.0,116.8 272.0,116.8 281.6,117.7 281.6,117.7 281.6,117.7 281.6,117.7 281.6,117.7 281.6,117.7 281.6,117.7 281.6,117.7 281.6,117.7 281.6,117.7 281.6,117.7 281.6,117.7 281.6,117.7 281.6,117.7 291.3,118.7 291.3,118.7 291.3,118.7 291.3,118.7 291.3,118.7 291.3,118.7 291.3,118.7 291.3,118.7 291.3,118.7 291.3,118.7 291.3,118.7 291.3,118.7 291.3,118.7 291.3,118.7 300.9,119.6 300.9,119.6 300.9,119.6 300.9,119.6 300.9,119.6 300.9,119.6 300.9,119.6 300.9,119.6 300.9,119.6 300.9,119.6 300.9,119.6 300.9,119.6 300.9,119.6 300.9,119.6 310.5,120.5 310.5,120.5 310.5,120.5 310.5,120.5 310.5,120.5 310.5,120.5 310.5,120.5 310.5,120.5 310.5,120.5 310.5,120.5 310.5,120.5 310.5,120.5 310.5,120.5 310.5,120.5 320.1,121.5 320.1,121.5 320.1,121.5 320.1,121.5 320.1,121.5 320.1,121.5 320.1,121.5 320.1,121.5 320.1,121.5 320.1,121.5 320.1,121.5 320.1,121.5 320.1,121.5 320.1,121.5 329.7,122.4 329.7,122.4 329.7,122.4 329.7,122.4 329.7,122.4 329.7,122.4 329.7,122.4 329.7,122.4 329.7,122.4 329.7,122.4 329.7,122.4 329.7,122.4 329.7,122.4 329.7,122.4 339.4,123.3 339.4,123.3 339.4,123.3 339.4,123.3 339.4,123.3 339.4,123.3 339.4,123.3 339.4,123.3 339.4,123.3 339.4,123.3 339.4,123.3 339.4,123.3 339.4,123.3 339.4,123.3 349.0,124.3 349.0,124.3 349.0,124.3 349.0,124.3 349.0,124.3 349.0,124.3 349.0,124.3 349.0,124.3 349.0,124.3 349.0,124.3 349.0,124.3 349.0,124.3 349.0,124.3 349.0,124.3 358.6,125.2 358.6,125.2 358.6,125.2 358.6,125.2 358.6,125.2 358.6,125.2 358.6,125.2 358.6,125.2 358.6,125.2 358.6,125.2 358.6,125.2 358.6,125.2 358.6,125.2 358.6,125.2 368.2,126.2 368.2,126.2 368.2,126.2 368.2,126.2 368.2,126.2 368.2,126.2 368.2,126.2 368.2,126.2 368.2,126.2 368.2,126.2 368.2,126.2 368.2,126.2 368.2,126.2 368.2,126.2 377.8,127.1 377.8,127.1 377.8,127.1 377.8,127.1 377.8,127.1 377.8,127.1 377.8,127.1 377.8,127.1 377.8,127.1 377.8,127.1 377.8,127.1 377.8,127.1 377.8,127.1 377.8,127.1 387.5,128.0 387.5,128.0 387.5,128.0 387.5,128.0 387.5,128.0 387.5,128.0 387.5,128.0 387.5,128.0 387.5,128.0 387.5,128.0 387.5,128.0 387.5,128.0 387.5,128.0 387.5,128.0 397.1,129.0 397.1,129.0 397.1,129.0 397.1,129.0 397.1,129.0 397.1,129.0 397.1,129.0 397.1,129.0 397.1,129.0 397.1,129.0 397.1,129.0 397.1,129.0 397.1,129.0 397.1,129.0 406.7,129.9 406.7,129.9 406.7,129.9 406.7,129.9 406.7,129.9 406.7,129.9 406.7,129.9 406.7,129.9 406.7,129.9 406.7,129.9 406.7,129.9 406.7,129.9 406.7,129.9 406.7,129.9 416.3,130.8 416.3,130.8 416.3,130.8 416.3,130.8 416.3,130.8 416.3,130.8 416.3,130.8 416.3,130.8 416.3,130.8 416.3,130.8 416.3,130.8 416.3,130.8 416.3,130.8 416.3,130.8 425.9,131.8 425.9,131.8 425.9,131.8 425.9,131.8 425.9,131.8 425.9,131.8 425.9,131.8 425.9,131.8 425.9,131.8 425.9,131.8 425.9,131.8 425.9,131.8 425.9,131.8 425.9,131.8 435.6,132.7 435.6,132.7 435.6,132.7 435.6,132.7 435.6,132.7 435.6,132.7 435.6,132.7 435.6,132.7 435.6,132.7 435.6,132.7 435.6,132.7 435.6,132.7 435.6,132.7 435.6,132.7 445.2,133.6 445.2,133.6 445.2,133.6 445.2,133.6 445.2,133.6 445.2,133.6 445.2,133.6 445.2,133.6 445.2,133.6 445.2,133.6 445.2,133.6 445.2,133.6 445.2,133.6 445.2,133.6 454.8,134.6 454.8,134.6 454.8,134.6 454.8,134.6 454.8,134.6 454.8,134.6 454.8,134.6 454.8,134.6 454.8,134.6 454.8,134.6 454.8,134.6 454.8,134.6 454.8,134.6 454.8,134.6 464.4,135.5 464.4,135.5 464.4,135.5 464.4,135.5 464.4,135.5 464.4,135.5 464.4,135.5 464.4,135.5 464.4,135.5 464.4,135.5 464.4,135.5 464.4,135.5 464.4,135.5 464.4,135.5 474.1,136.5 474.1,136.5 474.1,136.5 474.1,136.5 474.1,136.5 474.1,136.5 474.1,136.5 474.1,136.5 474.1,136.5 474.1,136.5 474.1,136.5 474.1,136.5 474.1,136.5 474.1,136.5 483.7,137.4 483.7,137.4 483.7,137.4 483.7,137.4 483.7,137.4 483.7,137.4 483.7,137.4 483.7,137.4 483.7,137.4 483.7,137.4 483.7,137.4 483.7,137.4 483.7,137.4 483.7,137.4 493.3,138.3 493.3,138.3 493.3,138.3 493.3,138.3 493.3,138.3 493.3,138.3 493.3,138.3 493.3,138.3 493.3,138.3 493.3,138.3 493.3,138.3 493.3,138.3 493.3,138.3 493.3,138.3 502.9,139.3 502.9,139.3 502.9,139.3 502.9,139.3 502.9,139.3 502.9,139.3 502.9,139.3 502.9,139.3 502.9,139.3 502.9,139.3 502.9,139.3 502.9,139.3 502.9,139.3 502.9,139.3 512.5,140.2 512.5,140.2 512.5,140.2 512.5,140.2 512.5,140.2 512.5,140.2 512.5,140.2 512.5,140.2 512.5,140.2 512.5,140.2 512.5,140.2 512.5,140.2 512.5,140.2 512.5,140.2 522.2,141.1 522.2,141.1 522.2,141.1 522.2,141.1 522.2,141.1 522.2,141.1 522.2,141.1 522.2,141.1 522.2,141.1 522.2,141.1 522.2,141.1 522.2,141.1 522.2,141.1 522.2,141.1 531.8,142.1 531.8,142.1 531.8,142.1 531.8,142.1 531.8,142.1 531.8,142.1 531.8,142.1 531.8,142.1 531.8,142.1 531.8,142.1 531.8,142.1 531.8,142.1 531.8,142.1 531.8,142.1 541.4,143.0 541.4,143.0 541.4,143.0 541.4,143.0 541.4,143.0 541.4,143.0 541.4,143.0 541.4,143.0 541.4,143.0 541.4,143.0 541.4,143.0 541.4,143.0 541.4,143.0 541.4,143.0 551.0,143.9 551.0,143.9 551.0,143.9 551.0,143.9 551.0,143.9 551.0,143.9 551.0,143.9 551.0,143.9 551.0,143.9 551.0,143.9 551.0,143.9 551.0,143.9 551.0,143.9 551.0,143.9 560.6,144.9 560.6,144.9 560.6,144.9 560.6,144.9 560.6,144.9 560.6,144.9 560.6,144.9 560.6,144.9 560.6,144.9 560.6,144.9 560.6,144.9 560.6,144.9 560.6,144.9 560.6,144.9 570.3,145.8 570.3,145.8 570.3,145.8 570.3,145.8 570.3,145.8 570.3,145.8 570.3,145.8 570.3,145.8 570.3,145.8 570.3,145.8 570.3,145.8 570.3,145.8 570.3,145.8 570.3,145.8 579.9,146.7 579.9,146.7 579.9,146.7 579.9,146.7 579.9,146.7 579.9,146.7 579.9,146.7 579.9,146.7 579.9,146.7 579.9,146.7 579.9,146.7 579.9,146.7 579.9,146.7 579.9,146.7 589.5,147.7 589.5,147.7 589.5,147.7 589.5,147.7 589.5,147.7 589.5,147.7 589.5,147.7 589.5,147.7 589.5,147.7 589.5,147.7 589.5,147.7 589.5,147.7 589.5,147.7 589.5,147.7 599.1,148.6 599.1,148.6 599.1,148.6 599.1,148.6 599.1,148.6 599.1,148.6 599.1,148.6 599.1,148.6 599.1,148.6 599.1,148.6 599.1,148.6 599.1,148.6 599.1,148.6 599.1,148.6 608.7,149.6 608.7,149.6 608.7,149.6 608.7,149.6 608.7,149.6 608.7,149.6 608.7,149.6 608.7,149.6 608.7,149.6 608.7,149.6 608.7,149.6 608.7,149.6 608.7,149.6 608.7,149.6 618.4,150.5 618.4,150.5 618.4,150.5 618.4,150.5 618.4,150.5 618.4,150.5 618.4,150.5 618.4,150.5 618.4,150.5 618.4,150.5 618.4,150.5 618.4,150.5 618.4,150.5 618.4,150.5 628.0,151.4 628.0,151.4 628.0,151.4 628.0,151.4 628.0,151.4 628.0,151.4 628.0,151.4 628.0,151.4 628.0,151.4 628.0,151.4 628.0,151.4 628.0,151.4 628.0,151.4 628.0,151.4 637.6,152.4 637.6,152.4 637.6,152.4 637.6,152.4 637.6,152.4 637.6,152.4 637.6,152.4 637.6,152.4 637.6,152.4 637.6,152.4 637.6,152.4 637.6,152.4 637.6,152.4 637.6,152.4 647.2,153.3 647.2,153.3 647.2,153.3 647.2,153.3 647.2,153.3 647.2,153.3 647.2,153.3 647.2,153.3 647.2,153.3 647.2,153.3 647.2,153.3 647.2,153.3 647.2,153.3 647.2,153.3 656.8,154.2 656.8,154.2 656.8,154.2 656.8,154.2 656.8,154.2 656.8,154.2 656.8,154.2 656.8,154.2 656.8,154.2 656.8,154.2 656.8,154.2 656.8,154.2 656.8,154.2 656.8,154.2 666.5,155.2 666.5,155.2 666.5,155.2 666.5,155.2 666.5,155.2 666.5,155.2 666.5,155.2 666.5,155.2 666.5,155.2 666.5,155.2 666.5,155.2 666.5,155.2 666.5,155.2 666.5,155.2 676.1,156.1 676.1,156.1 676.1,156.1 676.1,156.1 676.1,156.1 676.1,156.1 676.1,156.1 676.1,156.1 676.1,156.1 676.1,156.1 676.1,156.1 676.1,156.1 676.1,156.1 676.1,156.1 685.7,157.0 685.7,157.0 685.7,157.0 685.7,157.0 685.7,157.0 685.7,157.0 685.7,157.0 685.7,157.0 685.7,157.0 685.7,157.0 685.7,157.0 685.7,157.0 685.7,157.0 685.7,157.0 695.3,158.0 695.3,158.0 695.3,158.0 695.3,158.0 695.3,158.0 695.3,158.0 695.3,158.0 695.3,158.0 695.3,158.0 695.3,158.0 695.3,158.0 695.3,158.0 695.3,158.0 695.3,158.0 704.9,158.9 704.9,158.9 704.9,158.9 704.9,158.9 704.9,158.9 704.9,158.9 704.9,158.9 704.9,158.9 704.9,158.9 704.9,158.9 704.9,158.9 704.9,158.9 704.9,158.9 704.9,158.9 714.6,159.9 714.6,159.9 714.6,159.9 714.6,159.9 714.6,159.9 714.6,159.9 714.6,159.9 714.6,159.9 714.6,159.9 714.6,159.9 714.6,159.9 714.6,159.9 714.6,159.9 714.6,159.9 724.2,160.8 724.2,160.8 724.2,160.8 724.2,160.8 724.2,160.8 724.2,160.8 724.2,160.8 724.2,160.8 724.2,160.8 724.2,160.8 724.2,160.8 724.2,160.8 724.2,160.8 724.2,160.8 733.8,161.7 733.8,161.7 733.8,161.7 733.8,161.7 733.8,161.7 733.8,161.7 733.8,161.7 733.8,161.7 733.8,161.7 733.8,161.7 733.8,161.7 733.8,161.7 733.8,161.7 733.8,161.7 743.4,162.7 743.4,162.7 743.4,162.7 743.4,162.7 743.4,162.7 743.4,162.7 743.4,162.7 743.4,162.7 743.4,162.7 743.4,162.7 743.4,162.7 743.4,162.7 743.4,162.7 743.4,162.7 753.0,163.6 753.0,163.6 753.0,163.6 753.0,163.6 753.0,163.6 753.0,163.6 753.0,163.6 753.0,163.6 753.0,163.6 753.0,163.6 753.0,163.6 753.0,163.6 753.0,163.6 753.0,163.6 762.7,164.5 762.7,164.5 762.7,164.5 762.7,164.5 762.7,164.5 762.7,164.5 762.7,164.5 762.7,164.5 762.7,164.5 762.7,164.5 762.7,164.5 762.7,164.5 762.7,164.5 762.7,164.5 772.3,165.5 772.3,165.5 772.3,165.5 772.3,165.5 772.3,165.5 772.3,165.5 772.3,165.5 772.3,165.5 772.3,165.5 772.3,165.5 772.3,165.5 772.3,165.5 772.3,165.5 772.3,165.5 781.9,166.4 781.9,166.4 781.9,166.4 781.9,166.4 781.9,166.4 781.9,166.4 781.9,166.4 781.9,166.4 781.9,166.4 781.9,166.4 781.9,166.4 781.9,166.4 781.9,166.4 781.9,166.4 791.5,167.3 791.5,167.3 791.5,167.3 791.5,167.3 791.5,167.3 791.5,167.3 791.5,167.3 791.5,167.3 791.5,167.3 791.5,167.3 791.5,167.3 791.5,167.3 791.5,167.3 791.5,167.3 801.1,168.3 801.1,168.3 801.1,168.3 801.1,168.3 801.1,168.3 801.1,168.3 801.1,168.3 801.1,168.3 801.1,168.3 801.1,168.3 801.1,168.3 801.1,168.3 801.1,168.3 801.1,168.3 810.8,169.2 810.8,169.2 810.8,169.2 810.8,169.2 810.8,169.2 810.8,169.2 810.8,169.2 810.8,169.2 810.8,169.2 810.8,169.2 810.8,169.2 810.8,169.2 810.8,169.2 810.8,169.2 820.4,170.1 820.4,170.1 820.4,170.1 820.4,170.1 820.4,170.1 820.4,170.1 820.4,170.1 820.4,170.1 820.4,170.1 820.4,170.1 820.4,170.1 820.4,170.1 820.4,170.1 820.4,170.1 830.0,171.1 830.0,171.1 830.0,171.1 830.0,171.1 830.0,171.1 830.0,171.1 830.0,171.1 830.0,171.1 830.0,171.1 830.0,171.1 830.0,171.1 830.0,171.1 830.0,171.1 830.0,171.1" fill="none" stroke="#d62728" stroke-width="2.5"/><polyline points="70.0,98.5 70.0,98.5 70.0,98.5 70.0,98.5 70.0,98.5 70.0,98.5 70.0,98.5 70.0,98.5 70.0,98.5 70.0,98.5 70.0,98.5 70.0,98.5 70.0,98.5 70.0,98.5 79.6,100.9 79.6,100.9 79.6,100.9 79.6,100.9 79.6,100.9 79.6,100.9 79.6,100.9 79.6,100.9 79.6,100.9 79.6,100.9 79.6,100.9 79.6,100.9 79.6,100.9 79.6,100.9 89.2,103.2 89.2,103.2 89.2,103.2 89.2,103.2 89.2,103.2 89.2,103.2 89.2,103.2 89.2,103.2 89.2,103.2 89.2,103.2 89.2,103.2 89.2,103.2 89.2,103.2 89.2,103.2 98.9,105.6 98.9,105.6 98.9,105.6 98.9,105.6 98.9,105.6 98.9,105.6 98.9,105.6 98.9,105.6 98.9,105.6 98.9,105.6 98.9,105.6 98.9,105.6 98.9,105.6 98.9,105.6 108.5,107.9 108.5,107.9 108.5,107.9 108.5,107.9 108.5,107.9 108.5,107.9 108.5,107.9 108.5,107.9 108.5,107.9 108.5,107.9 108.5,107.9 108.5,107.9 108.5,107.9 108.5,107.9 118.1,110.2 118.1,110.2 118.1,110.2 118.1,110.2 118.1,110.2 118.1,110.2 118.1,110.2 118.1,110.2 118.1,110.2 118.1,110.2 118.1,110.2 118.1,110.2 118.1,110.2 118.1,110.2 127.7,112.6 127.7,112.6 127.7,112.6 127.7,112.6 127.7,112.6 127.7,112.6 127.7,112.6 127.7,112.6 127.7,112.6 127.7,112.6 127.7,112.6 127.7,112.6 127.7,112.6 127.7,112.6 137.3,114.9 137.3,114.9 137.3,114.9 137.3,114.9 137.3,114.9 137.3,114.9 137.3,114.9 137.3,114.9 137.3,114.9 137.3,114.9 137.3,114.9 137.3,114.9 137.3,114.9 137.3,114.9 147.0,117.3 147.0,117.3 147.0,117.3 147.0,117.3 147.0,117.3 147.0,117.3 147.0,117.3 147.0,117.3 147.0,117.3 147.0,117.3 147.0,117.3 147.0,117.3 147.0,117.3 147.0,117.3 156.6,119.6 156.6,119.6 156.6,119.6 156.6,119.6 156.6,119.6 156.6,119.6 156.6,119.6 156.6,119.6 156.6,119.6 156.6,119.6 156.6,119.6 156.6,119.6 156.6,119.6 156.6,119.6 166.2,121.9 166.2,121.9 166.2,121.9 166.2,121.9 166.2,121.9 166.2,121.9 166.2,121.9 166.2,121.9 166.2,121.9 166.2,121.9 166.2,121.9 166.2,121.9 166.2,121.9 166.2,121.9 175.8,124.3 175.8,124.3 175.8,124.3 175.8,124.3 175.8,124.3 175.8,124.3 175.8,124.3 175.8,124.3 175.8,124.3 175.8,124.3 175.8,124.3 175.8,124.3 175.8,124.3 175.8,124.3 185.4,126.6 185.4,126.6 185.4,126.6 185.4,126.6 185.4,126.6 185.4,126.6 185.4,126.6 185.4,126.6 185.4,126.6 185.4,126.6 185.4,126.6 185.4,126.6 185.4,126.6 185.4,126.6 195.1,129.0 195.1,129.0 195.1,129.0 195.1,129.0 195.1,129.0 195.1,129.0 195.1,129.0 195.1,129.0 195.1,129.0 195.1,129.0 195.1,129.0 195.1,129.0 195.1,129.0 195.1,129.0 204.7,131.3 204.7,131.3 204.7,131.3 204.7,131.3 204.7,131.3 204.7,131.3 204.7,131.3 204.7,131.3 204.7,131.3 204.7,131.3 204.7,131.3 204.7,131.3 204.7,131.3 204.7,131.3 214.3,133.6 214.3,133.6 214.3,133.6 214.3,133.6 214.3,133.6 214.3,133.6 214.3,133.6 214.3,133.6 214.3,133.6 214.3,133.6 214.3,133.6 214.3,133.6 214.3,133.6 214.3,133.6 223.9,136.0 223.9,136.0 223.9,136.0 223.9,136.0 223.9,136.0 223.9,136.0 223.9,136.0 223.9,136.0 223.9,136.0 223.9,136.0 223.9,136.0 223.9,136.0 223.9,136.0 223.9,136.0 233.5,138.3 233.5,138.3 233.5,138.3 233.5,138.3 233.5,138.3 233.5,138.3 233.5,138.3 233.5,138.3 233.5,138.3 233.5,138.3 233.5,138.3 233.5,138.3 233.5,138.3 233.5,138.3 243.2,140.7 243.2,140.7 243.2,140.7 243.2,140.7 243.2,140.7 243.2,140.7 243.2,140.7 243.2,140.7 243.2,140.7 243.2,140.7 243.2,140.7 243.2,140.7 243.2,140.7 243.2,140.7 252.8,143.0 252.8,143.0 252.8,143.0 252.8,143.0 252.8,143.0 252.8,143.0 252.8,143.0 252.8,143.0 252.8,143.0 252.8,143.0 252.8,143.0 252.8,143.0 252.8,143.0 252.8,143.0 262.4,145.3 262.4,145.3 262.4,145.3 262.4,145.3 262.4,145.3 262.4,145.3 262.4,145.3 262.4,145.3 262.4,145.3 262.4,145.3 262.4,145.3 262.4,145.3 262.4,145.3 262.4,145.3 272.0,147.7 272.0,147.7 272.0,147.7 272.0,147.7 272.0,147.7 272.0,147.7 272.0,147.7 272.0,147.7 272.0,147.7 272.0,147.7 272.0,147.7 272.0,147.7 272.0,147.7 272.0,147.7 281.6,150.0 281.6,150.0 281.6,150.0 281.6,150.0 281.6,150.0 281.6,150.0 281.6,150.0 281.6,150.0 281.6,150.0 281.6,150.0 281.6,150.0 281.6,150.0 281.6,150.0 281.6,150.0 291.3,152.4 291.3,152.4 291.3,152.4 291.3,152.4 291.3,152.4 291.3,152.4 291.3,152.4 291.3,152.4 291.3,152.4 291.3,152.4 291.3,152.4 291.3,152.4 291.3,152.4 291.3,152.4 300.9,154.7 300.9,154.7 300.9,154.7 300.9,154.7 300.9,154.7 300.9,154.7 300.9,154.7 300.9,154.7 300.9,154.7 300.9,154.7 300.9,154.7 300.9,154.7 300.9,154.7 300.9,154.7 310.5,157.0 310.5,157.0 310.5,157.0 310.5,157.0 310.5,157.0 310.5,157.0 310.5,157.0 310.5,157.0 310.5,157.0 310.5,157.0 310.5,157.0 310.5,157.0 310.5,157.0 310.5,157.0 320.1,159.4 320.1,159.4 320.1,159.4 320.1,159.4 320.1,159.4 320.1,159.4 320.1,159.4 320.1,159.4 320.1,159.4 320.1,159.4 320.1,159.4 320.1,159.4 320.1,159.4 320.1,159.4 329.7,161.7 329.7,161.7 329.7,161.7 329.7,161.7 329.7,161.7 329.7,161.7 329.7,161.7 329.7,161.7 329.7,161.7 329.7,161.7 329.7,161.7 329.7,161.7 329.7,161.7 329.7,161.7 339.4,164.1 339.4,164.1 339.4,164.1 339.4,164.1 339.4,164.1 339.4,164.1 339.4,164.1 339.4,164.1 339.4,164.1 339.4,164.1 339.4,164.1 339.4,164.1 339.4,164.1 339.4,164.1 349.0,166.4 349.0,166.4 349.0,166.4 349.0,166.4 349.0,166.4 349.0,166.4 349.0,166.4 349.0,166.4 349.0,166.4 349.0,166.4 349.0,166.4 349.0,166.4 349.0,166.4 349.0,166.4 358.6,168.7 358.6,168.7 358.6,168.7 358.6,168.7 358.6,168.7 358.6,168.7 358.6,168.7 358.6,168.7 358.6,168.7 358.6,168.7 358.6,168.7 358.6,168.7 358.6,168.7 358.6,168.7 368.2,171.1 368.2,171.1 368.2,171.1 368.2,171.1 368.2,171.1 368.2,171.1 368.2,171.1 368.2,171.1 368.2,171.1 368.2,171.1 368.2,171.1 368.2,171.1 368.2,171.1 368.2,171.1 377.8,173.4 377.8,173.4 377.8,173.4 377.8,173.4 377.8,173.4 377.8,173.4 377.8,173.4 377.8,173.4 377.8,173.4 377.8,173.4 377.8,173.4 377.8,173.4 377.8,173.4 377.8,173.4 387.5,175.8 387.5,175.8 387.5,175.8 387.5,175.8 387.5,175.8 387.5,175.8 387.5,175.8 387.5,175.8 387.5,175.8 387.5,175.8 387.5,175.8 387.5,175.8 387.5,175.8 387.5,175.8 397.1,178.1 397.1,178.1 397.1,178.1 397.1,178.1 397.1,178.1 397.1,178.1 397.1,178.1 397.1,178.1 397.1,178.1 397.1,178.1 397.1,178.1 397.1,178.1 397.1,178.1 397.1,178.1 406.7,180.4 406.7,180.4 406.7,180.4 406.7,180.4 406.7,180.4 406.7,180.4 406.7,180.4 406.7,180.4 406.7,180.4 406.7,180.4 406.7,180.4 406.7,180.4 406.7,180.4 406.7,180.4 416.3,182.8 416.3,182.8 416.3,182.8 416.3,182.8 416.3,182.8 416.3,182.8 416.3,182.8 416.3,182.8 416.3,182.8 416.3,182.8 416.3,182.8 416.3,182.8 416.3,182.8 416.3,182.8 425.9,185.1 425.9,185.1 425.9,185.1 425.9,185.1 425.9,185.1 425.9,185.1 425.9,185.1 425.9,185.1 425.9,185.1 425.9,185.1 425.9,185.1 425.9,185.1 425.9,185.1 425.9,185.1 435.6,187.5 435.6,187.5 435.6,187.5 435.6,187.5 435.6,187.5 435.6,187.5 435.6,187.5 435.6,187.5 435.6,187.5 435.6,187.5 435.6,187.5 435.6,187.5 435.6,187.5 435.6,187.5 445.2,189.8 445.2,189.8 445.2,189.8 445.2,189.8 445.2,189.8 445.2,189.8 445.2,189.8 445.2,189.8 445.2,189.8 445.2,189.8 445.2,189.8 445.2,189.8 445.2,189.8 445.2,189.8 454.8,192.1 454.8,192.1 454.8,192.1 454.8,192.1 454.8,192.1 454.8,192.1 454.8,192.1 454.8,192.1 454.8,192.1 454.8,192.1 454.8,192.1 454.8,192.1 454.8,192.1 454.8,192.1 464.4,194.5 464.4,194.5 464.4,194.5 464.4,194.5 464.4,194.5 464.4,194.5 464.4,194.5 464.4,194.5 464.4,194.5 464.4,194.5 464.4,194.5 464.4,194.5 464.4,194.5 464.4,194.5 474.1,196.8 474.1,196.8 474.1,196.8 474.1,196.8 474.1,196.8 474.1,196.8 474.1,196.8 474.1,196.8 474.1,196.8 474.1,196.8 474.1,196.8 474.1,196.8 474.1,196.8 474.1,196.8 483.7,199.2 483.7,199.2 483.7,199.2 483.7,199.2 483.7,199.2 483.7,199.2 483.7,199.2 483.7,199.2 483.7,199.2 483.7,199.2 483.7,199.2 483.7,199.2 483.7,199.2 483.7,199.2 493.3,201.5 493.3,201.5 493.3,201.5 493.3,201.5 493.3,201.5 493.3,201.5 493.3,201.5 493.3,201.5 493.3,201.5 493.3,201.5 493.3,201.5 493.3,201.5 493.3,201.5 493.3,201.5 502.9,203.8 502.9,203.8 502.9,203.8 502.9,203.8 502.9,203.8 502.9,203.8 502.9,203.8 502.9,203.8 502.9,203.8 502.9,203.8 502.9,203.8 502.9,203.8 502.9,203.8 502.9,203.8 512.5,206.2 512.5,206.2 512.5,206.2 512.5,206.2 512.5,206.2 512.5,206.2 512.5,206.2 512.5,206.2 512.5,206.2 512.5,206.2 512.5,206.2 512.5,206.2 512.5,206.2 512.5,206.2 522.2,208.5 522.2,208.5 522.2,208.5 522.2,208.5 522.2,208.5 522.2,208.5 522.2,208.5 522.2,208.5 522.2,208.5 522.2,208.5 522.2,208.5 522.2,208.5 522.2,208.5 522.2,208.5 531.8,210.9 531.8,210.9 531.8,210.9 531.8,210.9 531.8,210.9 531.8,210.9 531.8,210.9 531.8,210.9 531.8,210.9 531.8,210.9 531.8,210.9 531.8,210.9 531.8,210.9 531.8,210.9 541.4,213.2 541.4,213.2 541.4,213.2 541.4,213.2 541.4,213.2 541.4,213.2 541.4,213.2 541.4,213.2 541.4,213.2 541.4,213.2 541.4,213.2 541.4,213.2 541.4,213.2 541.4,213.2 551.0,215.5 551.0,215.5 551.0,215.5 551.0,215.5 551.0,215.5 551.0,215.5 551.0,215.5 551.0,215.5 551.0,215.5 551.0,215.5 551.0,215.5 551.0,215.5 551.0,215.5 551.0,215.5 560.6,217.9 560.6,217.9 560.6,217.9 560.6,217.9 560.6,217.9 560.6,217.9 560.6,217.9 560.6,217.9 560.6,217.9 560.6,217.9 560.6,217.9 560.6,217.9 560.6,217.9 560.6,217.9 570.3,220.2 570.3,220.2 570.3,220.2 570.3,220.2 570.3,220.2 570.3,220.2 570.3,220.2 570.3,220.2 570.3,220.2 570.3,220.2 570.3,220.2 570.3,220.2 570.3,220.2 570.3,220.2 579.9,222.6 579.9,222.6 579.9,222.6 579.9,222.6 579.9,222.6 579.9,222.6 579.9,222.6 579.9,222.6 579.9,222.6 579.9,222.6 579.9,222.6 579.9,222.6 579.9,222.6 579.9,222.6 589.5,224.9 589.5,224.9 589.5,224.9 589.5,224.9 589.5,224.9 589.5,224.9 589.5,224.9 589.5,224.9 589.5,224.9 589.5,224.9 589.5,224.9 589.5,224.9 589.5,224.9 589.5,224.9 599.1,227.2 599.1,227.2 599.1,227.2 599.1,227.2 599.1,227.2 599.1,227.2 599.1,227.2 599.1,227.2 599.1,227.2 599.1,227.2 599.1,227.2 599.1,227.2 599.1,227.2 599.1,227.2 608.7,229.6 608.7,229.6 608.7,229.6 608.7,229.6 608.7,229.6 608.7,229.6 608.7,229.6 608.7,229.6 608.7,229.6 608.7,229.6 608.7,229.6 608.7,229.6 608.7,229.6 608.7,229.6 618.4,231.9 618.4,231.9 618.4,231.9 618.4,231.9 618.4,231.9 618.4,231.9 618.4,231.9 618.4,231.9 618.4,231.9 618.4,231.9 618.4,231.9 618.4,231.9 618.4,231.9 618.4,231.9 628.0,234.3 628.0,234.3 628.0,234.3 628.0,234.3 628.0,234.3 628.0,234.3 628.0,234.3 628.0,234.3 628.0,234.3 628.0,234.3 628.0,234.3 628.0,234.3 628.0,234.3 628.0,234.3 637.6,236.6 637.6,236.6 637.6,236.6 637.6,236.6 637.6,236.6 637.6,236.6 637.6,236.6 637.6,236.6 637.6,236.6 637.6,236.6 637.6,236.6 637.6,236.6 637.6,236.6 637.6,236.6 647.2,238.9 647.2,238.9 647.2,238.9 647.2,238.9 647.2,238.9 647.2,238.9 647.2,238.9 647.2,238.9 647.2,238.9 647.2,238.9 647.2,238.9 647.2,238.9 647.2,238.9 647.2,238.9 656.8,241.3 656.8,241.3 656.8,241.3 656.8,241.3 656.8,241.3 656.8,241.3 656.8,241.3 656.8,241.3 656.8,241.3 656.8,241.3 656.8,241.3 656.8,241.3 656.8,241.3 656.8,241.3 666.5,243.6 666.5,243.6 666.5,243.6 666.5,243.6 666.5,243.6 666.5,243.6 666.5,243.6 666.5,243.6 666.5,243.6 666.5,243.6 666.5,243.6 666.5,243.6 666.5,243.6 666.5,243.6 676.1,246.0 676.1,246.0 676.1,246.0 676.1,246.0 676.1,246.0 676.1,246.0 676.1,246.0 676.1,246.0 676.1,246.0 676.1,246.0 676.1,246.0 676.1,246.0 676.1,246.0 676.1,246.0 685.7,248.3 685.7,248.3 685.7,248.3 685.7,248.3 685.7,248.3 685.7,248.3 685.7,248.3 685.7,248.3 685.7,248.3 685.7,248.3 685.7,248.3 685.7,248.3 685.7,248.3 685.7,248.3 695.3,250.6 695.3,250.6 695.3,250.6 695.3,250.6 695.3,250.6 695.3,250.6 695.3,250.6 695.3,250.6 695.3,250.6 695.3,250.6 695.3,250.6 695.3,250.6 695.3,250.6 695.3,250.6 704.9,253.0 704.9,253.0 704.9,253.0 704.9,253.0 704.9,253.0 704.9,253.0 704.9,253.0 704.9,253.0 704.9,253.0 704.9,253.0 704.9,253.0 704.9,253.0 704.9,253.0 704.9,253.0 714.6,255.3 714.6,255.3 714.6,255.3 714.6,255.3 714.6,255.3 714.6,255.3 714.6,255.3 714.6,255.3 714.6,255.3 714.6,255.3 714.6,255.3 714.6,255.3 714.6,255.3 714.6,255.3 724.2,257.7 724.2,257.7 724.2,257.7 724.2,257.7 724.2,257.7 724.2,257.7 724.2,257.7 724.2,257.7 724.2,257.7 724.2,257.7 724.2,257.7 724.2,257.7 724.2,257.7 724.2,257.7 733.8,260.0 733.8,260.0 733.8,260.0 733.8,260.0 733.8,260.0 733.8,260.0 733.8,260.0 733.8,260.0 733.8,260.0 733.8,260.0 733.8,260.0 733.8,260.0 733.8,260.0 733.8,260.0 743.4,262.3 743.4,262.3 743.4,262.3 743.4,262.3 743.4,262.3 743.4,262.3 743.4,262.3 743.4,262.3 743.4,262.3 743.4,262.3 743.4,262.3 743.4,262.3 743.4,262.3 743.4,262.3 753.0,264.7 753.0,264.7 753.0,264.7 753.0,264.7 753.0,264.7 753.0,264.7 753.0,264.7 753.0,264.7 753.0,264.7 753.0,264.7 753.0,264.7 753.0,264.7 753.0,264.7 753.0,264.7 762.7,267.0 762.7,267.0 762.7,267.0 762.7,267.0 762.7,267.0 762.7,267.0 762.7,267.0 762.7,267.0 762.7,267.0 762.7,267.0 762.7,267.0 762.7,267.0 762.7,267.0 762.7,267.0 772.3,269.4 772.3,269.4 772.3,269.4 772.3,269.4 772.3,269.4 772.3,269.4 772.3,269.4 772.3,269.4 772.3,269.4 772.3,269.4 772.3,269.4 772.3,269.4 772.3,269.4 772.3,269.4 781.9,271.7 781.9,271.7 781.9,271.7 781.9,271.7 781.9,271.7 781.9,271.7 781.9,271.7 781.9,271.7 781.9,271.7 781.9,271.7 781.9,271.7 781.9,271.7 781.9,271.7 781.9,271.7 791.5,274.0 791.5,274.0 791.5,274.0 791.5,274.0 791.5,274.0 791.5,274.0 791.5,274.0 791.5,274.0 791.5,274.0 791.5,274.0 791.5,274.0 791.5,274.0 791.5,274.0 791.5,274.0 801.1,276.4 801.1,276.4 801.1,276.4 801.1,276.4 801.1,276.4 801.1,276.4 801.1,276.4 801.1,276.4 801.1,276.4 801.1,276.4 801.1,276.4 801.1,276.4 801.1,276.4 801.1,276.4 810.8,278.7 810.8,278.7 810.8,278.7 810.8,278.7 810.8,278.7 810.8,278.7 810.8,278.7 810.8,278.7 810.8,278.7 810.8,278.7 810.8,278.7 810.8,278.7 810.8,278.7 810.8,278.7 820.4,281.1 820.4,281.1 820.4,281.1 820.4,281.1 820.4,281.1 820.4,281.1 820.4,281.1 820.4,281.1 820.4,281.1 820.4,281.1 820.4,281.1 820.4,281.1 820.4,281.1 820.4,281.1 830.0,283.4 830.0,283.4 830.0,283.4 830.0,283.4 830.0,283.4 830.0,283.4 830.0,283.4 830.0,283.4 830.0,283.4 830.0,283.4 830.0,283.4 830.0,283.4 830.0,283.4 830.0,283.4" fill="none" stroke="#2ca02c" stroke-width="2.5"/><polyline points="70.0,100.3 70.0,100.3 70.0,100.3 70.0,100.3 70.0,100.3 70.0,100.3 70.0,100.3 70.0,100.3 70.0,100.3 70.0,100.3 70.0,100.3 70.0,100.3 70.0,100.3 70.0,100.3 79.6,104.4 79.6,104.4 79.6,104.4 79.6,104.4 79.6,104.4 79.6,104.4 79.6,104.4 79.6,104.4 79.6,104.4 79.6,104.4 79.6,104.4 79.6,104.4 79.6,104.4 79.6,104.4 89.2,108.5 89.2,108.5 89.2,108.5 89.2,108.5 89.2,108.5 89.2,108.5 89.2,108.5 89.2,108.5 89.2,108.5 89.2,108.5 89.2,108.5 89.2,108.5 89.2,108.5 89.2,108.5 98.9,112.6 98.9,112.6 98.9,112.6 98.9,112.6 98.9,112.6 98.9,112.6 98.9,112.6 98.9,112.6 98.9,112.6 98.9,112.6 98.9,112.6 98.9,112.6 98.9,112.6 98.9,112.6 108.5,116.7 108.5,116.7 108.5,116.7 108.5,116.7 108.5,116.7 108.5,116.7 108.5,116.7 108.5,116.7 108.5,116.7 108.5,116.7 108.5,116.7 108.5,116.7 108.5,116.7 108.5,116.7 118.1,120.8 118.1,120.8 118.1,120.8 118.1,120.8 118.1,120.8 118.1,120.8 118.1,120.8 118.1,120.8 118.1,120.8 118.1,120.8 118.1,120.8 118.1,120.8 118.1,120.8 118.1,120.8 127.7,124.9 127.7,124.9 127.7,124.9 127.7,124.9 127.7,124.9 127.7,124.9 127.7,124.9 127.7,124.9 127.7,124.9 127.7,124.9 127.7,124.9 127.7,124.9 127.7,124.9 127.7,124.9 137.3,129.0 137.3,129.0 137.3,129.0 137.3,129.0 137.3,129.0 137.3,129.0 137.3,129.0 137.3,129.0 137.3,129.0 137.3,129.0 137.3,129.0 137.3,129.0 137.3,129.0 137.3,129.0 147.0,133.1 147.0,133.1 147.0,133.1 147.0,133.1 147.0,133.1 147.0,133.1 147.0,133.1 147.0,133.1 147.0,133.1 147.0,133.1 147.0,133.1 147.0,133.1 147.0,133.1 147.0,133.1 156.6,137.2 156.6,137.2 156.6,137.2 156.6,137.2 156.6,137.2 156.6,137.2 156.6,137.2 156.6,137.2 156.6,137.2 156.6,137.2 156.6,137.2 156.6,137.2 156.6,137.2 156.6,137.2 166.2,141.2 166.2,141.2 166.2,141.2 166.2,141.2 166.2,141.2 166.2,141.2 166.2,141.2 166.2,141.2 166.2,141.2 166.2,141.2 166.2,141.2 166.2,141.2 166.2,141.2 166.2,141.2 175.8,145.3 175.8,145.3 175.8,145.3 175.8,145.3 175.8,145.3 175.8,145.3 175.8,145.3 175.8,145.3 175.8,145.3 175.8,145.3 175.8,145.3 175.8,145.3 175.8,145.3 175.8,145.3 185.4,149.4 185.4,149.4 185.4,149.4 185.4,149.4 185.4,149.4 185.4,149.4 185.4,149.4 185.4,149.4 185.4,149.4 185.4,149.4 185.4,149.4 185.4,149.4 185.4,149.4 185.4,149.4 195.1,153.5 195.1,153.5 195.1,153.5 195.1,153.5 195.1,153.5 195.1,153.5 195.1,153.5 195.1,153.5 195.1,153.5 195.1,153.5 195.1,153.5 195.1,153.5 195.1,153.5 195.1,153.5 204.7,157.6 204.7,157.6 204.7,157.6 204.7,157.6 204.7,157.6 204.7,157.6 204.7,157.6 204.7,157.6 204.7,157.6 204.7,157.6 204.7,157.6 204.7,157.6 204.7,157.6 204.7,157.6 214.3,161.7 214.3,161.7 214.3,161.7 214.3,161.7 214.3,161.7 214.3,161.7 214.3,161.7 214.3,161.7 214.3,161.7 214.3,161.7 214.3,161.7 214.3,161.7 214.3,161.7 214.3,161.7 223.9,165.8 223.9,165.8 223.9,165.8 223.9,165.8 223.9,165.8 223.9,165.8 223.9,165.8 223.9,165.8 223.9,165.8 223.9,165.8 223.9,165.8 223.9,165.8 223.9,165.8 223.9,165.8 233.5,169.9 233.5,169.9 233.5,169.9 233.5,169.9 233.5,169.9 233.5,169.9 233.5,169.9 233.5,169.9 233.5,169.9 233.5,169.9 233.5,169.9 233.5,169.9 233.5,169.9 233.5,169.9 243.2,174.0 243.2,174.0 243.2,174.0 243.2,174.0 243.2,174.0 243.2,174.0 243.2,174.0 243.2,174.0 243.2,174.0 243.2,174.0 243.2,174.0 243.2,174.0 243.2,174.0 243.2,174.0 252.8,178.1 252.8,178.1 252.8,178.1 252.8,178.1 252.8,178.1 252.8,178.1 252.8,178.1 252.8,178.1 252.8,178.1 252.8,178.1 252.8,178.1 252.8,178.1 252.8,178.1 252.8,178.1 262.4,182.2 262.4,182.2 262.4,182.2 262.4,182.2 262.4,182.2 262.4,182.2 262.4,182.2 262.4,182.2 262.4,182.2 262.4,182.2 262.4,182.2 262.4,182.2 262.4,182.2 262.4,182.2 272.0,186.3 272.0,186.3 272.0,186.3 272.0,186.3 272.0,186.3 272.0,186.3 272.0,186.3 272.0,186.3 272.0,186.3 272.0,186.3 272.0,186.3 272.0,186.3 272.0,186.3 272.0,186.3 281.6,190.4 281.6,190.4 281.6,190.4 281.6,190.4 281.6,190.4 281.6,190.4 281.6,190.4 281.6,190.4 281.6,190.4 281.6,190.4 281.6,190.4 281.6,190.4 281.6,190.4 281.6,190.4 291.3,194.5 291.3,194.5 291.3,194.5 291.3,194.5 291.3,194.5 291.3,194.5 291.3,194.5 291.3,194.5 291.3,194.5 291.3,194.5 291.3,194.5 291.3,194.5 291.3,194.5 291.3,194.5 300.9,198.6 300.9,198.6 300.9,198.6 300.9,198.6 300.9,198.6 300.9,198.6 300.9,198.6 300.9,198.6 300.9,198.6 300.9,198.6 300.9,198.6 300.9,198.6 300.9,198.6 300.9,198.6 310.5,202.7 310.5,202.7 310.5,202.7 310.5,202.7 310.5,202.7 310.5,202.7 310.5,202.7 310.5,202.7 310.5,202.7 310.5,202.7 310.5,202.7 310.5,202.7 310.5,202.7 310.5,202.7 320.1,206.8 320.1,206.8 320.1,206.8 320.1,206.8 320.1,206.8 320.1,206.8 320.1,206.8 320.1,206.8 320.1,206.8 320.1,206.8 320.1,206.8 320.1,206.8 320.1,206.8 320.1,206.8 329.7,210.9 329.7,210.9 329.7,210.9 329.7,210.9 329.7,210.9 329.7,210.9 329.7,210.9 329.7,210.9 329.7,210.9 329.7,210.9 329.7,210.9 329.7,210.9 329.7,210.9 329.7,210.9 339.4,215.0 339.4,215.0 339.4,215.0 339.4,215.0 339.4,215.0 339.4,215.0 339.4,215.0 339.4,215.0 339.4,215.0 339.4,215.0 339.4,215.0 339.4,215.0 339.4,215.0 339.4,215.0 349.0,219.1 349.0,219.1 349.0,219.1 349.0,219.1 349.0,219.1 349.0,219.1 349.0,219.1 349.0,219.1 349.0,219.1 349.0,219.1 349.0,219.1 349.0,219.1 349.0,219.1 349.0,219.1 358.6,223.1 358.6,223.1 358.6,223.1 358.6,223.1 358.6,223.1 358.6,223.1 358.6,223.1 358.6,223.1 358.6,223.1 358.6,223.1 358.6,223.1 358.6,223.1 358.6,223.1 358.6,223.1 368.2,227.2 368.2,227.2 368.2,227.2 368.2,227.2 368.2,227.2 368.2,227.2 368.2,227.2 368.2,227.2 368.2,227.2 368.2,227.2 368.2,227.2 368.2,227.2 368.2,227.2 368.2,227.2 377.8,231.3 377.8,231.3 377.8,231.3 377.8,231.3 377.8,231.3 377.8,231.3 377.8,231.3 377.8,231.3 377.8,231.3 377.8,231.3 377.8,231.3 377.8,231.3 377.8,231.3 377.8,231.3 387.5,235.4 387.5,235.4 387.5,235.4 387.5,235.4 387.5,235.4 387.5,235.4 387.5,235.4 387.5,235.4 387.5,235.4 387.5,235.4 387.5,235.4 387.5,235.4 387.5,235.4 387.5,235.4 397.1,239.5 397.1,239.5 397.1,239.5 397.1,239.5 397.1,239.5 397.1,239.5 397.1,239.5 397.1,239.5 397.1,239.5 397.1,239.5 397.1,239.5 397.1,239.5 397.1,239.5 397.1,239.5 406.7,243.6 406.7,243.6 406.7,243.6 406.7,243.6 406.7,243.6 406.7,243.6 406.7,243.6 406.7,243.6 406.7,243.6 406.7,243.6 406.7,243.6 406.7,243.6 406.7,243.6 406.7,243.6 416.3,247.7 416.3,247.7 416.3,247.7 416.3,247.7 416.3,247.7 416.3,247.7 416.3,247.7 416.3,247.7 416.3,247.7 416.3,247.7 416.3,247.7 416.3,247.7 416.3,247.7 416.3,247.7 425.9,251.8 425.9,251.8 425.9,251.8 425.9,251.8 425.9,251.8 425.9,251.8 425.9,251.8 425.9,251.8 425.9,251.8 425.9,251.8 425.9,251.8 425.9,251.8 425.9,251.8 425.9,251.8 435.6,255.9 435.6,255.9 435.6,255.9 435.6,255.9 435.6,255.9 435.6,255.9 435.6,255.9 435.6,255.9 435.6,255.9 435.6,255.9 435.6,255.9 435.6,255.9 435.6,255.9 435.6,255.9 445.2,260.0 445.2,260.0 445.2,260.0 445.2,260.0 445.2,260.0 445.2,260.0 445.2,260.0 445.2,260.0 445.2,260.0 445.2,260.0 445.2,260.0 445.2,260.0 445.2,260.0 445.2,260.0 454.8,264.1 454.8,264.1 454.8,264.1 454.8,264.1 454.8,264.1 454.8,264.1 454.8,264.1 454.8,264.1 454.8,264.1 454.8,264.1 454.8,264.1 454.8,264.1 454.8,264.1 454.8,264.1 464.4,268.2 464.4,268.2 464.4,268.2 464.4,268.2 464.4,268.2 464.4,268.2 464.4,268.2 464.4,268.2 464.4,268.2 464.4,268.2 464.4,268.2 464.4,268.2 464.4,268.2 464.4,268.2 474.1,272.3 474.1,272.3 474.1,272.3 474.1,272.3 474.1,272.3 474.1,272.3 474.1,272.3 474.1,272.3 474.1,272.3 474.1,272.3 474.1,272.3 474.1,272.3 474.1,272.3 474.1,272.3 483.7,276.4 483.7,276.4 483.7,276.4 483.7,276.4 483.7,276.4 483.7,276.4 483.7,276.4 483.7,276.4 483.7,276.4 483.7,276.4 483.7,276.4 483.7,276.4 483.7,276.4 483.7,276.4 493.3,280.5 493.3,280.5 493.3,280.5 493.3,280.5 493.3,280.5 493.3,280.5 493.3,280.5 493.3,280.5 493.3,280.5 493.3,280.5 493.3,280.5 493.3,280.5 493.3,280.5 493.3,280.5 502.9,284.6 502.9,284.6 502.9,284.6 502.9,284.6 502.9,284.6 502.9,284.6 502.9,284.6 502.9,284.6 502.9,284.6 502.9,284.6 502.9,284.6 502.9,284.6 502.9,284.6 502.9,284.6 512.5,288.7 512.5,288.7 512.5,288.7 512.5,288.7 512.5,288.7 512.5,288.7 512.5,288.7 512.5,288.7 512.5,288.7 512.5,288.7 512.5,288.7 512.5,288.7 512.5,288.7 512.5,288.7 522.2,292.8 522.2,292.8 522.2,292.8 522.2,292.8 522.2,292.8 522.2,292.8 522.2,292.8 522.2,292.8 522.2,292.8 522.2,292.8 522.2,292.8 522.2,292.8 522.2,292.8 522.2,292.8 531.8,296.9 531.8,296.9 531.8,296.9 531.8,296.9 531.8,296.9 531.8,296.9 531.8,296.9 531.8,296.9 531.8,296.9 531.8,296.9 531.8,296.9 531.8,296.9 531.8,296.9 531.8,296.9 541.4,300.9 541.4,300.9 541.4,300.9 541.4,300.9 541.4,300.9 541.4,300.9 541.4,300.9 541.4,300.9 541.4,300.9 541.4,300.9 541.4,300.9 541.4,300.9 541.4,300.9 541.4,300.9 551.0,305.0 551.0,305.0 551.0,305.0 551.0,305.0 551.0,305.0 551.0,305.0 551.0,305.0 551.0,305.0 551.0,305.0 551.0,305.0 551.0,305.0 551.0,305.0 551.0,305.0 551.0,305.0 560.6,309.1 560.6,309.1 560.6,309.1 560.6,309.1 560.6,309.1 560.6,309.1 560.6,309.1 560.6,309.1 560.6,309.1 560.6,309.1 560.6,309.1 560.6,309.1 560.6,309.1 560.6,309.1 570.3,313.2 570.3,313.2 570.3,313.2 570.3,313.2 570.3,313.2 570.3,313.2 570.3,313.2 570.3,313.2 570.3,313.2 570.3,313.2 570.3,313.2 570.3,313.2 570.3,313.2 570.3,313.2 579.9,317.3 579.9,317.3 579.9,317.3 579.9,317.3 579.9,317.3 579.9,317.3 579.9,317.3 579.9,317.3 579.9,317.3 579.9,317.3 579.9,317.3 579.9,317.3 579.9,317.3 579.9,317.3 589.5,321.4 589.5,321.4 589.5,321.4 589.5,321.4 589.5,321.4 589.5,321.4 589.5,321.4 589.5,321.4 589.5,321.4 589.5,321.4 589.5,321.4 589.5,321.4 589.5,321.4 589.5,321.4 599.1,325.5 599.1,325.5 599.1,325.5 599.1,325.5 599.1,325.5 599.1,325.5 599.1,325.5 599.1,325.5 599.1,325.5 599.1,325.5 599.1,325.5 599.1,325.5 599.1,325.5 599.1,325.5 608.7,329.6 608.7,329.6 608.7,329.6 608.7,329.6 608.7,329.6 608.7,329.6 608.7,329.6 608.7,329.6 608.7,329.6 608.7,329.6 608.7,329.6 608.7,329.6 608.7,329.6 608.7,329.6 618.4,333.7 618.4,333.7 618.4,333.7 618.4,333.7 618.4,333.7 618.4,333.7 618.4,333.7 618.4,333.7 618.4,333.7 618.4,333.7 618.4,333.7 618.4,333.7 618.4,333.7 618.4,333.7 628.0,337.8 628.0,337.8 628.0,337.8 628.0,337.8 628.0,337.8 628.0,337.8 628.0,337.8 628.0,337.8 628.0,337.8 628.0,337.8 628.0,337.8 628.0,337.8 628.0,337.8 628.0,337.8 637.6,341.9 637.6,341.9 637.6,341.9 637.6,341.9 637.6,341.9 637.6,341.9 637.6,341.9 637.6,341.9 637.6,341.9 637.6,341.9 637.6,341.9 637.6,341.9 637.6,341.9 637.6,341.9 647.2,346.0 647.2,346.0 647.2,346.0 647.2,346.0 647.2,346.0 647.2,346.0 647.2,346.0 647.2,346.0 647.2,346.0 647.2,346.0 647.2,346.0 647.2,346.0 647.2,346.0 647.2,346.0 656.8,350.1 656.8,350.1 656.8,350.1 656.8,350.1 656.8,350.1 656.8,350.1 656.8,350.1 656.8,350.1 656.8,350.1 656.8,350.1 656.8,350.1 656.8,350.1 656.8,350.1 656.8,350.1 666.5,354.2 666.5,354.2 666.5,354.2 666.5,354.2 666.5,354.2 666.5,354.2 666.5,354.2 666.5,354.2 666.5,354.2 666.5,354.2 666.5,354.2 666.5,354.2 666.5,354.2 666.5,354.2 676.1,358.3 676.1,358.3 676.1,358.3 676.1,358.3 676.1,358.3 676.1,358.3 676.1,358.3 676.1,358.3 676.1,358.3 676.1,358.3 676.1,358.3 676.1,358.3 676.1,358.3 676.1,358.3 685.7,362.4 685.7,362.4 685.7,362.4 685.7,362.4 685.7,362.4 685.7,362.4 685.7,362.4 685.7,362.4 685.7,362.4 685.7,362.4 685.7,362.4 685.7,362.4 685.7,362.4 685.7,362.4 695.3,366.5 695.3,366.5 695.3,366.5 695.3,366.5 695.3,366.5 695.3,366.5 695.3,366.5 695.3,366.5 695.3,366.5 695.3,366.5 695.3,366.5 695.3,366.5 695.3,366.5 695.3,366.5 704.9,370.6 704.9,370.6 704.9,370.6 704.9,370.6 704.9,370.6 704.9,370.6 704.9,370.6 704.9,370.6 704.9,370.6 704.9,370.6 704.9,370.6 704.9,370.6 704.9,370.6 704.9,370.6 714.6,374.7 714.6,374.7 714.6,374.7 714.6,374.7 714.6,374.7 714.6,374.7 714.6,374.7 714.6,374.7 714.6,374.7 714.6,374.7 714.6,374.7 714.6,374.7 714.6,374.7 714.6,374.7 724.2,378.7 724.2,378.7 724.2,378.7 724.2,378.7 724.2,378.7 724.2,378.7 724.2,378.7 724.2,378.7 724.2,378.7 724.2,378.7 724.2,378.7 724.2,378.7 724.2,378.7 724.2,378.7 733.8,382.8 733.8,382.8 733.8,382.8 733.8,382.8 733.8,382.8 733.8,382.8 733.8,382.8 733.8,382.8 733.8,382.8 733.8,382.8 733.8,382.8 733.8,382.8 733.8,382.8 733.8,382.8 743.4,386.9 743.4,386.9 743.4,386.9 743.4,386.9 743.4,386.9 743.4,386.9 743.4,386.9 743.4,386.9 743.4,386.9 743.4,386.9 743.4,386.9 743.4,386.9 743.4,386.9 743.4,386.9 753.0,391.0 753.0,391.0 753.0,391.0 753.0,391.0 753.0,391.0 753.0,391.0 753.0,391.0 753.0,391.0 753.0,391.0 753.0,391.0 753.0,391.0 753.0,391.0 753.0,391.0 753.0,391.0 762.7,395.1 762.7,395.1 762.7,395.1 762.7,395.1 762.7,395.1 762.7,395.1 762.7,395.1 762.7,395.1 762.7,395.1 762.7,395.1 762.7,395.1 762.7,395.1 762.7,395.1 762.7,395.1 772.3,399.2 772.3,399.2 772.3,399.2 772.3,399.2 772.3,399.2 772.3,399.2 772.3,399.2 772.3,399.2 772.3,399.2 772.3,399.2 772.3,399.2 772.3,399.2 772.3,399.2 772.3,399.2 781.9,403.3 781.9,403.3 781.9,403.3 781.9,403.3 781.9,403.3 781.9,403.3 781.9,403.3 781.9,403.3 781.9,403.3 781.9,403.3 781.9,403.3 781.9,403.3 781.9,403.3 781.9,403.3 791.5,407.4 791.5,407.4 791.5,407.4 791.5,407.4 791.5,407.4 791.5,407.4 791.5,407.4 791.5,407.4 791.5,407.4 791.5,407.4 791.5,407.4 791.5,407.4 791.5,407.4 791.5,407.4 801.1,411.5 801.1,411.5 801.1,411.5 801.1,411.5 801.1,411.5 801.1,411.5 801.1,411.5 801.1,411.5 801.1,411.5 801.1,411.5 801.1,411.5 801.1,411.5 801.1,411.5 801.1,411.5 810.8,415.6 810.8,415.6 810.8,415.6 810.8,415.6 810.8,415.6 810.8,415.6 810.8,415.6 810.8,415.6 810.8,415.6 810.8,415.6 810.8,415.6 810.8,415.6 810.8,415.6 810.8,415.6 820.4,419.7 820.4,419.7 820.4,419.7 820.4,419.7 820.4,419.7 820.4,419.7 820.4,419.7 820.4,419.7 820.4,419.7 820.4,419.7 820.4,419.7 820.4,419.7 820.4,419.7 820.4,419.7 830.0,423.8 830.0,423.8 830.0,423.8 830.0,423.8 830.0,423.8 830.0,423.8 830.0,423.8 830.0,423.8 830.0,423.8 830.0,423.8 830.0,423.8 830.0,423.8 830.0,423.8 830.0,423.8" fill="none" stroke="#9467bd" stroke-width="2.5"/>
<line x1="670" y1="70" x2="700" y2="70" stroke="#1f77b4" stroke-width="3"/><text x="710" y="75" font-size="14" fill="#222">S0</text><line x1="670" y1="92" x2="700" y2="92" stroke="#d62728" stroke-width="3"/><text x="710" y="97" font-size="14" fill="#222">S1</text><line x1="670" y1="114" x2="700" y2="114" stroke="#2ca02c" stroke-width="3"/><text x="710" y="119" font-size="14" fill="#222">S2</text><line x1="670" y1="136" x2="700" y2="136" stroke="#9467bd" stroke-width="3"/><text x="710" y="141" font-size="14" fill="#222">S3</text>
<text x="450.0" y="500" text-anchor="middle" font-size="15" font-family="Arial">Synthetic cycle</text>
<text x="22" y="260.0" transform="rotate(-90 22,260.0)" text-anchor="middle" font-size="15" font-family="Arial">HI</text>
<text x="70" y="474" font-size="12" font-family="Arial">1.00</text>
<text x="788" y="474" font-size="12" font-family="Arial">80.00</text>
<text x="18" y="75" font-size="12" font-family="Arial">1.06</text>
<text x="18" y="450" font-size="12" font-family="Arial">0.16</text>
</svg>
