ISO-10303-21;
HEADER;
FILE_DESCRIPTION (( 'STEP AP214' ),
    '1' );
FILE_NAME ('IRB660_180-315_LINK_H_CAD_rev02.STEP',
    '2016-12-02T12:01:53',
    ( 'ABB' ),
    ( 'ABB' ),
    'SwSTEP 2.0',
    'SolidWorks 2014',
    '' );
FILE_SCHEMA (( 'AUTOMOTIVE_DESIGN' ));
ENDSEC;

DATA;
#1 = LINE ( 'NONE', #733, #65 ) ;
#2 = EDGE_LOOP ( 'NONE', ( #568, #791, #157, #359, #111, #939, #379, #622 ) ) ;
#3 = PRODUCT_RELATED_PRODUCT_CATEGORY ( 'part', '', ( #766 ) ) ;
#4 = VERTEX_POINT ( 'NONE', #460 ) ;
#5 = AXIS2_PLACEMENT_3D ( 'NONE', #966, #970, #960 ) ;
#6 = ORIENTED_EDGE ( 'NONE', *, *, #97, .F. ) ;
#7 = VERTEX_POINT ( 'NONE', #817 ) ;
#8 = AXIS2_PLACEMENT_3D ( 'NONE', #940, #935, #943 ) ;
#9 = PRODUCT_DEFINITION_SHAPE ( 'NONE', 'NONE',  #72 ) ;
#10 = ORIENTED_EDGE ( 'NONE', *, *, #831, .F. ) ;
#11 = ORIENTED_EDGE ( 'NONE', *, *, #844, .T. ) ;
#12 = ORIENTED_EDGE ( 'NONE', *, *, #786, .F. ) ;
#13 = PLANE ( 'NONE',  #78 ) ;
#14 = DIRECTION ( 'NONE',  ( 0.0000000000000000000, -3.491483361109382500E-015, 1.000000000000000000 ) ) ;
#15 = LINE ( 'NONE', #813, #955 ) ;
#16 = EDGE_CURVE ( 'NONE', #36, #472, #44, .T. ) ;
#17 = CIRCLE ( 'NONE', #42, 49.99999999999982200 ) ;
#18 = LINE ( 'NONE', #560, #846 ) ;
#19 = VERTEX_POINT ( 'NONE', #889 ) ;
#20 = DIRECTION ( 'NONE',  ( 8.002917117548845100E-032, -1.000000000000000000, -3.544484127503752200E-015 ) ) ;
#21 = AXIS2_PLACEMENT_3D ( 'NONE', #872, #871, #702 ) ;
#22 = AXIS2_PLACEMENT_3D ( 'NONE', #687, #682, #678 ) ;
#23 = FILL_AREA_STYLE_COLOUR ( '', #579 ) ;
#24 =( GEOMETRIC_REPRESENTATION_CONTEXT ( 3 ) GLOBAL_UNCERTAINTY_ASSIGNED_CONTEXT ( ( #246 ) ) GLOBAL_UNIT_ASSIGNED_CONTEXT ( ( #358, #354, #346 ) ) REPRESENTATION_CONTEXT ( 'NONE', 'WORKASPACE' ) );
#25 = PLANE ( 'NONE',  #474 ) ;
#26 = DIRECTION ( 'NONE',  ( -1.000000000000000000, 0.0000000000000000000, -4.692752263169008800E-015 ) ) ;
#27 = SURFACE_STYLE_FILL_AREA ( #123 ) ;
#28 = VERTEX_POINT ( 'NONE', #790 ) ;
#29 = ORIENTED_EDGE ( 'NONE', *, *, #910, .T. ) ;
#30 = CARTESIAN_POINT ( 'NONE',  ( 1994.719999403547000, -142.2500000000095200, 2369.254424358946800 ) ) ;
#31 = AXIS2_PLACEMENT_3D ( 'NONE', #954, #962, #945 ) ;
#32 = DIRECTION ( 'NONE',  ( 0.0000000000000000000, 4.163336342344333100E-015, -1.000000000000000000 ) ) ;
#33 = AXIS2_PLACEMENT_3D ( 'NONE', #478, #546, #362 ) ;
#34 = CIRCLE ( 'NONE', #221, 40.00000000000003600 ) ;
#35 = FACE_OUTER_BOUND ( 'NONE', #2, .T. ) ;
#36 = VERTEX_POINT ( 'NONE', #853 ) ;
#37 = PRODUCT_DEFINITION_FORMATION_WITH_SPECIFIED_SOURCE ( 'ANY', '', #766, .NOT_KNOWN. ) ;
#38 =( NAMED_UNIT ( * ) PLANE_ANGLE_UNIT ( ) SI_UNIT ( $, .RADIAN. ) );
#39 = ORIENTED_EDGE ( 'NONE', *, *, #167, .T. ) ;
#40 = CARTESIAN_POINT ( 'NONE',  ( 709.7199994035465800, -142.2500000000096300, 2344.254424358941400 ) ) ;
#41 = UNCERTAINTY_MEASURE_WITH_UNIT (LENGTH_MEASURE( 1.000000000000000100E-005 ), #532, 'distance_accuracy_value', 'NONE');
#42 = AXIS2_PLACEMENT_3D ( 'NONE', #898, #895, #891 ) ;
#43 = FACE_OUTER_BOUND ( 'NONE', #182, .T. ) ;
#44 = LINE ( 'NONE', #809, #538 ) ;
#45 = VERTEX_POINT ( 'NONE', #803 ) ;
#46 = VERTEX_POINT ( 'NONE', #776 ) ;
#47 = CARTESIAN_POINT ( 'NONE',  ( 708.7199994035357800, -169.7500000000096300, 2346.254424358940900 ) ) ;
#48 =( GEOMETRIC_REPRESENTATION_CONTEXT ( 3 ) GLOBAL_UNCERTAINTY_ASSIGNED_CONTEXT ( ( #41 ) ) GLOBAL_UNIT_ASSIGNED_CONTEXT ( ( #532, #527, #524 ) ) REPRESENTATION_CONTEXT ( 'NONE', 'WORKASPACE' ) );
#49 = CYLINDRICAL_SURFACE ( 'NONE', #660, 49.99999999999982200 ) ;
#50 = CYLINDRICAL_SURFACE ( 'NONE', #33, 20.00000000000001800 ) ;
#51 = ORIENTED_EDGE ( 'NONE', *, *, #863, .F. ) ;
#52 = SURFACE_STYLE_FILL_AREA ( #348 ) ;
#53 = EDGE_CURVE ( 'NONE', #882, #873, #1, .T. ) ;
#54 = ORIENTED_EDGE ( 'NONE', *, *, #461, .T. ) ;
#55 = AXIS2_PLACEMENT_3D ( 'NONE', #956, #924, #929 ) ;
#56 = FACE_OUTER_BOUND ( 'NONE', #93, .T. ) ;
#57 = EDGE_LOOP ( 'NONE', ( #816, #112, #98, #923 ) ) ;
#58 = MECHANICAL_DESIGN_GEOMETRIC_PRESENTATION_REPRESENTATION (  '', ( #73 ), #48 ) ;
#59 = VERTEX_POINT ( 'NONE', #691 ) ;
#60 = ORIENTED_EDGE ( 'NONE', *, *, #928, .T. ) ;
#61 = ORIENTED_EDGE ( 'NONE', *, *, #932, .T. ) ;
#62 = AXIS2_PLACEMENT_3D ( 'NONE', #279, #302, #969 ) ;
#63 = DIRECTION ( 'NONE',  ( 0.0000000000000000000, -1.000000000000000000, -3.531707261708572600E-015 ) ) ;
#64 = DIRECTION ( 'NONE',  ( 0.0000000000000000000, -3.491483361109382500E-015, 1.000000000000000000 ) ) ;
#65 = VECTOR ( 'NONE', #651, 1000.000000000000000 ) ;
#66 = EDGE_LOOP ( 'NONE', ( #618, #248, #131, #948, #389, #301, #861, #907 ) ) ;
#67 = SURFACE_STYLE_USAGE ( .BOTH. , #70 ) ;
#68 = ORIENTED_EDGE ( 'NONE', *, *, #423, .T. ) ;
#69 = PRESENTATION_LAYER_ASSIGNMENT (  '', '', ( #73 ) ) ;
#70 = SURFACE_SIDE_STYLE ('',( #27 ) ) ;
#71 = ORIENTED_EDGE ( 'NONE', *, *, #104, .T. ) ;
#72 = PRODUCT_DEFINITION ( 'UNKNOWN', '', #37, #597 ) ;
#73 = STYLED_ITEM ( 'NONE', ( #612 ), #127 ) ;
#74 = FACE_OUTER_BOUND ( 'NONE', #57, .T. ) ;
#75 = CYLINDRICAL_SURFACE ( 'NONE', #589, 20.00000000000001800 ) ;
#76 = FACE_OUTER_BOUND ( 'NONE', #722, .T. ) ;
#77 = VERTEX_POINT ( 'NONE', #720 ) ;
#78 = AXIS2_PLACEMENT_3D ( 'NONE', #973, #949, #26 ) ;
#79 = ORIENTED_EDGE ( 'NONE', *, *, #406, .T. ) ;
#80 = ORIENTED_EDGE ( 'NONE', *, *, #108, .T. ) ;
#81 = ORIENTED_EDGE ( 'NONE', *, *, #104, .F. ) ;
#82 = AXIS2_PLACEMENT_3D ( 'NONE', #604, #628, #625 ) ;
#83 = ORIENTED_EDGE ( 'NONE', *, *, #413, .F. ) ;
#84 = DIRECTION ( 'NONE',  ( -0.0000000000000000000, 1.000000000000000000, 3.491483361109382500E-015 ) ) ;
#85 = ORIENTED_EDGE ( 'NONE', *, *, #239, .T. ) ;
#86 = EDGE_LOOP ( 'NONE', ( #685, #394, #727, #712 ) ) ;
#87 = DIRECTION ( 'NONE',  ( 8.002917117548845100E-032, -1.000000000000000000, -3.544484127503752200E-015 ) ) ;
#88 = EDGE_CURVE ( 'NONE', #181, #272, #211, .T. ) ;
#89 = FILL_AREA_STYLE_COLOUR ( '', #707 ) ;
#90 =( GEOMETRIC_REPRESENTATION_CONTEXT ( 3 ) GLOBAL_UNCERTAINTY_ASSIGNED_CONTEXT ( ( #215 ) ) GLOBAL_UNIT_ASSIGNED_CONTEXT ( ( #396, #390, #381 ) ) REPRESENTATION_CONTEXT ( 'NONE', 'WORKASPACE' ) );
#91 = AXIS2_PLACEMENT_3D ( 'NONE', #384, #421, #307 ) ;
#92 = CYLINDRICAL_SURFACE ( 'NONE', #91, 20.00000000000001800 ) ;
#93 = EDGE_LOOP ( 'NONE', ( #198, #896, #118, #519 ) ) ;
#94 = CIRCLE ( 'NONE', #295, 40.00000000000003600 ) ;
#95 = VERTEX_POINT ( 'NONE', #709 ) ;
#96 = EDGE_LOOP ( 'NONE', ( #605, #584, #696, #543 ) ) ;
#97 = EDGE_CURVE ( 'NONE', #530, #688, #387, .T. ) ;
#98 = ORIENTED_EDGE ( 'NONE', *, *, #825, .F. ) ;
#99 = ORIENTED_EDGE ( 'NONE', *, *, #53, .F. ) ;
#100 = CYLINDRICAL_SURFACE ( 'NONE', #350, 49.99999999999982200 ) ;
#101 = ORIENTED_EDGE ( 'NONE', *, *, #310, .T. ) ;
#102 = EDGE_LOOP ( 'NONE', ( #659, #60, #745, #61 ) ) ;
#103 = VERTEX_POINT ( 'NONE', #695 ) ;
#104 = EDGE_CURVE ( 'NONE', #160, #919, #683, .T. ) ;
#105 = COLOUR_RGB ( '',0.2901960784313725200, 0.3294117647058823500, 0.3490196078431372400 ) ;
#106 = AXIS2_PLACEMENT_3D ( 'NONE', #412, #343, #341 ) ;
#107 = ORIENTED_EDGE ( 'NONE', *, *, #225, .F. ) ;
#108 = EDGE_CURVE ( 'NONE', #103, #160, #643, .T. ) ;
#109 = VECTOR ( 'NONE', #806, 1000.000000000000000 ) ;
#110 = EDGE_LOOP ( 'NONE', ( #646, #769, #420, #740 ) ) ;
#111 = ORIENTED_EDGE ( 'NONE', *, *, #476, .F. ) ;
#112 = ORIENTED_EDGE ( 'NONE', *, *, #257, .T. ) ;
#113 =( GEOMETRIC_REPRESENTATION_CONTEXT ( 3 ) GLOBAL_UNCERTAINTY_ASSIGNED_CONTEXT ( ( #602 ) ) GLOBAL_UNIT_ASSIGNED_CONTEXT ( ( #323, #320, #313 ) ) REPRESENTATION_CONTEXT ( 'NONE', 'WORKASPACE' ) );
#114 = VECTOR ( 'NONE', #147, 1000.000000000000000 ) ;
#115 = CARTESIAN_POINT ( 'NONE',  ( 709.7199994035461300, -172.2500000000098100, 2394.254424358940900 ) ) ;
#116 = CYLINDRICAL_SURFACE ( 'NONE', #449, 20.00000000000001800 ) ;
#117 = EDGE_CURVE ( 'NONE', #272, #4, #196, .T. ) ;
#118 = ORIENTED_EDGE ( 'NONE', *, *, #504, .F. ) ;
#119 = DIRECTION ( 'NONE',  ( -1.000000000000000000, 0.0000000000000000000, -4.581729960706493200E-015 ) ) ;
#120 = DIRECTION ( 'NONE',  ( 0.0000000000000000000, 1.000000000000000000, 3.491483361109382100E-015 ) ) ;
#121 = VERTEX_POINT ( 'NONE', #475 ) ;
#122 = EDGE_CURVE ( 'NONE', #563, #28, #18, .T. ) ;
#123 = FILL_AREA_STYLE ('',( #89 ) ) ;
#124 = FACE_OUTER_BOUND ( 'NONE', #669, .T. ) ;
#125 = VECTOR ( 'NONE', #676, 1000.000000000000000 ) ;
#126 = VECTOR ( 'NONE', #822, 1000.000000000000000 ) ;
#127 = ADVANCED_FACE ( 'NONE', ( #796 ), #50, .F. ) ;
#128 = MECHANICAL_DESIGN_GEOMETRIC_PRESENTATION_REPRESENTATION (  '', ( #149 ), #113 ) ;
#129 = ORIENTED_EDGE ( 'NONE', *, *, #932, .F. ) ;
#130 = AXIS2_PLACEMENT_3D ( 'NONE', #673, #670, #666 ) ;
#131 = ORIENTED_EDGE ( 'NONE', *, *, #364, .T. ) ;
#132 = ADVANCED_FACE ( 'NONE', ( #298 ), #425, .F. ) ;
#133 = CARTESIAN_POINT ( 'NONE',  ( 1994.719999403547000, -169.7500000000097200, 2369.254424358946800 ) ) ;
#134 = ADVANCED_FACE ( 'NONE', ( #693 ), #401, .T. ) ;
#135 = DIRECTION ( 'NONE',  ( -1.000000000000000000, 0.0000000000000000000, -4.581729960706493200E-015 ) ) ;
#136 = EDGE_CURVE ( 'NONE', #19, #247, #281, .T. ) ;
#137 = ADVANCED_FACE ( 'NONE', ( #856, #456 ), #391, .F. ) ;
#138 = EDGE_LOOP ( 'NONE', ( #545, #814, #528, #884 ) ) ;
#139 = DIRECTION ( 'NONE',  ( 4.581729960706493200E-015, 2.913242202450446500E-015, -1.000000000000000000 ) ) ;
#140 = ADVANCED_FACE ( 'NONE', ( #35, #773 ), #280, .F. ) ;
#141 = FACE_OUTER_BOUND ( 'NONE', #849, .T. ) ;
#142 = ADVANCED_FACE ( 'NONE', ( #56 ), #482, .F. ) ;
#143 = PLANE ( 'NONE',  #304 ) ;
#144 = PRESENTATION_LAYER_ASSIGNMENT (  '', '', ( #149 ) ) ;
#145 = ORIENTED_EDGE ( 'NONE', *, *, #413, .T. ) ;
#146 = ADVANCED_FACE ( 'NONE', ( #834 ), #213, .F. ) ;
#147 = DIRECTION ( 'NONE',  ( -1.000000000000000000, 0.0000000000000000000, -4.581729960706493200E-015 ) ) ;
#148 = SHAPE_DEFINITION_REPRESENTATION ( #9, #877 ) ;
#149 = STYLED_ITEM ( 'NONE', ( #426 ), #259 ) ;
#150 = DIRECTION ( 'NONE',  ( 0.0000000000000000000, -1.000000000000000000, -3.298736308223049300E-015 ) ) ;
#151 = ADVANCED_FACE ( 'NONE', ( #848 ), #206, .F. ) ;
#152 = EDGE_CURVE ( 'NONE', #824, #300, #356, .T. ) ;
#153 = LINE ( 'NONE', #841, #109 ) ;
#154 = ADVANCED_FACE ( 'NONE', ( #870 ), #143, .F. ) ;
#155 = PRESENTATION_LAYER_ASSIGNMENT (  '', '', ( #218 ) ) ;
#156 = VERTEX_POINT ( 'NONE', #185 ) ;
#157 = ORIENTED_EDGE ( 'NONE', *, *, #436, .F. ) ;
#158 = EDGE_CURVE ( 'NONE', #19, #181, #787, .T. ) ;
#159 = ADVANCED_FACE ( 'NONE', ( #141 ), #100, .T. ) ;
#160 = VERTEX_POINT ( 'NONE', #344 ) ;
#161 = ADVANCED_FACE ( 'NONE', ( #508 ), #116, .F. ) ;
#162 = AXIS2_PLACEMENT_3D ( 'NONE', #473, #487, #522 ) ;
#163 = ADVANCED_FACE ( 'NONE', ( #74 ), #25, .F. ) ;
#164 = EDGE_LOOP ( 'NONE', ( #12, #186 ) ) ;
#165 = ADVANCED_FACE ( 'NONE', ( #823 ), #75, .F. ) ;
#166 = ORIENTED_EDGE ( 'NONE', *, *, #336, .F. ) ;
#167 = EDGE_CURVE ( 'NONE', #95, #514, #192, .T. ) ;
#168 = ORIENTED_EDGE ( 'NONE', *, *, #844, .F. ) ;
#169 = VECTOR ( 'NONE', #905, 1000.000000000000000 ) ;
#170 = VECTOR ( 'NONE', #525, 1000.000000000000000 ) ;
#171 = VERTEX_POINT ( 'NONE', #897 ) ;
#172 = UNCERTAINTY_MEASURE_WITH_UNIT (LENGTH_MEASURE( 1.000000000000000100E-005 ), #402, 'distance_accuracy_value', 'NONE');
#173 = PRESENTATION_STYLE_ASSIGNMENT (( #361 ) ) ;
#174 = SURFACE_STYLE_FILL_AREA ( #368 ) ;
#175 = AXIS2_PLACEMENT_3D ( 'NONE', #621, #860, #448 ) ;
#176 = COLOUR_RGB ( '',0.8431372549019607900, 0.8431372549019607900, 0.8431372549019607900 ) ;
#177 = AXIS2_PLACEMENT_3D ( 'NONE', #657, #655, #654 ) ;
#178 = ADVANCED_FACE ( 'NONE', ( #866, #373 ), #911, .T. ) ;
#179 = EDGE_CURVE ( 'NONE', #433, #919, #212, .T. ) ;
#180 = ORIENTED_EDGE ( 'NONE', *, *, #734, .F. ) ;
#181 = VERTEX_POINT ( 'NONE', #857 ) ;
#182 = EDGE_LOOP ( 'NONE', ( #961, #768, #631, #285 ) ) ;
#183 = ADVANCED_FACE ( 'NONE', ( #43 ), #49, .T. ) ;
#184 = ADVANCED_FACE ( 'NONE', ( #208 ), #829, .F. ) ;
#185 = CARTESIAN_POINT ( 'NONE',  ( 1930.719999403517500, -169.7500000000098100, 2392.254424358946400 ) ) ;
#186 = ORIENTED_EDGE ( 'NONE', *, *, #617, .F. ) ;
#187 = AXIS2_PLACEMENT_3D ( 'NONE', #271, #260, #64 ) ;
#188 = VECTOR ( 'NONE', #613, 1000.000000000000000 ) ;
#189 = CARTESIAN_POINT ( 'NONE',  ( 709.7199994035461300, -142.2500000000098100, 2394.254424358940900 ) ) ;
#190 = ADVANCED_FACE ( 'NONE', ( #913, #904 ), #759, .F. ) ;
#191 = VECTOR ( 'NONE', #705, 1000.000000000000000 ) ;
#192 = CIRCLE ( 'NONE', #570, 40.00000000000003600 ) ;
#193 = DIRECTION ( 'NONE',  ( 1.511391897585587400E-029, -3.298736308223049300E-015, 1.000000000000000000 ) ) ;
#194 = ADVANCED_FACE ( 'NONE', ( #934 ), #840, .F. ) ;
#195 = AXIS2_PLACEMENT_3D ( 'NONE', #294, #349, #256 ) ;
#196 = LINE ( 'NONE', #551, #581 ) ;
#197 = EDGE_CURVE ( 'NONE', #688, #486, #893, .T. ) ;
#198 = ORIENTED_EDGE ( 'NONE', *, *, #799, .T. ) ;
#199 = DIRECTION ( 'NONE',  ( 4.581729960706493200E-015, 3.491483361109382500E-015, -1.000000000000000000 ) ) ;
#200 = ADVANCED_FACE ( 'NONE', ( #785 ), #748, .T. ) ;
#201 = EDGE_CURVE ( 'NONE', #430, #46, #821, .T. ) ;
#202 = AXIS2_PLACEMENT_3D ( 'NONE', #467, #377, #385 ) ;
#203 = ORIENTED_EDGE ( 'NONE', *, *, #483, .T. ) ;
#204 = UNCERTAINTY_MEASURE_WITH_UNIT (LENGTH_MEASURE( 1.000000000000000100E-005 ), #977, 'distance_accuracy_value', 'NONE');
#205 = VERTEX_POINT ( 'NONE', #615 ) ;
#206 = PLANE ( 'NONE',  #282 ) ;
#207 = EDGE_CURVE ( 'NONE', #919, #882, #737, .T. ) ;
#208 = FACE_OUTER_BOUND ( 'NONE', #442, .T. ) ;
#209 = CARTESIAN_POINT ( 'NONE',  ( 1930.719999403546400, -169.7500000000098100, 2392.254424358946400 ) ) ;
#210 = CYLINDRICAL_SURFACE ( 'NONE', #8, 40.00000000000003600 ) ;
#211 = LINE ( 'NONE', #780, #653 ) ;
#212 = LINE ( 'NONE', #859, #415 ) ;
#213 = PLANE ( 'NONE',  #251 ) ;
#214 = ORIENTED_EDGE ( 'NONE', *, *, #476, .T. ) ;
#215 = UNCERTAINTY_MEASURE_WITH_UNIT (LENGTH_MEASURE( 1.000000000000000100E-005 ), #396, 'distance_accuracy_value', 'NONE');
#216 = EDGE_CURVE ( 'NONE', #493, #308, #679, .T. ) ;
#217 = CARTESIAN_POINT ( 'NONE',  ( 709.7199994035465800, -148.2500000000096900, 2344.254424358941400 ) ) ;
#218 = STYLED_ITEM ( 'NONE', ( #254 ), #968 ) ;
#219 = COLOUR_RGB ( '',0.8431372549019607900, 0.8431372549019607900, 0.8431372549019607900 ) ;
#220 = SURFACE_STYLE_FILL_AREA ( #410 ) ;
#221 = AXIS2_PLACEMENT_3D ( 'NONE', #650, #645, #641 ) ;
#222 = ORIENTED_EDGE ( 'NONE', *, *, #378, .T. ) ;
#223 = ORIENTED_EDGE ( 'NONE', *, *, #807, .F. ) ;
#224 = VECTOR ( 'NONE', #416, 1000.000000000000000 ) ;
#225 = EDGE_CURVE ( 'NONE', #156, #121, #869, .T. ) ;
#226 = LINE ( 'NONE', #419, #224 ) ;
#227 = VECTOR ( 'NONE', #414, 1000.000000000000000 ) ;
#228 = ADVANCED_FACE ( 'NONE', ( #614 ), #466, .F. ) ;
#229 = EDGE_LOOP ( 'NONE', ( #85, #203, #407, #101 ) ) ;
#230 = VERTEX_POINT ( 'NONE', #496 ) ;
#231 = VECTOR ( 'NONE', #437, 1000.000000000000000 ) ;
#232 = LINE ( 'NONE', #424, #227 ) ;
#233 = LINE ( 'NONE', #443, #231 ) ;
#234 = FACE_OUTER_BOUND ( 'NONE', #138, .T. ) ;
#235 = LINE ( 'NONE', #305, #340 ) ;
#236 = VERTEX_POINT ( 'NONE', #507 ) ;
#237 = AXIS2_PLACEMENT_3D ( 'NONE', #267, #287, #277 ) ;
#238 = ADVANCED_FACE ( 'NONE', ( #124 ), #972, .T. ) ;
#239 = EDGE_CURVE ( 'NONE', #230, #667, #681, .T. ) ;
#240 = VECTOR ( 'NONE', #490, 1000.000000000000000 ) ;
#241 = LINE ( 'NONE', #471, #240 ) ;
#242 = VECTOR ( 'NONE', #470, 1000.000000000000000 ) ;
#243 = LINE ( 'NONE', #491, #242 ) ;
#244 = CIRCLE ( 'NONE', #858, 49.99999999999982200 ) ;
#245 = EDGE_CURVE ( 'NONE', #873, #721, #925, .T. ) ;
#246 = UNCERTAINTY_MEASURE_WITH_UNIT (LENGTH_MEASURE( 1.000000000000000100E-005 ), #358, 'distance_accuracy_value', 'NONE');
#247 = VERTEX_POINT ( 'NONE', #435 ) ;
#248 = ORIENTED_EDGE ( 'NONE', *, *, #319, .T. ) ;
#249 = VECTOR ( 'NONE', #494, 1000.000000000000000 ) ;
#250 = LINE ( 'NONE', #505, #249 ) ;
#251 = AXIS2_PLACEMENT_3D ( 'NONE', #217, #193, #150 ) ;
#252 = CIRCLE ( 'NONE', #808, 49.99999999999982200 ) ;
#253 = ORIENTED_EDGE ( 'NONE', *, *, #245, .T. ) ;
#254 = PRESENTATION_STYLE_ASSIGNMENT (( #404 ) ) ;
#255 = CIRCLE ( 'NONE', #640, 49.99999999999982200 ) ;
#256 = DIRECTION ( 'NONE',  ( 0.0000000000000000000, -3.544484127503752200E-015, 1.000000000000000000 ) ) ;
#257 = EDGE_CURVE ( 'NONE', #247, #978, #383, .T. ) ;
#258 = EDGE_LOOP ( 'NONE', ( #686, #29, #944, #827 ) ) ;
#259 = ADVANCED_FACE ( 'NONE', ( #234 ), #92, .F. ) ;
#260 = DIRECTION ( 'NONE',  ( -0.0000000000000000000, 1.000000000000000000, 3.491483361109382500E-015 ) ) ;
#261 = ORIENTED_EDGE ( 'NONE', *, *, #887, .F. ) ;
#262 = CIRCLE ( 'NONE', #698, 49.99999999999982200 ) ;
#263 = EDGE_CURVE ( 'NONE', #4, #300, #235, .T. ) ;
#264 = LINE ( 'NONE', #576, #327 ) ;
#265 = LINE ( 'NONE', #624, #332 ) ;
#266 = MECHANICAL_DESIGN_GEOMETRIC_PRESENTATION_REPRESENTATION (  '', ( #218 ), #854 ) ;
#267 = CARTESIAN_POINT ( 'NONE',  ( 1930.446225199752500, -169.7500000000094900, 2306.255361273852500 ) ) ;
#268 = CIRCLE ( 'NONE', #959, 49.99999999999982200 ) ;
#269 = AXIS2_PLACEMENT_3D ( 'NONE', #598, #596, #595 ) ;
#270 = ORIENTED_EDGE ( 'NONE', *, *, #633, .T. ) ;
#271 = CARTESIAN_POINT ( 'NONE',  ( 1930.446225199752500, -169.7500000000094900, 2306.255361273852500 ) ) ;
#272 = VERTEX_POINT ( 'NONE', #284 ) ;
#273 = DIRECTION ( 'NONE',  ( 1.000000000000000000, 0.0000000000000000000, 0.0000000000000000000 ) ) ;
#274 = EDGE_LOOP ( 'NONE', ( #214, #552, #662, #485 ) ) ;
#275 = EDGE_CURVE ( 'NONE', #873, #45, #351, .T. ) ;
#276 = CIRCLE ( 'NONE', #515, 20.00000000000001800 ) ;
#277 = DIRECTION ( 'NONE',  ( 0.0000000000000000000, -3.469446951953611000E-015, 1.000000000000000000 ) ) ;
#278 = VECTOR ( 'NONE', #634, 1000.000000000000000 ) ;
#279 = CARTESIAN_POINT ( 'NONE',  ( 1930.719999403546600, -169.7500000000096300, 2346.254424358946400 ) ) ;
#280 = PLANE ( 'NONE',  #195 ) ;
#281 = LINE ( 'NONE', #371, #453 ) ;
#282 = AXIS2_PLACEMENT_3D ( 'NONE', #209, #199, #135 ) ;
#283 = ADVANCED_FACE ( 'NONE', ( #440 ), #13, .F. ) ;
#284 = CARTESIAN_POINT ( 'NONE',  ( 1929.719999403546600, -142.2500000000096900, 2394.254424358946400 ) ) ;
#285 = ORIENTED_EDGE ( 'NONE', *, *, #728, .F. ) ;
#286 = SURFACE_SIDE_STYLE ('',( #52 ) ) ;
#287 = DIRECTION ( 'NONE',  ( 0.0000000000000000000, 1.000000000000000000, 3.491483361109382100E-015 ) ) ;
#288 = ADVANCED_FACE ( 'NONE', ( #76 ), #971, .F. ) ;
#289 = ADVANCED_FACE ( 'NONE', ( #642, #352 ), #964, .T. ) ;
#290 = ORIENTED_EDGE ( 'NONE', *, *, #88, .T. ) ;
#291 = ADVANCED_FACE ( 'NONE', ( #559, #868 ), #946, .T. ) ;
#292 = ORIENTED_EDGE ( 'NONE', *, *, #825, .T. ) ;
#293 = PRESENTATION_LAYER_ASSIGNMENT (  '', '', ( #325 ) ) ;
#294 = CARTESIAN_POINT ( 'NONE',  ( 708.9937736073407000, -169.7500000000099500, 2432.253487444034800 ) ) ;
#295 = AXIS2_PLACEMENT_3D ( 'NONE', #757, #752, #750 ) ;
#296 = ADVANCED_FACE ( 'NONE', ( #783 ), #210, .F. ) ;
#297 = ADVANCED_FACE ( 'NONE', ( #322 ), #590, .T. ) ;
#298 = FACE_OUTER_BOUND ( 'NONE', #539, .T. ) ;
#299 = CIRCLE ( 'NONE', #912, 49.99999999999982200 ) ;
#300 = VERTEX_POINT ( 'NONE', #921 ) ;
#301 = ORIENTED_EDGE ( 'NONE', *, *, #197, .T. ) ;
#302 = DIRECTION ( 'NONE',  ( 1.599703392290296900E-029, -3.491483361109360800E-015, 1.000000000000000000 ) ) ;
#303 = ORIENTED_EDGE ( 'NONE', *, *, #799, .F. ) ;
#304 = AXIS2_PLACEMENT_3D ( 'NONE', #189, #139, #119 ) ;
#305 = CARTESIAN_POINT ( 'NONE',  ( 709.7199994035465800, -142.2500000000096300, 2394.254424358942300 ) ) ;
#306 = CIRCLE ( 'NONE', #269, 20.00000000000001800 ) ;
#307 = DIRECTION ( 'NONE',  ( 0.0000000000000000000, 4.163336342344333100E-015, -1.000000000000000000 ) ) ;
#308 = VERTEX_POINT ( 'NONE', #908 ) ;
#309 = CIRCLE ( 'NONE', #586, 49.99999999999982200 ) ;
#310 = EDGE_CURVE ( 'NONE', #721, #230, #890, .T. ) ;
#311 = CIRCLE ( 'NONE', #398, 49.99999999999982200 ) ;
#312 = VECTOR ( 'NONE', #550, 1000.000000000000000 ) ;
#313 =( NAMED_UNIT ( * ) SI_UNIT ( $, .STERADIAN. ) SOLID_ANGLE_UNIT ( ) );
#314 = MECHANICAL_DESIGN_GEOMETRIC_PRESENTATION_REPRESENTATION (  '', ( #644 ), #24 ) ;
#315 = ORIENTED_EDGE ( 'NONE', *, *, #207, .T. ) ;
#316 = VECTOR ( 'NONE', #592, 1000.000000000000000 ) ;
#317 = LINE ( 'NONE', #549, #331 ) ;
#318 = CIRCLE ( 'NONE', #328, 20.00000000000001800 ) ;
#319 = EDGE_CURVE ( 'NONE', #510, #875, #17, .T. ) ;
#320 =( NAMED_UNIT ( * ) PLANE_ANGLE_UNIT ( ) SI_UNIT ( $, .RADIAN. ) );
#321 = CIRCLE ( 'NONE', #704, 20.00000000000001800 ) ;
#322 = FACE_OUTER_BOUND ( 'NONE', #601, .T. ) ;
#323 =( LENGTH_UNIT ( ) NAMED_UNIT ( * ) SI_UNIT ( .MILLI., .METRE. ) );
#324 = ORIENTED_EDGE ( 'NONE', *, *, #197, .F. ) ;
#325 = STYLED_ITEM ( 'NONE', ( #914 ), #161 ) ;
#326 = ORIENTED_EDGE ( 'NONE', *, *, #609, .T. ) ;
#327 = VECTOR ( 'NONE', #575, 1000.000000000000000 ) ;
#328 = AXIS2_PLACEMENT_3D ( 'NONE', #583, #582, #580 ) ;
#329 = LINE ( 'NONE', #611, #316 ) ;
#330 = APPLICATION_PROTOCOL_DEFINITION ( 'draft international standard', 'automotive_design', 1998, #333 ) ;
#331 = VECTOR ( 'NONE', #556, 1000.000000000000000 ) ;
#332 = VECTOR ( 'NONE', #619, 1000.000000000000000 ) ;
#333 = APPLICATION_CONTEXT ( 'automotive_design' ) ;
#334 = CIRCLE ( 'NONE', #451, 40.00000000000003600 ) ;
#335 = SURFACE_STYLE_USAGE ( .BOTH. , #286 ) ;
#336 = EDGE_CURVE ( 'NONE', #978, #181, #797, .T. ) ;
#337 = PRODUCT_CONTEXT ( 'NONE', #376, 'mechanical' ) ;
#338 = APPLICATION_PROTOCOL_DEFINITION ( 'draft international standard', 'automotive_design', 1998, #376 ) ;
#339 = EDGE_LOOP ( 'NONE', ( #874, #632, #223, #459 ) ) ;
#340 = VECTOR ( 'NONE', #355, 1000.000000000000000 ) ;
#341 = DIRECTION ( 'NONE',  ( 1.000000000000000000, 0.0000000000000000000, 0.0000000000000000000 ) ) ;
#342 = ORIENTED_EDGE ( 'NONE', *, *, #257, .F. ) ;
#343 = DIRECTION ( 'NONE',  ( 0.0000000000000000000, 0.0000000000000000000, 1.000000000000000000 ) ) ;
#344 = CARTESIAN_POINT ( 'NONE',  ( 708.7199994035271400, -144.7500000000098100, 2392.254424358940900 ) ) ;
#345 = LINE ( 'NONE', #620, #188 ) ;
#346 =( NAMED_UNIT ( * ) SI_UNIT ( $, .STERADIAN. ) SOLID_ANGLE_UNIT ( ) );
#347 = PRESENTATION_LAYER_ASSIGNMENT (  '', '', ( #644 ) ) ;
#348 = FILL_AREA_STYLE ('',( #374 ) ) ;
#349 = DIRECTION ( 'NONE',  ( -8.002917117548844000E-032, 1.000000000000000000, 3.544484127503752200E-015 ) ) ;
#350 = AXIS2_PLACEMENT_3D ( 'NONE', #133, #120, #445 ) ;
#351 = LINE ( 'NONE', #47, #947 ) ;
#352 = FACE_BOUND ( 'NONE', #957, .T. ) ;
#353 = EDGE_CURVE ( 'NONE', #514, #160, #837, .T. ) ;
#354 =( NAMED_UNIT ( * ) PLANE_ANGLE_UNIT ( ) SI_UNIT ( $, .RADIAN. ) );
#355 = DIRECTION ( 'NONE',  ( 4.995215509932459700E-030, -1.000000000000000000, -0.0000000000000000000 ) ) ;
#356 = LINE ( 'NONE', #115, #114 ) ;
#357 = ORIENTED_EDGE ( 'NONE', *, *, #608, .F. ) ;
#358 =( LENGTH_UNIT ( ) NAMED_UNIT ( * ) SI_UNIT ( .MILLI., .METRE. ) );
#359 = ORIENTED_EDGE ( 'NONE', *, *, #239, .F. ) ;
#360 = LINE ( 'NONE', #571, #312 ) ;
#361 = SURFACE_STYLE_USAGE ( .BOTH. , #366 ) ;
#362 = DIRECTION ( 'NONE',  ( 0.0000000000000000000, 4.163336342344333100E-015, -1.000000000000000000 ) ) ;
#363 = VECTOR ( 'NONE', #588, 1000.000000000000000 ) ;
#364 = EDGE_CURVE ( 'NONE', #875, #744, #591, .T. ) ;
#365 = LINE ( 'NONE', #600, #363 ) ;
#366 = SURFACE_SIDE_STYLE ('',( #174 ) ) ;
#367 = VECTOR ( 'NONE', #635, 1000.000000000000000 ) ;
#368 = FILL_AREA_STYLE ('',( #397 ) ) ;
#369 = DIRECTION ( 'NONE',  ( 0.0000000000000000000, -1.000000000000000000, -3.298736308223049300E-015 ) ) ;
#370 = DIRECTION ( 'NONE',  ( 1.000000000000000000, 4.985683328519709700E-044, -1.511391897585587400E-029 ) ) ;
#371 = CARTESIAN_POINT ( 'NONE',  ( 709.7199994035464700, -148.2500000000096900, 2344.254424358941400 ) ) ;
#372 = MECHANICAL_DESIGN_GEOMETRIC_PRESENTATION_REPRESENTATION (  '', ( #325 ), #395 ) ;
#373 = FACE_BOUND ( 'NONE', #102, .T. ) ;
#374 = FILL_AREA_STYLE_COLOUR ( '', #638 ) ;
#375 = ORIENTED_EDGE ( 'NONE', *, *, #179, .F. ) ;
#376 = APPLICATION_CONTEXT ( 'automotive_design' ) ;
#377 = DIRECTION ( 'NONE',  ( -2.257851024201081500E-017, 1.000000000000000000, 3.531707261708594300E-015 ) ) ;
#378 = EDGE_CURVE ( 'NONE', #95, #103, #565, .T. ) ;
#379 = ORIENTED_EDGE ( 'NONE', *, *, #831, .T. ) ;
#380 = CARTESIAN_POINT ( 'NONE',  ( 709.7199994035465800, -172.2500000000097200, 2344.254424358941400 ) ) ;
#381 =( NAMED_UNIT ( * ) SI_UNIT ( $, .STERADIAN. ) SOLID_ANGLE_UNIT ( ) );
#382 = DIRECTION ( 'NONE',  ( 2.257851024201081500E-017, -1.000000000000000000, -3.531707261708594300E-015 ) ) ;
#383 = LINE ( 'NONE', #380, #403 ) ;
#384 = CARTESIAN_POINT ( 'NONE',  ( 644.7199994035465800, -142.2500000000095200, 2369.254424358940500 ) ) ;
#385 = DIRECTION ( 'NONE',  ( 0.0000000000000000000, -3.469446951953611000E-015, 1.000000000000000000 ) ) ;
#386 = ORIENTED_EDGE ( 'NONE', *, *, #863, .T. ) ;
#387 = LINE ( 'NONE', #726, #616 ) ;
#388 = DIRECTION ( 'NONE',  ( 0.0000000000000000000, -3.469446951953611000E-015, 1.000000000000000000 ) ) ;
#389 = ORIENTED_EDGE ( 'NONE', *, *, #504, .T. ) ;
#390 =( NAMED_UNIT ( * ) PLANE_ANGLE_UNIT ( ) SI_UNIT ( $, .RADIAN. ) );
#391 = PLANE ( 'NONE',  #187 ) ;
#392 = ORIENTED_EDGE ( 'NONE', *, *, #275, .F. ) ;
#393 = CARTESIAN_POINT ( 'NONE',  ( 708.9937736073411500, -144.7500000000095200, 2306.255361273847000 ) ) ;
#394 = ORIENTED_EDGE ( 'NONE', *, *, #406, .F. ) ;
#395 =( GEOMETRIC_REPRESENTATION_CONTEXT ( 3 ) GLOBAL_UNCERTAINTY_ASSIGNED_CONTEXT ( ( #717 ) ) GLOBAL_UNIT_ASSIGNED_CONTEXT ( ( #455, #38, #713 ) ) REPRESENTATION_CONTEXT ( 'NONE', 'WORKASPACE' ) );
#396 =( LENGTH_UNIT ( ) NAMED_UNIT ( * ) SI_UNIT ( .MILLI., .METRE. ) );
#397 = FILL_AREA_STYLE_COLOUR ( '', #176 ) ;
#398 = AXIS2_PLACEMENT_3D ( 'NONE', #574, #573, #572 ) ;
#399 =( NAMED_UNIT ( * ) SI_UNIT ( $, .STERADIAN. ) SOLID_ANGLE_UNIT ( ) );
#400 =( NAMED_UNIT ( * ) PLANE_ANGLE_UNIT ( ) SI_UNIT ( $, .RADIAN. ) );
#401 = CYLINDRICAL_SURFACE ( 'NONE', #175, 49.99999999999982200 ) ;
#402 =( LENGTH_UNIT ( ) NAMED_UNIT ( * ) SI_UNIT ( .MILLI., .METRE. ) );
#403 = VECTOR ( 'NONE', #370, 1000.000000000000000 ) ;
#404 = SURFACE_STYLE_USAGE ( .BOTH. , #405 ) ;
#405 = SURFACE_SIDE_STYLE ('',( #220 ) ) ;
#406 = EDGE_CURVE ( 'NONE', #510, #121, #562, .T. ) ;
#407 = ORIENTED_EDGE ( 'NONE', *, *, #839, .F. ) ;
#408 = DIRECTION ( 'NONE',  ( 0.0000000000000000000, -3.330669073875481500E-015, 1.000000000000000000 ) ) ;
#409 = ORIENTED_EDGE ( 'NONE', *, *, #207, .F. ) ;
#410 = FILL_AREA_STYLE ('',( #417 ) ) ;
#411 = CARTESIAN_POINT ( 'NONE',  ( 1929.719999403546600, -172.2500000000097200, 2344.254424358944100 ) ) ;
#412 = CARTESIAN_POINT ( 'NONE',  ( 0.0000000000000000000, 0.0000000000000000000, 0.0000000000000000000 ) ) ;
#413 = EDGE_CURVE ( 'NONE', #236, #77, #299, .T. ) ;
#414 = DIRECTION ( 'NONE',  ( 4.995215509932459700E-030, -1.000000000000000000, -0.0000000000000000000 ) ) ;
#415 = VECTOR ( 'NONE', #886, 1000.000000000000000 ) ;
#416 = DIRECTION ( 'NONE',  ( -4.995215509932459700E-030, 1.000000000000000000, 0.0000000000000000000 ) ) ;
#417 = FILL_AREA_STYLE_COLOUR ( '', #219 ) ;
#418 = STYLED_ITEM ( 'NONE', ( #694 ), #165 ) ;
#419 = CARTESIAN_POINT ( 'NONE',  ( 1929.719999403546600, -142.2500000000096300, 2392.254424358946400 ) ) ;
#420 = ORIENTED_EDGE ( 'NONE', *, *, #122, .T. ) ;
#421 = DIRECTION ( 'NONE',  ( 8.002917117548845100E-032, -1.000000000000000000, -3.544484127503752200E-015 ) ) ;
#422 = CARTESIAN_POINT ( 'NONE',  ( 708.9937736073411500, -169.7500000000094900, 2306.255361273847000 ) ) ;
#423 = EDGE_CURVE ( 'NONE', #563, #850, #812, .T. ) ;
#424 = CARTESIAN_POINT ( 'NONE',  ( 1929.719999403546600, -142.2500000000096300, 2346.254424358946400 ) ) ;
#425 = CYLINDRICAL_SURFACE ( 'NONE', #202, 40.00000000000003600 ) ;
#426 = PRESENTATION_STYLE_ASSIGNMENT (( #335 ) ) ;
#427 = CARTESIAN_POINT ( 'NONE',  ( 709.7199994035464700, -144.7500000000098100, 2392.254424358940900 ) ) ;
#428 = VECTOR ( 'NONE', #610, 1000.000000000000000 ) ;
#429 = DIRECTION ( 'NONE',  ( 0.0000000000000000000, -3.330669073875481500E-015, 1.000000000000000000 ) ) ;
#430 = VERTEX_POINT ( 'NONE', #847 ) ;
#431 = DIRECTION ( 'NONE',  ( 0.0000000000000000000, 1.000000000000000000, 3.491483361109382100E-015 ) ) ;
#432 = CARTESIAN_POINT ( 'NONE',  ( 1994.719999403547000, -169.7500000000097200, 2369.254424358946800 ) ) ;
#433 = VERTEX_POINT ( 'NONE', #867 ) ;
#434 = VERTEX_POINT ( 'NONE', #830 ) ;
#435 = CARTESIAN_POINT ( 'NONE',  ( 709.7199994035465800, -172.2500000000097200, 2344.254424358942700 ) ) ;
#436 = EDGE_CURVE ( 'NONE', #667, #205, #708, .T. ) ;
#437 = DIRECTION ( 'NONE',  ( 0.0000000000000000000, 3.491483361109382500E-015, -1.000000000000000000 ) ) ;
#438 = SURFACE_STYLE_FILL_AREA ( #862 ) ;
#439 = DIRECTION ( 'NONE',  ( -2.257851024201081500E-017, 1.000000000000000000, 3.531707261708594300E-015 ) ) ;
#440 = FACE_OUTER_BOUND ( 'NONE', #735, .T. ) ;
#441 = FILL_AREA_STYLE ('',( #548 ) ) ;
#442 = EDGE_LOOP ( 'NONE', ( #392, #99, #607, #326 ) ) ;
#443 = CARTESIAN_POINT ( 'NONE',  ( 709.7199994035462400, -142.2500000000096300, 2344.254424358941400 ) ) ;
#444 = ORIENTED_EDGE ( 'NONE', *, *, #561, .F. ) ;
#445 = DIRECTION ( 'NONE',  ( 0.0000000000000000000, -3.330669073875481500E-015, 1.000000000000000000 ) ) ;
#446 = EDGE_CURVE ( 'NONE', #308, #156, #765, .T. ) ;
#447 = DIRECTION ( 'NONE',  ( 0.0000000000000000000, -3.330669073875481500E-015, 1.000000000000000000 ) ) ;
#448 = DIRECTION ( 'NONE',  ( 0.0000000000000000000, -3.330669073875481500E-015, 1.000000000000000000 ) ) ;
#449 = AXIS2_PLACEMENT_3D ( 'NONE', #30, #87, #32 ) ;
#450 = SURFACE_STYLE_FILL_AREA ( #441 ) ;
#451 = AXIS2_PLACEMENT_3D ( 'NONE', #564, #558, #557 ) ;
#452 = DIRECTION ( 'NONE',  ( 0.0000000000000000000, 1.000000000000000000, 3.491483361109382100E-015 ) ) ;
#453 = VECTOR ( 'NONE', #369, 1000.000000000000000 ) ;
#454 = CARTESIAN_POINT ( 'NONE',  ( 1994.719999403547000, -144.7500000000097500, 2369.254424358946800 ) ) ;
#455 =( LENGTH_UNIT ( ) NAMED_UNIT ( * ) SI_UNIT ( .MILLI., .METRE. ) );
#456 = FACE_BOUND ( 'NONE', #480, .T. ) ;
#457 = VERTEX_POINT ( 'NONE', #826 ) ;
#458 = CARTESIAN_POINT ( 'NONE',  ( 644.7199994035465800, -144.7500000000095500, 2319.254424358940900 ) ) ;
#459 = ORIENTED_EDGE ( 'NONE', *, *, #117, .T. ) ;
#460 = CARTESIAN_POINT ( 'NONE',  ( 709.7199994035463500, -142.2500000000097500, 2394.254424358942700 ) ) ;
#461 = EDGE_CURVE ( 'NONE', #530, #457, #153, .T. ) ;
#462 = ORIENTED_EDGE ( 'NONE', *, *, #353, .F. ) ;
#463 = ORIENTED_EDGE ( 'NONE', *, *, #436, .T. ) ;
#464 = CARTESIAN_POINT ( 'NONE',  ( 709.7199994035461300, -172.2500000000098100, 2394.254424358940900 ) ) ;
#465 = CARTESIAN_POINT ( 'NONE',  ( 644.7199994035465800, -169.7500000000097200, 2369.254424358940500 ) ) ;
#466 = CYLINDRICAL_SURFACE ( 'NONE', #716, 40.00000000000003600 ) ;
#467 = CARTESIAN_POINT ( 'NONE',  ( 708.9937736073407000, -169.7500000000099500, 2432.253487444034800 ) ) ;
#468 = EDGE_LOOP ( 'NONE', ( #603, #930, #166, #342 ) ) ;
#469 = EDGE_LOOP ( 'NONE', ( #292, #965, #290, #756 ) ) ;
#470 = DIRECTION ( 'NONE',  ( 2.288672856204331400E-044, 1.143241414847329800E-073, -1.000000000000000000 ) ) ;
#471 = CARTESIAN_POINT ( 'NONE',  ( 708.9937736073407000, -169.7500000000098100, 2392.254424358940900 ) ) ;
#472 = VERTEX_POINT ( 'NONE', #804 ) ;
#473 = CARTESIAN_POINT ( 'NONE',  ( 1994.719999403547000, -169.7500000000097200, 2369.254424358946800 ) ) ;
#474 = AXIS2_PLACEMENT_3D ( 'NONE', #464, #84, #14 ) ;
#475 = CARTESIAN_POINT ( 'NONE',  ( 1959.012347068105300, -169.7500000000098300, 2404.253903850666100 ) ) ;
#476 = EDGE_CURVE ( 'NONE', #45, #230, #710, .T. ) ;
#477 = DIRECTION ( 'NONE',  ( 0.0000000000000000000, -3.330669073875481500E-015, 1.000000000000000000 ) ) ;
#478 = CARTESIAN_POINT ( 'NONE',  ( 644.7199994035465800, -142.2500000000095200, 2369.254424358940500 ) ) ;
#479 = VECTOR ( 'NONE', #715, 1000.000000000000000 ) ;
#480 = EDGE_LOOP ( 'NONE', ( #180, #656 ) ) ;
#481 = DIRECTION ( 'NONE',  ( 0.0000000000000000000, 1.000000000000000000, 3.491483361109382100E-015 ) ) ;
#482 = CYLINDRICAL_SURFACE ( 'NONE', #237, 40.00000000000003600 ) ;
#483 = EDGE_CURVE ( 'NONE', #667, #926, #738, .T. ) ;
#484 = CARTESIAN_POINT ( 'NONE',  ( 1994.719999403547000, -169.7500000000097200, 2369.254424358946800 ) ) ;
#485 = ORIENTED_EDGE ( 'NONE', *, *, #275, .T. ) ;
#486 = VERTEX_POINT ( 'NONE', #788 ) ;
#487 = DIRECTION ( 'NONE',  ( 0.0000000000000000000, 1.000000000000000000, 3.491483361109382100E-015 ) ) ;
#488 = VERTEX_POINT ( 'NONE', #781 ) ;
#489 = PRESENTATION_LAYER_ASSIGNMENT (  '', '', ( #418 ) ) ;
#490 = DIRECTION ( 'NONE',  ( 1.000000000000000000, 8.002917117548844000E-032, 2.836621269687995900E-046 ) ) ;
#491 = CARTESIAN_POINT ( 'NONE',  ( 1929.719999403546600, -144.7500000000098100, 2344.254424358946400 ) ) ;
#492 = CARTESIAN_POINT ( 'NONE',  ( 1994.719999403547000, -144.7500000000099200, 2419.254424358946800 ) ) ;
#493 = VERTEX_POINT ( 'NONE', #778 ) ;
#494 = DIRECTION ( 'NONE',  ( -1.000000000000000000, 0.0000000000000000000, -4.581729960706493200E-015 ) ) ;
#495 = EDGE_LOOP ( 'NONE', ( #663, #409, #375, #10 ) ) ;
#496 = CARTESIAN_POINT ( 'NONE',  ( 680.4276517389880600, -169.7500000000096100, 2334.254944867222100 ) ) ;
#497 = CARTESIAN_POINT ( 'NONE',  ( 709.7199994035465800, -144.7500000000096900, 2346.254424358940900 ) ) ;
#498 = EDGE_CURVE ( 'NONE', #77, #434, #15, .T. ) ;
#499 = ORIENTED_EDGE ( 'NONE', *, *, #353, .T. ) ;
#500 = DIRECTION ( 'NONE',  ( 0.0000000000000000000, -3.469446951953611000E-015, 1.000000000000000000 ) ) ;
#501 = DIRECTION ( 'NONE',  ( 0.0000000000000000000, -3.330669073875481500E-015, 1.000000000000000000 ) ) ;
#502 = DIRECTION ( 'NONE',  ( -2.257851024201081500E-017, 1.000000000000000000, 3.531707261708594300E-015 ) ) ;
#503 = CARTESIAN_POINT ( 'NONE',  ( 644.7199994035465800, -144.7500000000096900, 2369.254424358940500 ) ) ;
#504 = EDGE_CURVE ( 'NONE', #434, #688, #94, .T. ) ;
#505 = CARTESIAN_POINT ( 'NONE',  ( 1930.719999403546400, -169.7500000000098100, 2392.254424358946400 ) ) ;
#506 = EDGE_CURVE ( 'NONE', #430, #36, #321, .T. ) ;
#507 = CARTESIAN_POINT ( 'NONE',  ( 1994.719999403547000, -169.7500000000095500, 2319.254424358946800 ) ) ;
#508 = FACE_OUTER_BOUND ( 'NONE', #110, .T. ) ;
#509 = DIRECTION ( 'NONE',  ( 0.0000000000000000000, -3.330669073875481500E-015, 1.000000000000000000 ) ) ;
#510 = VERTEX_POINT ( 'NONE', #774 ) ;
#511 = VECTOR ( 'NONE', #881, 1000.000000000000000 ) ;
#512 = MECHANICAL_DESIGN_GEOMETRIC_PRESENTATION_REPRESENTATION (  '', ( #418 ), #535 ) ;
#513 = DIRECTION ( 'NONE',  ( 0.0000000000000000000, -3.469446951953611000E-015, 1.000000000000000000 ) ) ;
#514 = VERTEX_POINT ( 'NONE', #758 ) ;
#515 = AXIS2_PLACEMENT_3D ( 'NONE', #533, #531, #529 ) ;
#516 = CARTESIAN_POINT ( 'NONE',  ( 1930.446225199752000, -169.7500000000099500, 2432.253487444040700 ) ) ;
#517 = ORIENTED_EDGE ( 'NONE', *, *, #378, .F. ) ;
#518 = DIRECTION ( 'NONE',  ( -2.257851024201081500E-017, 1.000000000000000000, 3.531707261708594300E-015 ) ) ;
#519 = ORIENTED_EDGE ( 'NONE', *, *, #498, .F. ) ;
#520 = ORIENTED_EDGE ( 'NONE', *, *, #894, .T. ) ;
#521 = CARTESIAN_POINT ( 'NONE',  ( 644.7199994035465800, -144.7500000000096900, 2369.254424358940500 ) ) ;
#522 = DIRECTION ( 'NONE',  ( 0.0000000000000000000, -3.330669073875481500E-015, 1.000000000000000000 ) ) ;
#523 = CARTESIAN_POINT ( 'NONE',  ( 708.7199994035273700, -144.7500000000096600, 2346.254424358940900 ) ) ;
#524 =( NAMED_UNIT ( * ) SI_UNIT ( $, .STERADIAN. ) SOLID_ANGLE_UNIT ( ) );
#525 = DIRECTION ( 'NONE',  ( 2.288672856204331400E-044, 1.143241414847329800E-073, -1.000000000000000000 ) ) ;
#526 = ORIENTED_EDGE ( 'NONE', *, *, #216, .F. ) ;
#527 =( NAMED_UNIT ( * ) PLANE_ANGLE_UNIT ( ) SI_UNIT ( $, .RADIAN. ) );
#528 = ORIENTED_EDGE ( 'NONE', *, *, #16, .T. ) ;
#529 = DIRECTION ( 'NONE',  ( 0.0000000000000000000, 4.163336342344333100E-015, -1.000000000000000000 ) ) ;
#530 = VERTEX_POINT ( 'NONE', #739 ) ;
#531 = DIRECTION ( 'NONE',  ( 8.002917117548845100E-032, -1.000000000000000000, -3.544484127503752200E-015 ) ) ;
#532 =( LENGTH_UNIT ( ) NAMED_UNIT ( * ) SI_UNIT ( .MILLI., .METRE. ) );
#533 = CARTESIAN_POINT ( 'NONE',  ( 644.7199994035465800, -144.7500000000097200, 2369.254424358940500 ) ) ;
#534 = SURFACE_STYLE_USAGE ( .BOTH. , #544 ) ;
#535 =( GEOMETRIC_REPRESENTATION_CONTEXT ( 3 ) GLOBAL_UNCERTAINTY_ASSIGNED_CONTEXT ( ( #204 ) ) GLOBAL_UNIT_ASSIGNED_CONTEXT ( ( #977, #953, #938 ) ) REPRESENTATION_CONTEXT ( 'NONE', 'WORKASPACE' ) );
#536 = AXIS2_PLACEMENT_3D ( 'NONE', #647, #795, #793 ) ;
#537 = CARTESIAN_POINT ( 'NONE',  ( 1994.719999403547000, -144.7500000000098100, 2389.254424358946800 ) ) ;
#538 = VECTOR ( 'NONE', #784, 1000.000000000000000 ) ;
#539 = EDGE_LOOP ( 'NONE', ( #39, #499, #927, #517 ) ) ;
#540 = EDGE_LOOP ( 'NONE', ( #899, #253, #714, #11, #942, #80, #71, #315 ) ) ;
#541 = VECTOR ( 'NONE', #865, 1000.000000000000000 ) ;
#542 = DIRECTION ( 'NONE',  ( -0.0000000000000000000, -1.000000000000000000, -3.491483361109382100E-015 ) ) ;
#543 = ORIENTED_EDGE ( 'NONE', *, *, #16, .F. ) ;
#544 = SURFACE_SIDE_STYLE ('',( #450 ) ) ;
#545 = ORIENTED_EDGE ( 'NONE', *, *, #201, .F. ) ;
#546 = DIRECTION ( 'NONE',  ( 8.002917117548845100E-032, -1.000000000000000000, -3.544484127503752200E-015 ) ) ;
#547 = ORIENTED_EDGE ( 'NONE', *, *, #158, .F. ) ;
#548 = FILL_AREA_STYLE_COLOUR ( '', #105 ) ;
#549 = CARTESIAN_POINT ( 'NONE',  ( 709.7199994035465800, -169.7500000000096300, 2344.254424358941400 ) ) ;
#550 = DIRECTION ( 'NONE',  ( 2.288672856204331400E-044, 1.143241414847329800E-073, -1.000000000000000000 ) ) ;
#551 = CARTESIAN_POINT ( 'NONE',  ( 709.7199994035465800, -142.2500000000098100, 2394.254424358946400 ) ) ;
#552 = ORIENTED_EDGE ( 'NONE', *, *, #310, .F. ) ;
#553 = CARTESIAN_POINT ( 'NONE',  ( 1929.719999403546600, -172.2500000000098100, 2394.254424358945000 ) ) ;
#554 = DIRECTION ( 'NONE',  ( 8.002917117548845100E-032, -1.000000000000000000, -3.544484127503752200E-015 ) ) ;
#555 = EDGE_LOOP ( 'NONE', ( #742, #593, #270, #789 ) ) ;
#556 = DIRECTION ( 'NONE',  ( -2.288672856204331400E-044, -1.143241414847329800E-073, 1.000000000000000000 ) ) ;
#557 = DIRECTION ( 'NONE',  ( -5.551115123125778000E-015, -3.469446951953611000E-015, 1.000000000000000000 ) ) ;
#558 = DIRECTION ( 'NONE',  ( -0.0000000000000000000, -1.000000000000000000, -3.491483361109382100E-015 ) ) ;
#559 = FACE_OUTER_BOUND ( 'NONE', #66, .T. ) ;
#560 = CARTESIAN_POINT ( 'NONE',  ( 1994.719999403547000, -142.2500000000094400, 2349.254424358946800 ) ) ;
#561 = EDGE_CURVE ( 'NONE', #488, #103, #268, .T. ) ;
#562 = LINE ( 'NONE', #879, #541 ) ;
#563 = VERTEX_POINT ( 'NONE', #767 ) ;
#564 = CARTESIAN_POINT ( 'NONE',  ( 1930.446225199752500, -169.7500000000094900, 2306.255361273852500 ) ) ;
#565 = LINE ( 'NONE', #878, #511 ) ;
#566 = DIRECTION ( 'NONE',  ( -1.000000000000000000, -0.0000000000000000000, -0.0000000000000000000 ) ) ;
#567 = ORIENTED_EDGE ( 'NONE', *, *, #798, .T. ) ;
#568 = ORIENTED_EDGE ( 'NONE', *, *, #167, .F. ) ;
#569 = CARTESIAN_POINT ( 'NONE',  ( 644.7199994035465800, -169.7500000000097200, 2369.254424358940500 ) ) ;
#570 = AXIS2_PLACEMENT_3D ( 'NONE', #903, #892, #864 ) ;
#571 = CARTESIAN_POINT ( 'NONE',  ( 1929.719999403546600, -172.2500000000098100, 2344.254424358946400 ) ) ;
#572 = DIRECTION ( 'NONE',  ( 0.0000000000000000000, -3.330669073875481500E-015, 1.000000000000000000 ) ) ;
#573 = DIRECTION ( 'NONE',  ( -2.257851024201081500E-017, 1.000000000000000000, 3.531707261708594300E-015 ) ) ;
#574 = CARTESIAN_POINT ( 'NONE',  ( 644.7199994035465800, -169.7500000000097200, 2369.254424358940500 ) ) ;
#575 = DIRECTION ( 'NONE',  ( 1.334768908176178200E-029, -1.000000000000000000, -2.913242202450446500E-015 ) ) ;
#576 = CARTESIAN_POINT ( 'NONE',  ( 1929.719999403546600, -142.2500000000098100, 2394.254424358946800 ) ) ;
#577 = EDGE_LOOP ( 'NONE', ( #649, #463, #770, #168 ) ) ;
#578 = DIRECTION ( 'NONE',  ( -2.257851024201081500E-017, 1.000000000000000000, 3.531707261708594300E-015 ) ) ;
#579 = COLOUR_RGB ( '',0.2901960784313725200, 0.3294117647058823500, 0.3490196078431372400 ) ;
#580 = DIRECTION ( 'NONE',  ( 0.0000000000000000000, 4.163336342344333100E-015, -1.000000000000000000 ) ) ;
#581 = VECTOR ( 'NONE', #566, 1000.000000000000000 ) ;
#582 = DIRECTION ( 'NONE',  ( 8.002917117548845100E-032, -1.000000000000000000, -3.544484127503752200E-015 ) ) ;
#583 = CARTESIAN_POINT ( 'NONE',  ( 644.7199994035465800, -169.7500000000097200, 2369.254424358940500 ) ) ;
#584 = ORIENTED_EDGE ( 'NONE', *, *, #201, .T. ) ;
#585 = ORIENTED_EDGE ( 'NONE', *, *, #506, .T. ) ;
#586 = AXIS2_PLACEMENT_3D ( 'NONE', #521, #518, #509 ) ;
#587 = VECTOR ( 'NONE', #885, 1000.000000000000000 ) ;
#588 = DIRECTION ( 'NONE',  ( 2.288672856204331400E-044, 1.143241414847329800E-073, -1.000000000000000000 ) ) ;
#589 = AXIS2_PLACEMENT_3D ( 'NONE', #855, #20, #933 ) ;
#590 = CYLINDRICAL_SURFACE ( 'NONE', #55, 49.99999999999982200 ) ;
#591 = CIRCLE ( 'NONE', #21, 49.99999999999982200 ) ;
#592 = DIRECTION ( 'NONE',  ( -2.288672856204331400E-044, -1.143241414847329800E-073, 1.000000000000000000 ) ) ;
#593 = ORIENTED_EDGE ( 'NONE', *, *, #689, .T. ) ;
#594 = CARTESIAN_POINT ( 'NONE',  ( 1930.719999403546400, -144.7500000000098100, 2392.254424358946400 ) ) ;
#595 = DIRECTION ( 'NONE',  ( 0.0000000000000000000, 4.163336342344333100E-015, -1.000000000000000000 ) ) ;
#596 = DIRECTION ( 'NONE',  ( 8.002917117548845100E-032, -1.000000000000000000, -3.544484127503752200E-015 ) ) ;
#597 = PRODUCT_DEFINITION_CONTEXT ( 'detailed design', #333, 'design' ) ;
#598 = CARTESIAN_POINT ( 'NONE',  ( 1994.719999403547000, -169.7500000000097200, 2369.254424358946800 ) ) ;
#599 = VERTEX_POINT ( 'NONE', #732 ) ;
#600 = CARTESIAN_POINT ( 'NONE',  ( 709.7199994035465800, -172.2500000000098100, 2344.254424358941400 ) ) ;
#601 = EDGE_LOOP ( 'NONE', ( #357, #567, #222, #444 ) ) ;
#602 = UNCERTAINTY_MEASURE_WITH_UNIT (LENGTH_MEASURE( 1.000000000000000100E-005 ), #323, 'distance_accuracy_value', 'NONE');
#603 = ORIENTED_EDGE ( 'NONE', *, *, #136, .F. ) ;
#604 = CARTESIAN_POINT ( 'NONE',  ( 708.9937736073407000, -144.7500000000099200, 2432.253487444034800 ) ) ;
#605 = ORIENTED_EDGE ( 'NONE', *, *, #506, .F. ) ;
#606 = CARTESIAN_POINT ( 'NONE',  ( 708.9937736073407000, -144.7500000000098100, 2392.254424358940900 ) ) ;
#607 = ORIENTED_EDGE ( 'NONE', *, *, #652, .T. ) ;
#608 = EDGE_CURVE ( 'NONE', #205, #488, #762, .T. ) ;
#609 = EDGE_CURVE ( 'NONE', #599, #45, #936, .T. ) ;
#610 = DIRECTION ( 'NONE',  ( -1.000000000000000000, -5.585337776891771600E-044, 1.599703392290296900E-029 ) ) ;
#611 = CARTESIAN_POINT ( 'NONE',  ( 1929.719999403546600, -169.7500000000096300, 2344.254424358946400 ) ) ;
#612 = PRESENTATION_STYLE_ASSIGNMENT (( #534 ) ) ;
#613 = DIRECTION ( 'NONE',  ( 0.0000000000000000000, 1.000000000000000000, 3.491483361109382100E-015 ) ) ;
#614 = FACE_OUTER_BOUND ( 'NONE', #274, .T. ) ;
#615 = CARTESIAN_POINT ( 'NONE',  ( 644.7199994035465800, -169.7500000000098900, 2419.254424358940500 ) ) ;
#616 = VECTOR ( 'NONE', #701, 1000.000000000000000 ) ;
#617 = EDGE_CURVE ( 'NONE', #46, #472, #958, .T. ) ;
#618 = ORIENTED_EDGE ( 'NONE', *, *, #674, .T. ) ;
#619 = DIRECTION ( 'NONE',  ( 0.0000000000000000000, 1.000000000000000000, 3.491483361109382100E-015 ) ) ;
#620 = CARTESIAN_POINT ( 'NONE',  ( 1994.719999403547000, -169.7500000000098900, 2419.254424358946800 ) ) ;
#621 = CARTESIAN_POINT ( 'NONE',  ( 644.7199994035465800, -169.7500000000097200, 2369.254424358940500 ) ) ;
#622 = ORIENTED_EDGE ( 'NONE', *, *, #894, .F. ) ;
#623 = ORIENTED_EDGE ( 'NONE', *, *, #179, .T. ) ;
#624 = CARTESIAN_POINT ( 'NONE',  ( 1994.719999403547000, -169.7500000000095500, 2319.254424358946800 ) ) ;
#625 = DIRECTION ( 'NONE',  ( -8.326672684688666200E-015, -3.469446951953611000E-015, 1.000000000000000000 ) ) ;
#626 = AXIS2_PLACEMENT_3D ( 'NONE', #950, #916, #888 ) ;
#627 = CARTESIAN_POINT ( 'NONE',  ( 644.7199994035465800, -142.2500000000095800, 2389.254424358940500 ) ) ;
#628 = DIRECTION ( 'NONE',  ( 2.257851024201081500E-017, -1.000000000000000000, -3.531707261708594300E-015 ) ) ;
#629 = CARTESIAN_POINT ( 'NONE',  ( 709.7199994035465800, -144.7500000000098100, 2344.254424358941400 ) ) ;
#630 = CARTESIAN_POINT ( 'NONE',  ( 680.4276517389880600, -144.7500000000096100, 2334.254944867222100 ) ) ;
#631 = ORIENTED_EDGE ( 'NONE', *, *, #364, .F. ) ;
#632 = ORIENTED_EDGE ( 'NONE', *, *, #152, .F. ) ;
#633 = EDGE_CURVE ( 'NONE', #7, #28, #931, .T. ) ;
#634 = DIRECTION ( 'NONE',  ( 1.000000000000000000, -0.0000000000000000000, 4.581729960706493200E-015 ) ) ;
#635 = DIRECTION ( 'NONE',  ( 8.002917117548845100E-032, -1.000000000000000000, -3.544484127503752200E-015 ) ) ;
#636 = DIRECTION ( 'NONE',  ( 8.002917117548845100E-032, -1.000000000000000000, -3.544484127503752200E-015 ) ) ;
#637 = CARTESIAN_POINT ( 'NONE',  ( 1994.719999403547000, -144.7500000000096100, 2319.254424358946800 ) ) ;
#638 = COLOUR_RGB ( '',0.2901960784313725200, 0.3294117647058823500, 0.3490196078431372400 ) ;
#639 = CARTESIAN_POINT ( 'NONE',  ( 1930.719999403546600, -144.7500000000096300, 2346.254424358946400 ) ) ;
#640 = AXIS2_PLACEMENT_3D ( 'NONE', #503, #502, #501 ) ;
#641 = DIRECTION ( 'NONE',  ( 0.0000000000000000000, -3.469446951953611000E-015, 1.000000000000000000 ) ) ;
#642 = FACE_OUTER_BOUND ( 'NONE', #540, .T. ) ;
#643 = CIRCLE ( 'NONE', #82, 40.00000000000003600 ) ;
#644 = STYLED_ITEM ( 'NONE', ( #173 ), #877 ) ;
#645 = DIRECTION ( 'NONE',  ( -0.0000000000000000000, -1.000000000000000000, -3.491483361109382100E-015 ) ) ;
#646 = ORIENTED_EDGE ( 'NONE', *, *, #689, .F. ) ;
#647 = CARTESIAN_POINT ( 'NONE',  ( 708.9937736073411500, -169.7500000000094900, 2306.255361273847000 ) ) ;
#648 = DIRECTION ( 'NONE',  ( 1.000000000000000000, 8.002917117548844000E-032, 2.836621269687995900E-046 ) ) ;
#649 = ORIENTED_EDGE ( 'NONE', *, *, #483, .F. ) ;
#650 = CARTESIAN_POINT ( 'NONE',  ( 1930.446225199752000, -144.7500000000099500, 2432.253487444040700 ) ) ;
#651 = DIRECTION ( 'NONE',  ( -1.000000000000000000, -5.853249335338923700E-044, 1.657342724523332500E-029 ) ) ;
#652 = EDGE_CURVE ( 'NONE', #882, #599, #880, .T. ) ;
#653 = VECTOR ( 'NONE', #731, 1000.000000000000000 ) ;
#654 = DIRECTION ( 'NONE',  ( 0.0000000000000000000, 4.163336342344333100E-015, -1.000000000000000000 ) ) ;
#655 = DIRECTION ( 'NONE',  ( 8.002917117548845100E-032, -1.000000000000000000, -3.544484127503752200E-015 ) ) ;
#656 = ORIENTED_EDGE ( 'NONE', *, *, #633, .F. ) ;
#657 = CARTESIAN_POINT ( 'NONE',  ( 1994.719999403547000, -144.7500000000097200, 2369.254424358946800 ) ) ;
#658 = ORIENTED_EDGE ( 'NONE', *, *, #461, .F. ) ;
#659 = ORIENTED_EDGE ( 'NONE', *, *, #760, .T. ) ;
#660 = AXIS2_PLACEMENT_3D ( 'NONE', #792, #922, #851 ) ;
#661 = CARTESIAN_POINT ( 'NONE',  ( 1994.719999403547000, -142.2500000000095800, 2389.254424358946800 ) ) ;
#662 = ORIENTED_EDGE ( 'NONE', *, *, #245, .F. ) ;
#663 = ORIENTED_EDGE ( 'NONE', *, *, #652, .F. ) ;
#664 = CARTESIAN_POINT ( 'NONE',  ( 1930.719999403566100, -144.7500000000096300, 2346.254424358946400 ) ) ;
#665 = CIRCLE ( 'NONE', #177, 20.00000000000001800 ) ;
#666 = DIRECTION ( 'NONE',  ( 0.0000000000000000000, 4.163336342344333100E-015, -1.000000000000000000 ) ) ;
#667 = VERTEX_POINT ( 'NONE', #699 ) ;
#668 = EDGE_CURVE ( 'NONE', #850, #563, #665, .T. ) ;
#669 = EDGE_LOOP ( 'NONE', ( #963, #145, #838, #261 ) ) ;
#670 = DIRECTION ( 'NONE',  ( 8.002917117548845100E-032, -1.000000000000000000, -3.544484127503752200E-015 ) ) ;
#671 = ORIENTED_EDGE ( 'NONE', *, *, #319, .F. ) ;
#672 = DIRECTION ( 'NONE',  ( 0.0000000000000000000, -3.330669073875481500E-015, 1.000000000000000000 ) ) ;
#673 = CARTESIAN_POINT ( 'NONE',  ( 1994.719999403547000, -169.7500000000097200, 2369.254424358946800 ) ) ;
#674 = EDGE_CURVE ( 'NONE', #308, #510, #34, .T. ) ;
#675 = ORIENTED_EDGE ( 'NONE', *, *, #117, .F. ) ;
#676 = DIRECTION ( 'NONE',  ( 4.995215509932459700E-030, -1.000000000000000000, -0.0000000000000000000 ) ) ;
#677 = EDGE_LOOP ( 'NONE', ( #68, #751 ) ) ;
#678 = DIRECTION ( 'NONE',  ( 0.0000000000000000000, 4.163336342344333100E-015, -1.000000000000000000 ) ) ;
#679 = LINE ( 'NONE', #594, #278 ) ;
#680 = AXIS2_PLACEMENT_3D ( 'NONE', #690, #779, #811 ) ;
#681 = CIRCLE ( 'NONE', #754, 49.99999999999982200 ) ;
#682 = DIRECTION ( 'NONE',  ( 8.002917117548845100E-032, -1.000000000000000000, -3.544484127503752200E-015 ) ) ;
#683 = LINE ( 'NONE', #606, #719 ) ;
#684 = DIRECTION ( 'NONE',  ( 0.0000000000000000000, 3.491483361109382500E-015, -1.000000000000000000 ) ) ;
#685 = ORIENTED_EDGE ( 'NONE', *, *, #225, .T. ) ;
#686 = ORIENTED_EDGE ( 'NONE', *, *, #263, .F. ) ;
#687 = CARTESIAN_POINT ( 'NONE',  ( 644.7199994035465800, -169.7500000000097200, 2369.254424358940500 ) ) ;
#688 = VERTEX_POINT ( 'NONE', #664 ) ;
#689 = EDGE_CURVE ( 'NONE', #850, #7, #975, .T. ) ;
#690 = CARTESIAN_POINT ( 'NONE',  ( 708.7199994035465800, -169.7500000000096300, 2346.254424358940900 ) ) ;
#691 = CARTESIAN_POINT ( 'NONE',  ( 1929.719999403546600, -169.7500000000098100, 2392.254424358946400 ) ) ;
#692 = DIRECTION ( 'NONE',  ( 0.0000000000000000000, -1.000000000000000000, -3.491483361109382500E-015 ) ) ;
#693 = FACE_OUTER_BOUND ( 'NONE', #229, .T. ) ;
#694 = PRESENTATION_STYLE_ASSIGNMENT (( #755 ) ) ;
#695 = CARTESIAN_POINT ( 'NONE',  ( 680.4276517389876100, -144.7500000000098100, 2404.253903850659800 ) ) ;
#696 = ORIENTED_EDGE ( 'NONE', *, *, #617, .T. ) ;
#697 = DIRECTION ( 'NONE',  ( -2.257851024201081500E-017, 1.000000000000000000, 3.531707261708594300E-015 ) ) ;
#698 = AXIS2_PLACEMENT_3D ( 'NONE', #432, #431, #429 ) ;
#699 = CARTESIAN_POINT ( 'NONE',  ( 644.7199994035465800, -169.7500000000095500, 2319.254424358940900 ) ) ;
#700 = CLOSED_SHELL ( 'NONE', ( #134, #200, #127, #183, #159, #165, #194, #146, #190, #154, #178, #163, #140, #184, #289, #283, #151, #137, #288, #291, #132, #297, #228, #259, #296, #142, #238, #161 ) ) ;
#701 = DIRECTION ( 'NONE',  ( -0.0000000000000000000, 1.000000000000000000, 3.491483361109360800E-015 ) ) ;
#702 = DIRECTION ( 'NONE',  ( 0.0000000000000000000, -3.330669073875481500E-015, 1.000000000000000000 ) ) ;
#703 = AXIS2_PLACEMENT_3D ( 'NONE', #569, #697, #672 ) ;
#704 = AXIS2_PLACEMENT_3D ( 'NONE', #747, #746, #743 ) ;
#705 = DIRECTION ( 'NONE',  ( -1.000000000000000000, -8.002917117548844000E-032, -2.836621269687995900E-046 ) ) ;
#706 = ORIENTED_EDGE ( 'NONE', *, *, #760, .F. ) ;
#707 = COLOUR_RGB ( '',0.2901960784313725200, 0.3294117647058823500, 0.3490196078431372400 ) ;
#708 = CIRCLE ( 'NONE', #815, 49.99999999999982200 ) ;
#709 = CARTESIAN_POINT ( 'NONE',  ( 680.4276517389876100, -169.7500000000098300, 2404.253903850659800 ) ) ;
#710 = CIRCLE ( 'NONE', #536, 40.00000000000003600 ) ;
#711 = CARTESIAN_POINT ( 'NONE',  ( 708.9937736073407000, -169.7500000000096300, 2346.254424358940900 ) ) ;
#712 = ORIENTED_EDGE ( 'NONE', *, *, #446, .T. ) ;
#713 =( NAMED_UNIT ( * ) SI_UNIT ( $, .STERADIAN. ) SOLID_ANGLE_UNIT ( ) );
#714 = ORIENTED_EDGE ( 'NONE', *, *, #839, .T. ) ;
#715 = DIRECTION ( 'NONE',  ( -2.257851024201081500E-017, 1.000000000000000000, 3.531707261708594300E-015 ) ) ;
#716 = AXIS2_PLACEMENT_3D ( 'NONE', #422, #578, #500 ) ;
#717 = UNCERTAINTY_MEASURE_WITH_UNIT (LENGTH_MEASURE( 1.000000000000000100E-005 ), #455, 'distance_accuracy_value', 'NONE');
#718 = CARTESIAN_POINT ( 'NONE',  ( 644.7199994035465800, -169.7500000000098900, 2419.254424358940500 ) ) ;
#719 = VECTOR ( 'NONE', #648, 1000.000000000000000 ) ;
#720 = CARTESIAN_POINT ( 'NONE',  ( 1959.012347068105300, -169.7500000000096100, 2334.254944867227600 ) ) ;
#721 = VERTEX_POINT ( 'NONE', #630 ) ;
#722 = EDGE_LOOP ( 'NONE', ( #324, #6, #54, #129 ) ) ;
#723 = DIRECTION ( 'NONE',  ( 0.0000000000000000000, -3.330669073875481500E-015, 1.000000000000000000 ) ) ;
#724 = EDGE_CURVE ( 'NONE', #236, #744, #265, .T. ) ;
#725 = DIRECTION ( 'NONE',  ( -4.995215509932459700E-030, 1.000000000000000000, 0.0000000000000000000 ) ) ;
#726 = CARTESIAN_POINT ( 'NONE',  ( 1930.719999403557500, -169.7500000000096300, 2346.254424358946400 ) ) ;
#727 = ORIENTED_EDGE ( 'NONE', *, *, #674, .F. ) ;
#728 = EDGE_CURVE ( 'NONE', #171, #875, #345, .T. ) ;
#729 = DIRECTION ( 'NONE',  ( -2.257851024201081500E-017, 1.000000000000000000, 3.531707261708594300E-015 ) ) ;
#730 = CARTESIAN_POINT ( 'NONE',  ( 644.7199994035465800, -144.7500000000096900, 2369.254424358940500 ) ) ;
#731 = DIRECTION ( 'NONE',  ( -0.0000000000000000000, -3.491483361109382500E-015, 1.000000000000000000 ) ) ;
#732 = CARTESIAN_POINT ( 'NONE',  ( 709.7199994035465800, -169.7500000000096300, 2346.254424358940900 ) ) ;
#733 = CARTESIAN_POINT ( 'NONE',  ( 708.7199994035465800, -144.7500000000096900, 2346.254424358940900 ) ) ;
#734 = EDGE_CURVE ( 'NONE', #28, #7, #306, .T. ) ;
#735 = EDGE_LOOP ( 'NONE', ( #462, #520, #623, #81 ) ) ;
#736 = CARTESIAN_POINT ( 'NONE',  ( 709.7199994035465800, -142.2500000000096300, 2346.254424358940900 ) ) ;
#737 = LINE ( 'NONE', #629, #170 ) ;
#738 = LINE ( 'NONE', #800, #917 ) ;
#739 = CARTESIAN_POINT ( 'NONE',  ( 1930.719999403566100, -169.7500000000096300, 2346.254424358946400 ) ) ;
#740 = ORIENTED_EDGE ( 'NONE', *, *, #734, .T. ) ;
#741 = AXIS2_PLACEMENT_3D ( 'NONE', #753, #692, #684 ) ;
#742 = ORIENTED_EDGE ( 'NONE', *, *, #668, .F. ) ;
#743 = DIRECTION ( 'NONE',  ( 0.0000000000000000000, 4.163336342344333100E-015, -1.000000000000000000 ) ) ;
#744 = VERTEX_POINT ( 'NONE', #637 ) ;
#745 = ORIENTED_EDGE ( 'NONE', *, *, #883, .T. ) ;
#746 = DIRECTION ( 'NONE',  ( 8.002917117548845100E-032, -1.000000000000000000, -3.544484127503752200E-015 ) ) ;
#747 = CARTESIAN_POINT ( 'NONE',  ( 644.7199994035465800, -144.7500000000097200, 2369.254424358940500 ) ) ;
#748 = CYLINDRICAL_SURFACE ( 'NONE', #703, 49.99999999999982200 ) ;
#749 = VECTOR ( 'NONE', #273, 1000.000000000000000 ) ;
#750 = DIRECTION ( 'NONE',  ( -5.551115123125778000E-015, -3.469446951953611000E-015, 1.000000000000000000 ) ) ;
#751 = ORIENTED_EDGE ( 'NONE', *, *, #668, .T. ) ;
#752 = DIRECTION ( 'NONE',  ( -0.0000000000000000000, -1.000000000000000000, -3.491483361109382100E-015 ) ) ;
#753 = CARTESIAN_POINT ( 'NONE',  ( 709.7199994035465800, -142.2500000000096300, 2344.254424358941400 ) ) ;
#754 = AXIS2_PLACEMENT_3D ( 'NONE', #465, #439, #408 ) ;
#755 = SURFACE_STYLE_USAGE ( .BOTH. , #976 ) ;
#756 = ORIENTED_EDGE ( 'NONE', *, *, #807, .T. ) ;
#757 = CARTESIAN_POINT ( 'NONE',  ( 1930.446225199752500, -144.7500000000095500, 2306.255361273852500 ) ) ;
#758 = CARTESIAN_POINT ( 'NONE',  ( 708.7199994035271400, -169.7500000000098100, 2392.254424358940900 ) ) ;
#759 = PLANE ( 'NONE',  #952 ) ;
#760 = EDGE_CURVE ( 'NONE', #457, #59, #329, .T. ) ;
#761 = CARTESIAN_POINT ( 'NONE',  ( 709.7199994035465800, -142.2500000000096300, 2344.254424358941400 ) ) ;
#762 = LINE ( 'NONE', #718, #479 ) ;
#763 = AXIS2_PLACEMENT_3D ( 'NONE', #836, #835, #833 ) ;
#764 = ORIENTED_EDGE ( 'NONE', *, *, #876, .F. ) ;
#765 = LINE ( 'NONE', #852, #126 ) ;
#766 = PRODUCT ( 'IRB660_180-315_LINK_H_CAD_rev02', 'IRB660_180-315_LINK_H_CAD_rev02', '', ( #337 ) ) ;
#767 = CARTESIAN_POINT ( 'NONE',  ( 1994.719999403547000, -144.7500000000096300, 2349.254424358946800 ) ) ;
#768 = ORIENTED_EDGE ( 'NONE', *, *, #724, .T. ) ;
#769 = ORIENTED_EDGE ( 'NONE', *, *, #423, .F. ) ;
#770 = ORIENTED_EDGE ( 'NONE', *, *, #608, .T. ) ;
#771 = AXIS2_PLACEMENT_3D ( 'NONE', #516, #542, #513 ) ;
#772 = DIRECTION ( 'NONE',  ( 0.0000000000000000000, 1.000000000000000000, 3.491483361109382100E-015 ) ) ;
#773 = FACE_BOUND ( 'NONE', #164, .T. ) ;
#774 = CARTESIAN_POINT ( 'NONE',  ( 1959.012347068105300, -144.7500000000098600, 2404.253903850666100 ) ) ;
#775 = ORIENTED_EDGE ( 'NONE', *, *, #88, .F. ) ;
#776 = CARTESIAN_POINT ( 'NONE',  ( 644.7199994035465800, -169.7500000000098100, 2389.254424358940500 ) ) ;
#777 = EDGE_CURVE ( 'NONE', #300, #247, #365, .T. ) ;
#778 = CARTESIAN_POINT ( 'NONE',  ( 1929.719999403546600, -144.7500000000098100, 2392.254424358946400 ) ) ;
#779 = DIRECTION ( 'NONE',  ( 1.657342724523332500E-029, -3.531707261708572600E-015, 1.000000000000000000 ) ) ;
#780 = CARTESIAN_POINT ( 'NONE',  ( 1929.719999403546600, -142.2500000000096300, 2344.254424358941400 ) ) ;
#781 = CARTESIAN_POINT ( 'NONE',  ( 644.7199994035465800, -144.7500000000098600, 2419.254424358940500 ) ) ;
#782 = VECTOR ( 'NONE', #636, 1000.000000000000000 ) ;
#783 = FACE_OUTER_BOUND ( 'NONE', #86, .T. ) ;
#784 = DIRECTION ( 'NONE',  ( 8.002917117548845100E-032, -1.000000000000000000, -3.544484127503752200E-015 ) ) ;
#785 = FACE_OUTER_BOUND ( 'NONE', #577, .T. ) ;
#786 = EDGE_CURVE ( 'NONE', #472, #46, #318, .T. ) ;
#787 = LINE ( 'NONE', #40, #749 ) ;
#788 = CARTESIAN_POINT ( 'NONE',  ( 1929.719999403546400, -144.7500000000096900, 2346.254424358946400 ) ) ;
#789 = ORIENTED_EDGE ( 'NONE', *, *, #122, .F. ) ;
#790 = CARTESIAN_POINT ( 'NONE',  ( 1994.719999403547000, -169.7500000000096300, 2349.254424358946800 ) ) ;
#791 = ORIENTED_EDGE ( 'NONE', *, *, #798, .F. ) ;
#792 = CARTESIAN_POINT ( 'NONE',  ( 1994.719999403547000, -169.7500000000097200, 2369.254424358946800 ) ) ;
#793 = DIRECTION ( 'NONE',  ( 0.0000000000000000000, -3.469446951953611000E-015, 1.000000000000000000 ) ) ;
#794 = AXIS2_PLACEMENT_3D ( 'NONE', #393, #382, #388 ) ;
#795 = DIRECTION ( 'NONE',  ( 2.257851024201081500E-017, -1.000000000000000000, -3.531707261708594300E-015 ) ) ;
#796 = FACE_OUTER_BOUND ( 'NONE', #96, .T. ) ;
#797 = LINE ( 'NONE', #901, #810 ) ;
#798 = EDGE_CURVE ( 'NONE', #205, #95, #311, .T. ) ;
#799 = EDGE_CURVE ( 'NONE', #77, #530, #334, .T. ) ;
#800 = CARTESIAN_POINT ( 'NONE',  ( 644.7199994035465800, -169.7500000000095500, 2319.254424358940900 ) ) ;
#801 = EDGE_LOOP ( 'NONE', ( #658, #303, #83, #951, #764, #107, #386, #706 ) ) ;
#802 = DIRECTION ( 'NONE',  ( -2.257851024201081500E-017, 1.000000000000000000, 3.531707261708594300E-015 ) ) ;
#803 = CARTESIAN_POINT ( 'NONE',  ( 708.7199994035273700, -169.7500000000096300, 2346.254424358940900 ) ) ;
#804 = CARTESIAN_POINT ( 'NONE',  ( 644.7199994035465800, -169.7500000000096300, 2349.254424358940500 ) ) ;
#805 = EDGE_LOOP ( 'NONE', ( #51, #906, #526, #915 ) ) ;
#806 = DIRECTION ( 'NONE',  ( -1.000000000000000000, -0.0000000000000000000, -0.0000000000000000000 ) ) ;
#807 = EDGE_CURVE ( 'NONE', #272, #824, #264, .T. ) ;
#808 = AXIS2_PLACEMENT_3D ( 'NONE', #454, #452, #447 ) ;
#809 = CARTESIAN_POINT ( 'NONE',  ( 644.7199994035465800, -142.2500000000094400, 2349.254424358940500 ) ) ;
#810 = VECTOR ( 'NONE', #900, 1000.000000000000000 ) ;
#811 = DIRECTION ( 'NONE',  ( 0.0000000000000000000, -1.000000000000000000, -3.531707261708572600E-015 ) ) ;
#812 = CIRCLE ( 'NONE', #763, 20.00000000000001800 ) ;
#813 = CARTESIAN_POINT ( 'NONE',  ( 1959.012347068105300, -169.7500000000096100, 2334.254944867227600 ) ) ;
#814 = ORIENTED_EDGE ( 'NONE', *, *, #832, .F. ) ;
#815 = AXIS2_PLACEMENT_3D ( 'NONE', #820, #819, #818 ) ;
#816 = ORIENTED_EDGE ( 'NONE', *, *, #777, .T. ) ;
#817 = CARTESIAN_POINT ( 'NONE',  ( 1994.719999403547000, -169.7500000000098100, 2389.254424358946800 ) ) ;
#818 = DIRECTION ( 'NONE',  ( 0.0000000000000000000, -3.330669073875481500E-015, 1.000000000000000000 ) ) ;
#819 = DIRECTION ( 'NONE',  ( -2.257851024201081500E-017, 1.000000000000000000, 3.531707261708594300E-015 ) ) ;
#820 = CARTESIAN_POINT ( 'NONE',  ( 644.7199994035465800, -169.7500000000097200, 2369.254424358940500 ) ) ;
#821 = LINE ( 'NONE', #627, #782 ) ;
#822 = DIRECTION ( 'NONE',  ( 1.599703392290306700E-029, -1.000000000000000000, -3.491483361109382500E-015 ) ) ;
#823 = FACE_OUTER_BOUND ( 'NONE', #555, .T. ) ;
#824 = VERTEX_POINT ( 'NONE', #553 ) ;
#825 = EDGE_CURVE ( 'NONE', #824, #978, #360, .T. ) ;
#826 = CARTESIAN_POINT ( 'NONE',  ( 1929.719999403546600, -169.7500000000096300, 2346.254424358946400 ) ) ;
#827 = ORIENTED_EDGE ( 'NONE', *, *, #777, .F. ) ;
#828 = DIRECTION ( 'NONE',  ( 1.000000000000000000, 4.995215509932459700E-030, 2.288672856204331400E-044 ) ) ;
#829 = PLANE ( 'NONE',  #680 ) ;
#830 = CARTESIAN_POINT ( 'NONE',  ( 1959.012347068105600, -144.7500000000096300, 2334.254944867227600 ) ) ;
#831 = EDGE_CURVE ( 'NONE', #599, #433, #317, .T. ) ;
#832 = EDGE_CURVE ( 'NONE', #36, #430, #276, .T. ) ;
#833 = DIRECTION ( 'NONE',  ( 0.0000000000000000000, 4.163336342344333100E-015, -1.000000000000000000 ) ) ;
#834 = FACE_OUTER_BOUND ( 'NONE', #468, .T. ) ;
#835 = DIRECTION ( 'NONE',  ( 8.002917117548845100E-032, -1.000000000000000000, -3.544484127503752200E-015 ) ) ;
#836 = CARTESIAN_POINT ( 'NONE',  ( 1994.719999403547000, -144.7500000000097200, 2369.254424358946800 ) ) ;
#837 = LINE ( 'NONE', #909, #587 ) ;
#838 = ORIENTED_EDGE ( 'NONE', *, *, #498, .T. ) ;
#839 = EDGE_CURVE ( 'NONE', #721, #926, #309, .T. ) ;
#840 = PLANE ( 'NONE',  #741 ) ;
#841 = CARTESIAN_POINT ( 'NONE',  ( 1930.446225199752500, -169.7500000000096300, 2346.254424358946400 ) ) ;
#842 = DIRECTION ( 'NONE',  ( 0.0000000000000000000, -3.330669073875481500E-015, 1.000000000000000000 ) ) ;
#843 = DIRECTION ( 'NONE',  ( 0.0000000000000000000, 1.000000000000000000, 3.491483361109382100E-015 ) ) ;
#844 = EDGE_CURVE ( 'NONE', #926, #488, #255, .T. ) ;
#845 = CARTESIAN_POINT ( 'NONE',  ( 1994.719999403547000, -169.7500000000097200, 2369.254424358946800 ) ) ;
#846 = VECTOR ( 'NONE', #554, 1000.000000000000000 ) ;
#847 = CARTESIAN_POINT ( 'NONE',  ( 644.7199994035465800, -144.7500000000098100, 2389.254424358940500 ) ) ;
#848 = FACE_OUTER_BOUND ( 'NONE', #805, .T. ) ;
#849 = EDGE_LOOP ( 'NONE', ( #937, #920, #671, #79 ) ) ;
#850 = VERTEX_POINT ( 'NONE', #537 ) ;
#851 = DIRECTION ( 'NONE',  ( 0.0000000000000000000, -3.330669073875481500E-015, 1.000000000000000000 ) ) ;
#852 = CARTESIAN_POINT ( 'NONE',  ( 1930.719999403525400, -169.7500000000098100, 2392.254424358946400 ) ) ;
#853 = CARTESIAN_POINT ( 'NONE',  ( 644.7199994035465800, -144.7500000000096300, 2349.254424358940500 ) ) ;
#854 =( GEOMETRIC_REPRESENTATION_CONTEXT ( 3 ) GLOBAL_UNCERTAINTY_ASSIGNED_CONTEXT ( ( #172 ) ) GLOBAL_UNIT_ASSIGNED_CONTEXT ( ( #402, #400, #399 ) ) REPRESENTATION_CONTEXT ( 'NONE', 'WORKASPACE' ) );
#855 = CARTESIAN_POINT ( 'NONE',  ( 1994.719999403547000, -142.2500000000095200, 2369.254424358946800 ) ) ;
#856 = FACE_OUTER_BOUND ( 'NONE', #801, .T. ) ;
#857 = CARTESIAN_POINT ( 'NONE',  ( 1929.719999403546600, -142.2500000000096300, 2344.254424358943200 ) ) ;
#858 = AXIS2_PLACEMENT_3D ( 'NONE', #484, #481, #477 ) ;
#859 = CARTESIAN_POINT ( 'NONE',  ( 709.7199994035465800, -142.2500000000096300, 2392.254424358940900 ) ) ;
#860 = DIRECTION ( 'NONE',  ( -2.257851024201081500E-017, 1.000000000000000000, 3.531707261708594300E-015 ) ) ;
#861 = ORIENTED_EDGE ( 'NONE', *, *, #883, .F. ) ;
#862 = FILL_AREA_STYLE ('',( #23 ) ) ;
#863 = EDGE_CURVE ( 'NONE', #156, #59, #250, .T. ) ;
#864 = DIRECTION ( 'NONE',  ( -8.326672684688666200E-015, -3.469446951953611000E-015, 1.000000000000000000 ) ) ;
#865 = DIRECTION ( 'NONE',  ( -0.0000000000000000000, -1.000000000000000000, -3.491483361109382100E-015 ) ) ;
#866 = FACE_OUTER_BOUND ( 'NONE', #469, .T. ) ;
#867 = CARTESIAN_POINT ( 'NONE',  ( 709.7199994035464700, -169.7500000000098100, 2392.254424358940900 ) ) ;
#868 = FACE_BOUND ( 'NONE', #677, .T. ) ;
#869 = CIRCLE ( 'NONE', #771, 40.00000000000003600 ) ;
#870 = FACE_OUTER_BOUND ( 'NONE', #339, .T. ) ;
#871 = DIRECTION ( 'NONE',  ( 0.0000000000000000000, 1.000000000000000000, 3.491483361109382100E-015 ) ) ;
#872 = CARTESIAN_POINT ( 'NONE',  ( 1994.719999403547000, -144.7500000000097500, 2369.254424358946800 ) ) ;
#873 = VERTEX_POINT ( 'NONE', #523 ) ;
#874 = ORIENTED_EDGE ( 'NONE', *, *, #263, .T. ) ;
#875 = VERTEX_POINT ( 'NONE', #492 ) ;
#876 = EDGE_CURVE ( 'NONE', #121, #171, #244, .T. ) ;
#877 = ADVANCED_BREP_SHAPE_REPRESENTATION ( 'IRB660_180-315_LINK_H_CAD_rev02', ( #968, #106 ), #90 ) ;
#878 = CARTESIAN_POINT ( 'NONE',  ( 680.4276517389874900, -169.7500000000098300, 2404.253903850659800 ) ) ;
#879 = CARTESIAN_POINT ( 'NONE',  ( 1959.012347068105300, -169.7500000000098300, 2404.253903850666100 ) ) ;
#880 = LINE ( 'NONE', #736, #125 ) ;
#881 = DIRECTION ( 'NONE',  ( -2.257851024201081500E-017, 1.000000000000000000, 3.531707261708594300E-015 ) ) ;
#882 = VERTEX_POINT ( 'NONE', #497 ) ;
#883 = EDGE_CURVE ( 'NONE', #493, #486, #243, .T. ) ;
#884 = ORIENTED_EDGE ( 'NONE', *, *, #786, .T. ) ;
#885 = DIRECTION ( 'NONE',  ( -1.657342724523342900E-029, 1.000000000000000000, 3.531707261708594300E-015 ) ) ;
#886 = DIRECTION ( 'NONE',  ( -4.995215509932459700E-030, 1.000000000000000000, 0.0000000000000000000 ) ) ;
#887 = EDGE_CURVE ( 'NONE', #744, #434, #252, .T. ) ;
#888 = DIRECTION ( 'NONE',  ( -4.995215509932459700E-030, 1.000000000000000000, 0.0000000000000000000 ) ) ;
#889 = CARTESIAN_POINT ( 'NONE',  ( 709.7199994035464700, -142.2500000000096300, 2344.254424358941800 ) ) ;
#890 = LINE ( 'NONE', #918, #169 ) ;
#891 = DIRECTION ( 'NONE',  ( 0.0000000000000000000, -3.330669073875481500E-015, 1.000000000000000000 ) ) ;
#892 = DIRECTION ( 'NONE',  ( 2.257851024201081500E-017, -1.000000000000000000, -3.531707261708594300E-015 ) ) ;
#893 = LINE ( 'NONE', #639, #428 ) ;
#894 = EDGE_CURVE ( 'NONE', #514, #433, #241, .T. ) ;
#895 = DIRECTION ( 'NONE',  ( 0.0000000000000000000, 1.000000000000000000, 3.491483361109382100E-015 ) ) ;
#896 = ORIENTED_EDGE ( 'NONE', *, *, #97, .T. ) ;
#897 = CARTESIAN_POINT ( 'NONE',  ( 1994.719999403547000, -169.7500000000098900, 2419.254424358946800 ) ) ;
#898 = CARTESIAN_POINT ( 'NONE',  ( 1994.719999403547000, -144.7500000000097500, 2369.254424358946800 ) ) ;
#899 = ORIENTED_EDGE ( 'NONE', *, *, #53, .T. ) ;
#900 = DIRECTION ( 'NONE',  ( -0.0000000000000000000, 1.000000000000000000, 3.298736308223049300E-015 ) ) ;
#901 = CARTESIAN_POINT ( 'NONE',  ( 1929.719999403546600, -148.2500000000096900, 2344.254424358941400 ) ) ;
#902 = EDGE_CURVE ( 'NONE', #171, #236, #262, .T. ) ;
#903 = CARTESIAN_POINT ( 'NONE',  ( 708.9937736073407000, -169.7500000000099500, 2432.253487444034800 ) ) ;
#904 = FACE_BOUND ( 'NONE', #495, .T. ) ;
#905 = DIRECTION ( 'NONE',  ( 2.257851024201081500E-017, -1.000000000000000000, -3.531707261708594300E-015 ) ) ;
#906 = ORIENTED_EDGE ( 'NONE', *, *, #446, .F. ) ;
#907 = ORIENTED_EDGE ( 'NONE', *, *, #216, .T. ) ;
#908 = CARTESIAN_POINT ( 'NONE',  ( 1930.719999403517500, -144.7500000000098100, 2392.254424358946400 ) ) ;
#909 = CARTESIAN_POINT ( 'NONE',  ( 708.7199994035357800, -169.7500000000098100, 2392.254424358940900 ) ) ;
#910 = EDGE_CURVE ( 'NONE', #4, #19, #233, .T. ) ;
#911 = PLANE ( 'NONE',  #626 ) ;
#912 = AXIS2_PLACEMENT_3D ( 'NONE', #845, #843, #842 ) ;
#913 = FACE_OUTER_BOUND ( 'NONE', #258, .T. ) ;
#914 = PRESENTATION_STYLE_ASSIGNMENT (( #67 ) ) ;
#915 = ORIENTED_EDGE ( 'NONE', *, *, #928, .F. ) ;
#916 = DIRECTION ( 'NONE',  ( 1.000000000000000000, 4.995215509932459700E-030, 2.288672856204331400E-044 ) ) ;
#917 = VECTOR ( 'NONE', #802, 1000.000000000000000 ) ;
#918 = CARTESIAN_POINT ( 'NONE',  ( 680.4276517389881700, -169.7500000000096100, 2334.254944867222100 ) ) ;
#919 = VERTEX_POINT ( 'NONE', #427 ) ;
#920 = ORIENTED_EDGE ( 'NONE', *, *, #728, .T. ) ;
#921 = CARTESIAN_POINT ( 'NONE',  ( 709.7199994035464700, -172.2500000000098100, 2394.254424358941400 ) ) ;
#922 = DIRECTION ( 'NONE',  ( 0.0000000000000000000, 1.000000000000000000, 3.491483361109382100E-015 ) ) ;
#923 = ORIENTED_EDGE ( 'NONE', *, *, #152, .T. ) ;
#924 = DIRECTION ( 'NONE',  ( -2.257851024201081500E-017, 1.000000000000000000, 3.531707261708594300E-015 ) ) ;
#925 = CIRCLE ( 'NONE', #794, 40.00000000000003600 ) ;
#926 = VERTEX_POINT ( 'NONE', #458 ) ;
#927 = ORIENTED_EDGE ( 'NONE', *, *, #108, .F. ) ;
#928 = EDGE_CURVE ( 'NONE', #59, #493, #226, .T. ) ;
#929 = DIRECTION ( 'NONE',  ( 0.0000000000000000000, -3.330669073875481500E-015, 1.000000000000000000 ) ) ;
#930 = ORIENTED_EDGE ( 'NONE', *, *, #158, .T. ) ;
#931 = CIRCLE ( 'NONE', #130, 20.00000000000001800 ) ;
#932 = EDGE_CURVE ( 'NONE', #486, #457, #232, .T. ) ;
#933 = DIRECTION ( 'NONE',  ( 0.0000000000000000000, 4.163336342344333100E-015, -1.000000000000000000 ) ) ;
#934 = FACE_OUTER_BOUND ( 'NONE', #967, .T. ) ;
#935 = DIRECTION ( 'NONE',  ( 0.0000000000000000000, 1.000000000000000000, 3.491483361109382100E-015 ) ) ;
#936 = LINE ( 'NONE', #711, #191 ) ;
#937 = ORIENTED_EDGE ( 'NONE', *, *, #876, .T. ) ;
#938 =( NAMED_UNIT ( * ) SI_UNIT ( $, .STERADIAN. ) SOLID_ANGLE_UNIT ( ) );
#939 = ORIENTED_EDGE ( 'NONE', *, *, #609, .F. ) ;
#940 = CARTESIAN_POINT ( 'NONE',  ( 1930.446225199752000, -169.7500000000099500, 2432.253487444040700 ) ) ;
#941 = ORIENTED_EDGE ( 'NONE', *, *, #832, .T. ) ;
#942 = ORIENTED_EDGE ( 'NONE', *, *, #561, .T. ) ;
#943 = DIRECTION ( 'NONE',  ( 0.0000000000000000000, -3.469446951953611000E-015, 1.000000000000000000 ) ) ;
#944 = ORIENTED_EDGE ( 'NONE', *, *, #136, .T. ) ;
#945 = DIRECTION ( 'NONE',  ( 0.0000000000000000000, -3.491483361109382500E-015, 1.000000000000000000 ) ) ;
#946 = PLANE ( 'NONE',  #31 ) ;
#947 = VECTOR ( 'NONE', #63, 1000.000000000000000 ) ;
#948 = ORIENTED_EDGE ( 'NONE', *, *, #887, .T. ) ;
#949 = DIRECTION ( 'NONE',  ( 4.692752263169008800E-015, 3.531707261708594300E-015, -1.000000000000000000 ) ) ;
#950 = CARTESIAN_POINT ( 'NONE',  ( 1929.719999403546600, -142.2500000000096300, 2344.254424358946400 ) ) ;
#951 = ORIENTED_EDGE ( 'NONE', *, *, #902, .F. ) ;
#952 = AXIS2_PLACEMENT_3D ( 'NONE', #761, #828, #725 ) ;
#953 =( NAMED_UNIT ( * ) PLANE_ANGLE_UNIT ( ) SI_UNIT ( $, .RADIAN. ) );
#954 = CARTESIAN_POINT ( 'NONE',  ( 1930.446225199752500, -144.7500000000094900, 2306.255361273852500 ) ) ;
#955 = VECTOR ( 'NONE', #772, 1000.000000000000000 ) ;
#956 = CARTESIAN_POINT ( 'NONE',  ( 644.7199994035465800, -169.7500000000097200, 2369.254424358940500 ) ) ;
#957 = EDGE_LOOP ( 'NONE', ( #941, #585 ) ) ;
#958 = CIRCLE ( 'NONE', #22, 20.00000000000001800 ) ;
#959 = AXIS2_PLACEMENT_3D ( 'NONE', #730, #729, #723 ) ;
#960 = DIRECTION ( 'NONE',  ( 0.0000000000000000000, -3.544484127503752200E-015, 1.000000000000000000 ) ) ;
#961 = ORIENTED_EDGE ( 'NONE', *, *, #902, .T. ) ;
#962 = DIRECTION ( 'NONE',  ( -0.0000000000000000000, 1.000000000000000000, 3.491483361109382500E-015 ) ) ;
#963 = ORIENTED_EDGE ( 'NONE', *, *, #724, .F. ) ;
#964 = PLANE ( 'NONE',  #5 ) ;
#965 = ORIENTED_EDGE ( 'NONE', *, *, #336, .T. ) ;
#966 = CARTESIAN_POINT ( 'NONE',  ( 708.9937736073407000, -144.7500000000099500, 2432.253487444035300 ) ) ;
#967 = EDGE_LOOP ( 'NONE', ( #974, #675, #775, #547 ) ) ;
#968 = MANIFOLD_SOLID_BREP ( 'Cut-Extrude1', #700 ) ;
#969 = DIRECTION ( 'NONE',  ( 0.0000000000000000000, -1.000000000000000000, -3.491483361109360800E-015 ) ) ;
#970 = DIRECTION ( 'NONE',  ( -8.002917117548844000E-032, 1.000000000000000000, 3.544484127503752200E-015 ) ) ;
#971 = PLANE ( 'NONE',  #62 ) ;
#972 = CYLINDRICAL_SURFACE ( 'NONE', #162, 49.99999999999982200 ) ;
#973 = CARTESIAN_POINT ( 'NONE',  ( 708.7199994035465800, -169.7500000000098100, 2392.254424358940900 ) ) ;
#974 = ORIENTED_EDGE ( 'NONE', *, *, #910, .F. ) ;
#975 = LINE ( 'NONE', #661, #367 ) ;
#976 = SURFACE_SIDE_STYLE ('',( #438 ) ) ;
#977 =( LENGTH_UNIT ( ) NAMED_UNIT ( * ) SI_UNIT ( .MILLI., .METRE. ) );
#978 = VERTEX_POINT ( 'NONE', #411 ) ;
ENDSEC;
END-ISO-10303-21;
