ISO-10303-21;
HEADER;
FILE_DESCRIPTION (( 'STEP AP214' ),
    '1' );
FILE_NAME ('IRB660_180-315_LINK_V_CAD_rev02.STEP',
    '2016-12-02T12:01:52',
    ( 'ABB' ),
    ( 'ABB' ),
    'SwSTEP 2.0',
    'SolidWorks 2014',
    '' );
FILE_SCHEMA (( 'AUTOMOTIVE_DESIGN' ));
ENDSEC;

DATA;
#1 = VERTEX_POINT ( 'NONE', #249 ) ;
#2 = EDGE_CURVE ( 'NONE', #419, #378, #78, .T. ) ;
#3 = DIRECTION ( 'NONE',  ( 0.0000000000000000000, 2.775557561562889000E-015, -1.000000000000000000 ) ) ;
#4 = LINE ( 'NONE', #861, #835 ) ;
#5 = DIRECTION ( 'NONE',  ( -1.862479723388573700E-031, -1.000000000000000000, -3.514061871351393100E-015 ) ) ;
#6 = ORIENTED_EDGE ( 'NONE', *, *, #493, .T. ) ;
#7 = VERTEX_POINT ( 'NONE', #330 ) ;
#8 = VERTEX_POINT ( 'NONE', #198 ) ;
#9 = CARTESIAN_POINT ( 'NONE',  ( -117.2327345550501600, -362.5000000000361500, 2248.572967037159300 ) ) ;
#10 = VERTEX_POINT ( 'NONE', #104 ) ;
#11 = CARTESIAN_POINT ( 'NONE',  ( -94.23273455505017200, -362.5000000000358700, 2183.572967037160200 ) ) ;
#12 = VERTEX_POINT ( 'NONE', #254 ) ;
#13 = VERTEX_POINT ( 'NONE', #190 ) ;
#14 = VERTEX_POINT ( 'NONE', #130 ) ;
#15 = STYLED_ITEM ( 'NONE', ( #867 ), #396 ) ;
#16 = VERTEX_POINT ( 'NONE', #126 ) ;
#17 = EDGE_CURVE ( 'NONE', #378, #28, #285, .T. ) ;
#18 = COLOUR_RGB ( '',0.2901960784313725200, 0.3294117647058823500, 0.3490196078431372400 ) ;
#19 = LINE ( 'NONE', #481, #442 ) ;
#20 = VERTEX_POINT ( 'NONE', #123 ) ;
#21 = VERTEX_POINT ( 'NONE', #668 ) ;
#22 = AXIS2_PLACEMENT_3D ( 'NONE', #764, #777, #770 ) ;
#23 = VERTEX_POINT ( 'NONE', #853 ) ;
#24 = DIRECTION ( 'NONE',  ( -1.862479723388573700E-031, -1.000000000000000000, -3.514061871351393100E-015 ) ) ;
#25 = VERTEX_POINT ( 'NONE', #305 ) ;
#26 = VERTEX_POINT ( 'NONE', #779 ) ;
#27 = VERTEX_POINT ( 'NONE', #62 ) ;
#28 = VERTEX_POINT ( 'NONE', #864 ) ;
#29 = DIRECTION ( 'NONE',  ( -0.0000000000000000000, -1.000000000000000000, -3.491483361109382100E-015 ) ) ;
#30 = DIRECTION ( 'NONE',  ( -1.862479723388573700E-031, -1.000000000000000000, -3.514061871351393100E-015 ) ) ;
#31 = ORIENTED_EDGE ( 'NONE', *, *, #181, .T. ) ;
#32 = VERTEX_POINT ( 'NONE', #721 ) ;
#33 = PRESENTATION_LAYER_ASSIGNMENT (  '', '', ( #765 ) ) ;
#34 = EDGE_LOOP ( 'NONE', ( #166, #186, #162, #267 ) ) ;
#35 = EDGE_LOOP ( 'NONE', ( #236, #242 ) ) ;
#36 = ORIENTED_EDGE ( 'NONE', *, *, #873, .T. ) ;
#37 = EDGE_LOOP ( 'NONE', ( #223, #149, #257, #148 ) ) ;
#38 = FACE_OUTER_BOUND ( 'NONE', #37, .T. ) ;
#39 = ORIENTED_EDGE ( 'NONE', *, *, #831, .T. ) ;
#40 = EDGE_LOOP ( 'NONE', ( #96, #97 ) ) ;
#41 = EDGE_CURVE ( 'NONE', #722, #85, #4, .T. ) ;
#42 = EDGE_LOOP ( 'NONE', ( #75, #76, #84, #92, #93, #94, #95 ) ) ;
#43 = EDGE_LOOP ( 'NONE', ( #238, #251, #156, #146 ) ) ;
#44 = EDGE_LOOP ( 'NONE', ( #245, #339, #243, #340 ) ) ;
#45 = EDGE_CURVE ( 'NONE', #255, #21, #172, .T. ) ;
#46 = ORIENTED_EDGE ( 'NONE', *, *, #200, .F. ) ;
#47 = EDGE_CURVE ( 'NONE', #264, #26, #315, .T. ) ;
#48 = EDGE_LOOP ( 'NONE', ( #346, #537, #182, #6, #31, #39, #49 ) ) ;
#49 = ORIENTED_EDGE ( 'NONE', *, *, #465, .T. ) ;
#50 = ORIENTED_EDGE ( 'NONE', *, *, #234, .T. ) ;
#51 = UNCERTAINTY_MEASURE_WITH_UNIT (LENGTH_MEASURE( 1.000000000000000100E-005 ), #304, 'distance_accuracy_value', 'NONE');
#52 = EDGE_LOOP ( 'NONE', ( #63, #66, #68, #74 ) ) ;
#53 = VERTEX_POINT ( 'NONE', #857 ) ;
#54 = ORIENTED_EDGE ( 'NONE', *, *, #200, .T. ) ;
#55 = EDGE_LOOP ( 'NONE', ( #224, #187, #199, #206 ) ) ;
#56 = DIRECTION ( 'NONE',  ( 0.0000000000000000000, 2.775557561562889000E-015, -1.000000000000000000 ) ) ;
#57 = CARTESIAN_POINT ( 'NONE',  ( -142.2327345550500000, -390.0000000000356400, 2183.572967037160200 ) ) ;
#58 = DIRECTION ( 'NONE',  ( 0.0000000000000000000, 2.775557561562889000E-015, -1.000000000000000000 ) ) ;
#59 = CIRCLE ( 'NONE', #231, 49.99999999999982200 ) ;
#60 = AXIS2_PLACEMENT_3D ( 'NONE', #495, #489, #485 ) ;
#61 = EDGE_CURVE ( 'NONE', #173, #335, #120, .T. ) ;
#62 = CARTESIAN_POINT ( 'NONE',  ( -152.2322140467689200, -387.5000000000317200, 1004.280619372600700 ) ) ;
#63 = ORIENTED_EDGE ( 'NONE', *, *, #132, .F. ) ;
#64 = VERTEX_POINT ( 'NONE', #842 ) ;
#65 = CARTESIAN_POINT ( 'NONE',  ( -117.2327345550500200, -362.5000000000316000, 968.5729670371595100 ) ) ;
#66 = ORIENTED_EDGE ( 'NONE', *, *, #89, .F. ) ;
#67 = VERTEX_POINT ( 'NONE', #839 ) ;
#68 = ORIENTED_EDGE ( 'NONE', *, *, #450, .T. ) ;
#69 = AXIS2_PLACEMENT_3D ( 'NONE', #746, #745, #741 ) ;
#70 = EDGE_LOOP ( 'NONE', ( #100, #101, #103, #105 ) ) ;
#71 = ORIENTED_EDGE ( 'NONE', *, *, #448, .T. ) ;
#72 = EDGE_LOOP ( 'NONE', ( #50, #54 ) ) ;
#73 = EDGE_LOOP ( 'NONE', ( #375, #71, #445, #36 ) ) ;
#74 = ORIENTED_EDGE ( 'NONE', *, *, #308, .T. ) ;
#75 = ORIENTED_EDGE ( 'NONE', *, *, #258, .F. ) ;
#76 = ORIENTED_EDGE ( 'NONE', *, *, #429, .F. ) ;
#77 = MECHANICAL_DESIGN_GEOMETRIC_PRESENTATION_REPRESENTATION (  '', ( #765 ), #122 ) ;
#78 = LINE ( 'NONE', #423, #589 ) ;
#79 = LINE ( 'NONE', #435, #659 ) ;
#80 = AXIS2_PLACEMENT_3D ( 'NONE', #724, #736, #716 ) ;
#81 = EDGE_LOOP ( 'NONE', ( #169, #872, #387, #303 ) ) ;
#82 = EDGE_LOOP ( 'NONE', ( #116, #118, #124, #125 ) ) ;
#83 = EDGE_LOOP ( 'NONE', ( #140, #141, #144, #145 ) ) ;
#84 = ORIENTED_EDGE ( 'NONE', *, *, #530, .F. ) ;
#85 = VERTEX_POINT ( 'NONE', #847 ) ;
#86 = EDGE_CURVE ( 'NONE', #159, #12, #228, .T. ) ;
#87 = EDGE_LOOP ( 'NONE', ( #232, #180, #197, #170 ) ) ;
#88 = VECTOR ( 'NONE', #338, 1000.000000000000000 ) ;
#89 = EDGE_CURVE ( 'NONE', #194, #10, #490, .T. ) ;
#90 = COLOUR_RGB ( '',0.8431372549019607900, 0.8431372549019607900, 0.8431372549019607900 ) ;
#91 = EDGE_CURVE ( 'NONE', #53, #64, #456, .T. ) ;
#92 = ORIENTED_EDGE ( 'NONE', *, *, #329, .F. ) ;
#93 = ORIENTED_EDGE ( 'NONE', *, *, #308, .F. ) ;
#94 = ORIENTED_EDGE ( 'NONE', *, *, #217, .T. ) ;
#95 = ORIENTED_EDGE ( 'NONE', *, *, #602, .F. ) ;
#96 = ORIENTED_EDGE ( 'NONE', *, *, #152, .F. ) ;
#97 = ORIENTED_EDGE ( 'NONE', *, *, #139, .F. ) ;
#98 = LINE ( 'NONE', #342, #88 ) ;
#99 = VECTOR ( 'NONE', #348, 1000.000000000000000 ) ;
#100 = ORIENTED_EDGE ( 'NONE', *, *, #289, .T. ) ;
#101 = ORIENTED_EDGE ( 'NONE', *, *, #41, .T. ) ;
#102 = AXIS2_PLACEMENT_3D ( 'NONE', #461, #459, #457 ) ;
#103 = ORIENTED_EDGE ( 'NONE', *, *, #829, .F. ) ;
#104 = CARTESIAN_POINT ( 'NONE',  ( -140.2327345550501400, -362.5000000000358700, 2184.572967037160700 ) ) ;
#105 = ORIENTED_EDGE ( 'NONE', *, *, #790, .T. ) ;
#106 = EDGE_CURVE ( 'NONE', #1, #722, #317, .T. ) ;
#107 = ORIENTED_EDGE ( 'NONE', *, *, #747, .T. ) ;
#108 = ORIENTED_EDGE ( 'NONE', *, *, #694, .T. ) ;
#109 = EDGE_LOOP ( 'NONE', ( #127, #128, #129, #131 ) ) ;
#110 = LINE ( 'NONE', #336, #838 ) ;
#111 = EDGE_CURVE ( 'NONE', #255, #13, #553, .T. ) ;
#112 = VECTOR ( 'NONE', #399, 1000.000000000000000 ) ;
#113 = ORIENTED_EDGE ( 'NONE', *, *, #829, .T. ) ;
#114 = ORIENTED_EDGE ( 'NONE', *, *, #359, .T. ) ;
#115 = EDGE_LOOP ( 'NONE', ( #135, #136, #137, #138 ) ) ;
#116 = ORIENTED_EDGE ( 'NONE', *, *, #193, .T. ) ;
#117 = EDGE_LOOP ( 'NONE', ( #201, #215, #214, #202 ) ) ;
#118 = ORIENTED_EDGE ( 'NONE', *, *, #401, .T. ) ;
#119 = PRESENTATION_STYLE_ASSIGNMENT (( #520 ) ) ;
#120 = CIRCLE ( 'NONE', #500, 40.00000000000003600 ) ;
#121 = VECTOR ( 'NONE', #367, 1000.000000000000000 ) ;
#122 =( GEOMETRIC_REPRESENTATION_CONTEXT ( 3 ) GLOBAL_UNCERTAINTY_ASSIGNED_CONTEXT ( ( #726 ) ) GLOBAL_UNIT_ASSIGNED_CONTEXT ( ( #543, #541, #540 ) ) REPRESENTATION_CONTEXT ( 'NONE', 'WORKASPACE' ) );
#123 = CARTESIAN_POINT ( 'NONE',  ( -140.2327345550500000, -387.5000000000318300, 1033.572967037159500 ) ) ;
#124 = ORIENTED_EDGE ( 'NONE', *, *, #337, .T. ) ;
#125 = ORIENTED_EDGE ( 'NONE', *, *, #845, .T. ) ;
#126 = CARTESIAN_POINT ( 'NONE',  ( -92.23273455505001600, -390.0000000000318900, 1033.572967037159500 ) ) ;
#127 = ORIENTED_EDGE ( 'NONE', *, *, #717, .T. ) ;
#128 = ORIENTED_EDGE ( 'NONE', *, *, #790, .F. ) ;
#129 = ORIENTED_EDGE ( 'NONE', *, *, #694, .F. ) ;
#130 = CARTESIAN_POINT ( 'NONE',  ( -117.2327345550501600, -387.5000000000361500, 2268.572967037159300 ) ) ;
#131 = ORIENTED_EDGE ( 'NONE', *, *, #809, .T. ) ;
#132 = EDGE_CURVE ( 'NONE', #10, #740, #572, .T. ) ;
#133 = LINE ( 'NONE', #406, #112 ) ;
#134 = EDGE_CURVE ( 'NONE', #335, #32, #573, .T. ) ;
#135 = ORIENTED_EDGE ( 'NONE', *, *, #106, .T. ) ;
#136 = ORIENTED_EDGE ( 'NONE', *, *, #289, .F. ) ;
#137 = ORIENTED_EDGE ( 'NONE', *, *, #717, .F. ) ;
#138 = ORIENTED_EDGE ( 'NONE', *, *, #281, .T. ) ;
#139 = EDGE_CURVE ( 'NONE', #14, #23, #817, .T. ) ;
#140 = ORIENTED_EDGE ( 'NONE', *, *, #450, .F. ) ;
#141 = ORIENTED_EDGE ( 'NONE', *, *, #465, .F. ) ;
#142 = CYLINDRICAL_SURFACE ( 'NONE', #247, 20.00000000000001800 ) ;
#143 = FACE_OUTER_BOUND ( 'NONE', #109, .T. ) ;
#144 = ORIENTED_EDGE ( 'NONE', *, *, #749, .F. ) ;
#145 = ORIENTED_EDGE ( 'NONE', *, *, #217, .F. ) ;
#146 = ORIENTED_EDGE ( 'NONE', *, *, #155, .F. ) ;
#147 = ORIENTED_EDGE ( 'NONE', *, *, #258, .T. ) ;
#148 = ORIENTED_EDGE ( 'NONE', *, *, #311, .T. ) ;
#149 = ORIENTED_EDGE ( 'NONE', *, *, #221, .F. ) ;
#150 = PRESENTATION_LAYER_ASSIGNMENT (  '', '', ( #432 ) ) ;
#151 = ORIENTED_EDGE ( 'NONE', *, *, #152, .T. ) ;
#152 = EDGE_CURVE ( 'NONE', #23, #14, #583, .T. ) ;
#153 = VECTOR ( 'NONE', #446, 1000.000000000000000 ) ;
#154 = UNCERTAINTY_MEASURE_WITH_UNIT (LENGTH_MEASURE( 1.000000000000000100E-005 ), #519, 'distance_accuracy_value', 'NONE');
#155 = EDGE_CURVE ( 'NONE', #27, #32, #592, .T. ) ;
#156 = ORIENTED_EDGE ( 'NONE', *, *, #478, .F. ) ;
#157 = ORIENTED_EDGE ( 'NONE', *, *, #359, .F. ) ;
#158 = ORIENTED_EDGE ( 'NONE', *, *, #515, .T. ) ;
#159 = VERTEX_POINT ( 'NONE', #516 ) ;
#160 = ORIENTED_EDGE ( 'NONE', *, *, #106, .F. ) ;
#161 = ORIENTED_EDGE ( 'NONE', *, *, #311, .F. ) ;
#162 = ORIENTED_EDGE ( 'NONE', *, *, #645, .F. ) ;
#163 = VECTOR ( 'NONE', #860, 1000.000000000000000 ) ;
#164 = STYLED_ITEM ( 'NONE', ( #119 ), #409 ) ;
#165 = ORIENTED_EDGE ( 'NONE', *, *, #337, .F. ) ;
#166 = ORIENTED_EDGE ( 'NONE', *, *, #45, .F. ) ;
#167 = VERTEX_POINT ( 'NONE', #510 ) ;
#168 = VERTEX_POINT ( 'NONE', #593 ) ;
#169 = ORIENTED_EDGE ( 'NONE', *, *, #281, .F. ) ;
#170 = ORIENTED_EDGE ( 'NONE', *, *, #649, .F. ) ;
#171 = AXIS2_PLACEMENT_3D ( 'NONE', #828, #827, #826 ) ;
#172 = LINE ( 'NONE', #862, #762 ) ;
#173 = VERTEX_POINT ( 'NONE', #512 ) ;
#174 = EDGE_CURVE ( 'NONE', #13, #27, #581, .T. ) ;
#175 = AXIS2_PLACEMENT_3D ( 'NONE', #497, #508, #504 ) ;
#176 = ORIENTED_EDGE ( 'NONE', *, *, #234, .F. ) ;
#177 = VERTEX_POINT ( 'NONE', #411 ) ;
#178 = ORIENTED_EDGE ( 'NONE', *, *, #47, .F. ) ;
#179 = ORIENTED_EDGE ( 'NONE', *, *, #703, .T. ) ;
#180 = ORIENTED_EDGE ( 'NONE', *, *, #2, .T. ) ;
#181 = EDGE_CURVE ( 'NONE', #26, #64, #594, .T. ) ;
#182 = ORIENTED_EDGE ( 'NONE', *, *, #404, .T. ) ;
#183 = LINE ( 'NONE', #321, #710 ) ;
#184 = FACE_OUTER_BOUND ( 'NONE', #55, .T. ) ;
#185 = ORIENTED_EDGE ( 'NONE', *, *, #767, .T. ) ;
#186 = ORIENTED_EDGE ( 'NONE', *, *, #767, .F. ) ;
#187 = ORIENTED_EDGE ( 'NONE', *, *, #873, .F. ) ;
#188 = ORIENTED_EDGE ( 'NONE', *, *, #61, .F. ) ;
#189 = ORIENTED_EDGE ( 'NONE', *, *, #61, .T. ) ;
#190 = CARTESIAN_POINT ( 'NONE',  ( -82.23325506333107200, -387.5000000000317200, 1004.280619372600800 ) ) ;
#191 =( GEOMETRIC_REPRESENTATION_CONTEXT ( 3 ) GLOBAL_UNCERTAINTY_ASSIGNED_CONTEXT ( ( #288 ) ) GLOBAL_UNIT_ASSIGNED_CONTEXT ( ( #453, #452, #451 ) ) REPRESENTATION_CONTEXT ( 'NONE', 'WORKASPACE' ) );
#192 = LINE ( 'NONE', #353, #99 ) ;
#193 = EDGE_CURVE ( 'NONE', #20, #21, #607, .T. ) ;
#194 = VERTEX_POINT ( 'NONE', #413 ) ;
#195 = ORIENTED_EDGE ( 'NONE', *, *, #134, .T. ) ;
#196 = PRODUCT_DEFINITION_SHAPE ( 'NONE', 'NONE',  #646 ) ;
#197 = ORIENTED_EDGE ( 'NONE', *, *, #17, .T. ) ;
#198 = CARTESIAN_POINT ( 'NONE',  ( -140.2327345550500000, -362.5000000000318300, 1033.572967037159500 ) ) ;
#199 = ORIENTED_EDGE ( 'NONE', *, *, #239, .F. ) ;
#200 = EDGE_CURVE ( 'NONE', #282, #167, #608, .T. ) ;
#201 = ORIENTED_EDGE ( 'NONE', *, *, #560, .F. ) ;
#202 = ORIENTED_EDGE ( 'NONE', *, *, #845, .F. ) ;
#203 = LINE ( 'NONE', #326, #772 ) ;
#204 = ORIENTED_EDGE ( 'NONE', *, *, #703, .F. ) ;
#205 = ORIENTED_EDGE ( 'NONE', *, *, #174, .F. ) ;
#206 = ORIENTED_EDGE ( 'NONE', *, *, #132, .T. ) ;
#207 = ORIENTED_EDGE ( 'NONE', *, *, #47, .T. ) ;
#208 = PRESENTATION_LAYER_ASSIGNMENT (  '', '', ( #164 ) ) ;
#209 = VERTEX_POINT ( 'NONE', #418 ) ;
#210 = ORIENTED_EDGE ( 'NONE', *, *, #429, .T. ) ;
#211 = COLOUR_RGB ( '',0.2901960784313725200, 0.3294117647058823500, 0.3490196078431372400 ) ;
#212 = VECTOR ( 'NONE', #391, 1000.000000000000000 ) ;
#213 = ORIENTED_EDGE ( 'NONE', *, *, #560, .T. ) ;
#214 = ORIENTED_EDGE ( 'NONE', *, *, #870, .T. ) ;
#215 = ORIENTED_EDGE ( 'NONE', *, *, #86, .F. ) ;
#216 = ORIENTED_EDGE ( 'NONE', *, *, #448, .F. ) ;
#217 = EDGE_CURVE ( 'NONE', #209, #252, #618, .T. ) ;
#218 = ORIENTED_EDGE ( 'NONE', *, *, #193, .F. ) ;
#219 = AXIS2_PLACEMENT_3D ( 'NONE', #444, #443, #441 ) ;
#220 = LINE ( 'NONE', #568, #440 ) ;
#221 = EDGE_CURVE ( 'NONE', #358, #419, #620, .T. ) ;
#222 = ORIENTED_EDGE ( 'NONE', *, *, #111, .F. ) ;
#223 = ORIENTED_EDGE ( 'NONE', *, *, #2, .F. ) ;
#224 = ORIENTED_EDGE ( 'NONE', *, *, #329, .T. ) ;
#225 = VERTEX_POINT ( 'NONE', #11 ) ;
#226 = EDGE_LOOP ( 'NONE', ( #189, #195, #341, #213, #165, #275 ) ) ;
#227 = ORIENTED_EDGE ( 'NONE', *, *, #155, .T. ) ;
#228 = LINE ( 'NONE', #768, #707 ) ;
#229 = COLOUR_RGB ( '',0.2901960784313725200, 0.3294117647058823500, 0.3490196078431372400 ) ;
#230 = VECTOR ( 'NONE', #420, 1000.000000000000000 ) ;
#231 = AXIS2_PLACEMENT_3D ( 'NONE', #434, #433, #425 ) ;
#232 = ORIENTED_EDGE ( 'NONE', *, *, #667, .F. ) ;
#233 = VERTEX_POINT ( 'NONE', #57 ) ;
#234 = EDGE_CURVE ( 'NONE', #167, #282, #610, .T. ) ;
#235 = ORIENTED_EDGE ( 'NONE', *, *, #493, .F. ) ;
#236 = ORIENTED_EDGE ( 'NONE', *, *, #221, .T. ) ;
#237 = ORIENTED_EDGE ( 'NONE', *, *, #134, .F. ) ;
#238 = ORIENTED_EDGE ( 'NONE', *, *, #370, .T. ) ;
#239 = EDGE_CURVE ( 'NONE', #10, #276, #627, .T. ) ;
#240 = UNCERTAINTY_MEASURE_WITH_UNIT (LENGTH_MEASURE( 1.000000000000000100E-005 ), #588, 'distance_accuracy_value', 'NONE');
#241 = ORIENTED_EDGE ( 'NONE', *, *, #91, .T. ) ;
#242 = ORIENTED_EDGE ( 'NONE', *, *, #667, .T. ) ;
#243 = ORIENTED_EDGE ( 'NONE', *, *, #749, .T. ) ;
#244 = ORIENTED_EDGE ( 'NONE', *, *, #174, .T. ) ;
#245 = ORIENTED_EDGE ( 'NONE', *, *, #91, .F. ) ;
#246 = ORIENTED_EDGE ( 'NONE', *, *, #17, .F. ) ;
#247 = AXIS2_PLACEMENT_3D ( 'NONE', #550, #564, #539 ) ;
#248 = CYLINDRICAL_SURFACE ( 'NONE', #299, 40.00000000000003600 ) ;
#249 = CARTESIAN_POINT ( 'NONE',  ( -92.23273455505001600, -390.0000000000344500, 2183.572967037160200 ) ) ;
#250 = ORIENTED_EDGE ( 'NONE', *, *, #111, .T. ) ;
#251 = ORIENTED_EDGE ( 'NONE', *, *, #86, .T. ) ;
#252 = VERTEX_POINT ( 'NONE', #869 ) ;
#253 = EDGE_LOOP ( 'NONE', ( #107, #108, #113, #114 ) ) ;
#254 = CARTESIAN_POINT ( 'NONE',  ( -140.2327345550500000, -362.5000000000318300, 1032.572967037157900 ) ) ;
#255 = VERTEX_POINT ( 'NONE', #871 ) ;
#256 = DIRECTION ( 'NONE',  ( 0.0000000000000000000, 1.000000000000000000, 3.491483361109382100E-015 ) ) ;
#257 = ORIENTED_EDGE ( 'NONE', *, *, #649, .T. ) ;
#258 = EDGE_CURVE ( 'NONE', #264, #53, #640, .T. ) ;
#259 = LINE ( 'NONE', #421, #153 ) ;
#260 = STYLED_ITEM ( 'NONE', ( #804 ), #840 ) ;
#261 = ORIENTED_EDGE ( 'NONE', *, *, #45, .T. ) ;
#262 = APPLICATION_PROTOCOL_DEFINITION ( 'draft international standard', 'automotive_design', 1998, #266 ) ;
#263 = EDGE_CURVE ( 'NONE', #335, #13, #631, .T. ) ;
#264 = VERTEX_POINT ( 'NONE', #360 ) ;
#265 = ORIENTED_EDGE ( 'NONE', *, *, #263, .F. ) ;
#266 = APPLICATION_CONTEXT ( 'automotive_design' ) ;
#267 = ORIENTED_EDGE ( 'NONE', *, *, #401, .F. ) ;
#268 = ORIENTED_EDGE ( 'NONE', *, *, #370, .F. ) ;
#269 = PRODUCT_CONTEXT ( 'NONE', #298, 'mechanical' ) ;
#270 = APPLICATION_PROTOCOL_DEFINITION ( 'draft international standard', 'automotive_design', 1998, #298 ) ;
#271 = CIRCLE ( 'NONE', #734, 49.99999999999982200 ) ;
#272 = DIRECTION ( 'NONE',  ( 1.000000000000000000, 0.0000000000000000000, 0.0000000000000000000 ) ) ;
#273 = LINE ( 'NONE', #469, #822 ) ;
#274 = DIRECTION ( 'NONE',  ( 0.0000000000000000000, 0.0000000000000000000, 1.000000000000000000 ) ) ;
#275 = ORIENTED_EDGE ( 'NONE', *, *, #645, .T. ) ;
#276 = VERTEX_POINT ( 'NONE', #833 ) ;
#277 = ORIENTED_EDGE ( 'NONE', *, *, #181, .F. ) ;
#278 = ORIENTED_EDGE ( 'NONE', *, *, #870, .F. ) ;
#279 =( NAMED_UNIT ( * ) SI_UNIT ( $, .STERADIAN. ) SOLID_ANGLE_UNIT ( ) );
#280 =( GEOMETRIC_REPRESENTATION_CONTEXT ( 3 ) GLOBAL_UNCERTAINTY_ASSIGNED_CONTEXT ( ( #51 ) ) GLOBAL_UNIT_ASSIGNED_CONTEXT ( ( #304, #302, #300 ) ) REPRESENTATION_CONTEXT ( 'NONE', 'WORKASPACE' ) );
#281 = EDGE_CURVE ( 'NONE', #233, #1, #641, .T. ) ;
#282 = VERTEX_POINT ( 'NONE', #825 ) ;
#283 =( NAMED_UNIT ( * ) PLANE_ANGLE_UNIT ( ) SI_UNIT ( $, .RADIAN. ) );
#284 =( LENGTH_UNIT ( ) NAMED_UNIT ( * ) SI_UNIT ( .MILLI., .METRE. ) );
#285 = CIRCLE ( 'NONE', #484, 20.00000000000001800 ) ;
#286 = LINE ( 'NONE', #380, #863 ) ;
#287 = SURFACE_STYLE_USAGE ( .BOTH. , #290 ) ;
#288 = UNCERTAINTY_MEASURE_WITH_UNIT (LENGTH_MEASURE( 1.000000000000000100E-005 ), #453, 'distance_accuracy_value', 'NONE');
#289 = EDGE_CURVE ( 'NONE', #498, #722, #650, .T. ) ;
#290 = SURFACE_SIDE_STYLE ('',( #678 ) ) ;
#291 = DIRECTION ( 'NONE',  ( 1.000000000000000000, -0.0000000000000000000, 0.0000000000000000000 ) ) ;
#292 = EDGE_LOOP ( 'NONE', ( #361, #176, #179, #151 ) ) ;
#293 = FILL_AREA_STYLE ('',( #295 ) ) ;
#294 = ORIENTED_EDGE ( 'NONE', *, *, #139, .T. ) ;
#295 = FILL_AREA_STYLE_COLOUR ( '', #90 ) ;
#296 = EDGE_LOOP ( 'NONE', ( #244, #227, #237, #325 ) ) ;
#297 = CIRCLE ( 'NONE', #102, 40.00000000000003600 ) ;
#298 = APPLICATION_CONTEXT ( 'automotive_design' ) ;
#299 = AXIS2_PLACEMENT_3D ( 'NONE', #538, #532, #547 ) ;
#300 =( NAMED_UNIT ( * ) SI_UNIT ( $, .STERADIAN. ) SOLID_ANGLE_UNIT ( ) );
#301 = AXIS2_PLACEMENT_3D ( 'NONE', #801, #789, #788 ) ;
#302 =( NAMED_UNIT ( * ) PLANE_ANGLE_UNIT ( ) SI_UNIT ( $, .RADIAN. ) );
#303 = ORIENTED_EDGE ( 'NONE', *, *, #515, .F. ) ;
#304 =( LENGTH_UNIT ( ) NAMED_UNIT ( * ) SI_UNIT ( .MILLI., .METRE. ) );
#305 = CARTESIAN_POINT ( 'NONE',  ( -152.2322140467687500, -387.5000000000359800, 2212.865314701718000 ) ) ;
#306 = CARTESIAN_POINT ( 'NONE',  ( 0.0000000000000000000, 0.0000000000000000000, 0.0000000000000000000 ) ) ;
#307 = LINE ( 'NONE', #318, #780 ) ;
#308 = EDGE_CURVE ( 'NONE', #209, #740, #652, .T. ) ;
#309 = AXIS2_PLACEMENT_3D ( 'NONE', #388, #385, #383 ) ;
#310 = DIRECTION ( 'NONE',  ( 0.0000000000000000000, -3.491483361109382500E-015, 1.000000000000000000 ) ) ;
#311 = EDGE_CURVE ( 'NONE', #28, #378, #671, .T. ) ;
#312 = CARTESIAN_POINT ( 'NONE',  ( -140.2327345550500000, -387.5000000000318300, 1032.846741240953600 ) ) ;
#313 = DIRECTION ( 'NONE',  ( -0.0000000000000000000, -1.000000000000000000, -3.491483361109382500E-015 ) ) ;
#314 = FACE_OUTER_BOUND ( 'NONE', #87, .T. ) ;
#315 = LINE ( 'NONE', #858, #163 ) ;
#316 = CIRCLE ( 'NONE', #309, 20.00000000000001800 ) ;
#317 = LINE ( 'NONE', #844, #566 ) ;
#318 = CARTESIAN_POINT ( 'NONE',  ( -140.2327345550500000, -360.0000000000318300, 1033.572967037159500 ) ) ;
#319 = DIRECTION ( 'NONE',  ( -0.0000000000000000000, 3.514061871351393100E-015, -1.000000000000000000 ) ) ;
#320 = ADVANCED_FACE ( 'NONE', ( #661 ), #810, .F. ) ;
#321 = CARTESIAN_POINT ( 'NONE',  ( -94.23273455505017200, -362.5000000000358700, 2184.299192833365400 ) ) ;
#322 = ADVANCED_FACE ( 'NONE', ( #677 ), #697, .T. ) ;
#323 = DIRECTION ( 'NONE',  ( 1.000000000000000000, -0.0000000000000000000, 0.0000000000000000000 ) ) ;
#324 = DIRECTION ( 'NONE',  ( -1.862479723388573700E-031, -1.000000000000000000, -3.514061871351393100E-015 ) ) ;
#325 = ORIENTED_EDGE ( 'NONE', *, *, #263, .T. ) ;
#326 = CARTESIAN_POINT ( 'NONE',  ( -142.2327345550500000, -360.0000000000318300, 1033.572967037159500 ) ) ;
#327 = DIRECTION ( 'NONE',  ( 0.0000000000000000000, -3.491483361109382500E-015, 1.000000000000000000 ) ) ;
#328 = EDGE_LOOP ( 'NONE', ( #278, #268, #205, #222, #261, #218 ) ) ;
#329 = EDGE_CURVE ( 'NONE', #740, #25, #693, .T. ) ;
#330 = CARTESIAN_POINT ( 'NONE',  ( -94.23273455505001600, -362.5000000000318300, 1033.572967037159500 ) ) ;
#331 = CARTESIAN_POINT ( 'NONE',  ( -142.2327345550500000, -390.0000000000358700, 2183.572967037160200 ) ) ;
#332 = FACE_OUTER_BOUND ( 'NONE', #684, .T. ) ;
#333 = DIRECTION ( 'NONE',  ( -1.862479723388573700E-031, -1.000000000000000000, -3.514061871351393100E-015 ) ) ;
#334 = ADVANCED_FACE ( 'NONE', ( #674 ), #711, .F. ) ;
#335 = VERTEX_POINT ( 'NONE', #755 ) ;
#336 = CARTESIAN_POINT ( 'NONE',  ( -117.2327345550501600, -360.0000000000317200, 2268.572967037159300 ) ) ;
#337 = EDGE_CURVE ( 'NONE', #7, #8, #709, .T. ) ;
#338 = DIRECTION ( 'NONE',  ( -0.0000000000000000000, -0.0000000000000000000, 1.000000000000000000 ) ) ;
#339 = ORIENTED_EDGE ( 'NONE', *, *, #602, .T. ) ;
#340 = ORIENTED_EDGE ( 'NONE', *, *, #831, .F. ) ;
#341 = ORIENTED_EDGE ( 'NONE', *, *, #478, .T. ) ;
#342 = CARTESIAN_POINT ( 'NONE',  ( -142.2327345550500000, -360.0000000000318300, 2183.572967037160200 ) ) ;
#343 = ADVANCED_FACE ( 'NONE', ( #720, #685 ), #753, .T. ) ;
#344 = EDGE_LOOP ( 'NONE', ( #160, #158, #157, #356 ) ) ;
#345 = DIRECTION ( 'NONE',  ( -0.0000000000000000000, -1.000000000000000000, 0.0000000000000000000 ) ) ;
#346 = ORIENTED_EDGE ( 'NONE', *, *, #89, .T. ) ;
#347 = CARTESIAN_POINT ( 'NONE',  ( -94.23273455505003000, -387.5000000000318300, 1032.572967037160200 ) ) ;
#348 = DIRECTION ( 'NONE',  ( 0.0000000000000000000, 1.000000000000000000, 3.491483361109382500E-015 ) ) ;
#349 = ADVANCED_FACE ( 'NONE', ( #701 ), #743, .F. ) ;
#350 = CLOSED_SHELL ( 'NONE', ( #369, #382, #407, #389, #410, #355, #415, #392, #377, #357, #368, #343, #320, #374, #379, #365, #405, #349, #412, #400, #396, #408, #334, #322, #409 ) ) ;
#351 = DIRECTION ( 'NONE',  ( -4.022390059921220800E-017, -1.000000000000000000, -3.514061871351392700E-015 ) ) ;
#352 = VERTEX_POINT ( 'NONE', #735 ) ;
#353 = CARTESIAN_POINT ( 'NONE',  ( -94.23273455505017200, -360.0000000000359800, 2183.572967037160200 ) ) ;
#354 = MECHANICAL_DESIGN_GEOMETRIC_PRESENTATION_REPRESENTATION (  '', ( #164 ), #416 ) ;
#355 = ADVANCED_FACE ( 'NONE', ( #754, #688 ), #729, .F. ) ;
#356 = ORIENTED_EDGE ( 'NONE', *, *, #41, .F. ) ;
#357 = ADVANCED_FACE ( 'NONE', ( #732, #731 ), #718, .F. ) ;
#358 = VERTEX_POINT ( 'NONE', #733 ) ;
#359 = EDGE_CURVE ( 'NONE', #85, #16, #763, .T. ) ;
#360 = CARTESIAN_POINT ( 'NONE',  ( -82.23325506333139900, -387.5000000000359800, 2212.865314701718500 ) ) ;
#361 = ORIENTED_EDGE ( 'NONE', *, *, #793, .F. ) ;
#362 = CARTESIAN_POINT ( 'NONE',  ( -152.2322140467685800, -387.5000000000359800, 2212.865314701718000 ) ) ;
#363 = SURFACE_STYLE_FILL_AREA ( #546 ) ;
#364 = AXIS2_PLACEMENT_3D ( 'NONE', #713, #704, #699 ) ;
#365 = ADVANCED_FACE ( 'NONE', ( #766 ), #714, .F. ) ;
#366 = CARTESIAN_POINT ( 'NONE',  ( -140.2327345550501400, -387.5000000000358700, 2184.572967037160700 ) ) ;
#367 = DIRECTION ( 'NONE',  ( 0.0000000000000000000, 1.000000000000000000, 3.491483361109382500E-015 ) ) ;
#368 = ADVANCED_FACE ( 'NONE', ( #774 ), #712, .F. ) ;
#369 = ADVANCED_FACE ( 'NONE', ( #775 ), #784, .T. ) ;
#370 = EDGE_CURVE ( 'NONE', #27, #159, #783, .T. ) ;
#371 = CARTESIAN_POINT ( 'NONE',  ( -92.23273455505001600, -360.0000000000354100, 2183.572967037160200 ) ) ;
#372 = CARTESIAN_POINT ( 'NONE',  ( -142.2327345550500000, -360.0000000000359800, 2183.572967037160200 ) ) ;
#373 = MECHANICAL_DESIGN_GEOMETRIC_PRESENTATION_REPRESENTATION (  '', ( #432 ), #191 ) ;
#374 = ADVANCED_FACE ( 'NONE', ( #742 ), #680, .F. ) ;
#375 = ORIENTED_EDGE ( 'NONE', *, *, #530, .T. ) ;
#376 = DIRECTION ( 'NONE',  ( -1.862479723388573700E-031, -1.000000000000000000, -3.514061871351393100E-015 ) ) ;
#377 = ADVANCED_FACE ( 'NONE', ( #756 ), #660, .F. ) ;
#378 = VERTEX_POINT ( 'NONE', #662 ) ;
#379 = ADVANCED_FACE ( 'NONE', ( #798, #786 ), #653, .F. ) ;
#380 = CARTESIAN_POINT ( 'NONE',  ( -117.2327345550501600, -360.0000000000316000, 2228.572967037159300 ) ) ;
#381 = AXIS2_PLACEMENT_3D ( 'NONE', #555, #542, #565 ) ;
#382 = ADVANCED_FACE ( 'NONE', ( #797 ), #849, .F. ) ;
#383 = DIRECTION ( 'NONE',  ( 0.0000000000000000000, 2.775557561562889000E-015, -1.000000000000000000 ) ) ;
#384 = EDGE_LOOP ( 'NONE', ( #46, #393, #294, #204 ) ) ;
#385 = DIRECTION ( 'NONE',  ( -1.862479723388573700E-031, -1.000000000000000000, -3.514061871351393100E-015 ) ) ;
#386 = EDGE_LOOP ( 'NONE', ( #250, #265, #188, #185 ) ) ;
#387 = ORIENTED_EDGE ( 'NONE', *, *, #747, .F. ) ;
#388 = CARTESIAN_POINT ( 'NONE',  ( -117.2327345550500200, -362.5000000000316000, 968.5729670371595100 ) ) ;
#389 = ADVANCED_FACE ( 'NONE', ( #865 ), #619, .F. ) ;
#390 = EDGE_LOOP ( 'NONE', ( #147, #241, #277, #178 ) ) ;
#391 = DIRECTION ( 'NONE',  ( -1.000000000000000000, -0.0000000000000000000, -0.0000000000000000000 ) ) ;
#392 = ADVANCED_FACE ( 'NONE', ( #824, #837 ), #611, .T. ) ;
#393 = ORIENTED_EDGE ( 'NONE', *, *, #793, .T. ) ;
#394 = CARTESIAN_POINT ( 'NONE',  ( -92.23273455505001600, -390.0000000000318900, 1033.572967037159500 ) ) ;
#395 = CYLINDRICAL_SURFACE ( 'NONE', #823, 40.00000000000003600 ) ;
#396 = ADVANCED_FACE ( 'NONE', ( #846 ), #590, .F. ) ;
#397 = LINE ( 'NONE', #477, #851 ) ;
#398 = PRESENTATION_LAYER_ASSIGNMENT (  '', '', ( #260 ) ) ;
#399 = DIRECTION ( 'NONE',  ( -1.862479723388573700E-031, -1.000000000000000000, -3.514061871351393100E-015 ) ) ;
#400 = ADVANCED_FACE ( 'NONE', ( #184 ), #395, .F. ) ;
#401 = EDGE_CURVE ( 'NONE', #21, #7, #220, .T. ) ;
#402 = CARTESIAN_POINT ( 'NONE',  ( -117.2327345550501600, -362.5000000000361500, 2248.572967037159300 ) ) ;
#403 = CARTESIAN_POINT ( 'NONE',  ( -142.2327345550500000, -387.5000000000358700, 2183.572967037160200 ) ) ;
#404 = EDGE_CURVE ( 'NONE', #276, #352, #271, .T. ) ;
#405 = ADVANCED_FACE ( 'NONE', ( #637, #533 ), #576, .T. ) ;
#406 = CARTESIAN_POINT ( 'NONE',  ( -117.2327345550500200, -360.0000000000271100, 948.5729670371595100 ) ) ;
#407 = ADVANCED_FACE ( 'NONE', ( #314 ), #142, .F. ) ;
#408 = ADVANCED_FACE ( 'NONE', ( #554 ), #248, .F. ) ;
#409 = ADVANCED_FACE ( 'NONE', ( #38 ), #615, .F. ) ;
#410 = ADVANCED_FACE ( 'NONE', ( #536 ), #505, .F. ) ;
#411 = CARTESIAN_POINT ( 'NONE',  ( -117.2327345550501600, -387.5000000000362700, 2298.572967037159300 ) ) ;
#412 = ADVANCED_FACE ( 'NONE', ( #332 ), #698, .T. ) ;
#413 = CARTESIAN_POINT ( 'NONE',  ( -140.2327345550501400, -362.5000000000358700, 2183.572967037160200 ) ) ;
#414 = DIRECTION ( 'NONE',  ( 1.734723475976805500E-015, -4.163336342344333100E-015, 1.000000000000000000 ) ) ;
#415 = ADVANCED_FACE ( 'NONE', ( #143 ), #491, .F. ) ;
#416 =( GEOMETRIC_REPRESENTATION_CONTEXT ( 3 ) GLOBAL_UNCERTAINTY_ASSIGNED_CONTEXT ( ( #154 ) ) GLOBAL_UNIT_ASSIGNED_CONTEXT ( ( #519, #517, #511 ) ) REPRESENTATION_CONTEXT ( 'NONE', 'WORKASPACE' ) );
#417 = DIRECTION ( 'NONE',  ( -0.0000000000000000000, -0.0000000000000000000, -1.000000000000000000 ) ) ;
#418 = CARTESIAN_POINT ( 'NONE',  ( -140.2327345550501400, -387.5000000000358700, 2183.572967037160200 ) ) ;
#419 = VERTEX_POINT ( 'NONE', #494 ) ;
#420 = DIRECTION ( 'NONE',  ( -0.0000000000000000000, 3.514061871351393100E-015, -1.000000000000000000 ) ) ;
#421 = CARTESIAN_POINT ( 'NONE',  ( -142.2327345550500000, -366.0000000000358700, 1033.572967037159500 ) ) ;
#422 = CARTESIAN_POINT ( 'NONE',  ( -94.23273455505017200, -387.5000000000358700, 2184.299192833365400 ) ) ;
#423 = CARTESIAN_POINT ( 'NONE',  ( -117.2327345550500200, -360.0000000000272300, 988.5729670371596300 ) ) ;
#424 = PRESENTATION_LAYER_ASSIGNMENT (  '', '', ( #723 ) ) ;
#425 = DIRECTION ( 'NONE',  ( 0.0000000000000000000, -3.330669073875481500E-015, 1.000000000000000000 ) ) ;
#426 = DIRECTION ( 'NONE',  ( -4.022390059921220800E-017, -1.000000000000000000, -3.514061871351392700E-015 ) ) ;
#427 = CARTESIAN_POINT ( 'NONE',  ( -54.23367146995607900, -362.5000000000359800, 2184.299192833365400 ) ) ;
#428 = CARTESIAN_POINT ( 'NONE',  ( -142.2327345550500000, -387.5000000000318300, 1033.572967037159500 ) ) ;
#429 = EDGE_CURVE ( 'NONE', #177, #264, #480, .T. ) ;
#430 = UNCERTAINTY_MEASURE_WITH_UNIT (LENGTH_MEASURE( 1.000000000000000100E-005 ), #488, 'distance_accuracy_value', 'NONE');
#431 = DIRECTION ( 'NONE',  ( -1.862479723388573700E-031, -1.000000000000000000, -3.514061871351393100E-015 ) ) ;
#432 = STYLED_ITEM ( 'NONE', ( #582 ), #479 ) ;
#433 = DIRECTION ( 'NONE',  ( 4.022390059921220800E-017, 1.000000000000000000, 3.514061871351392700E-015 ) ) ;
#434 = CARTESIAN_POINT ( 'NONE',  ( -117.2327345550501600, -387.5000000000361000, 2248.572967037159300 ) ) ;
#435 = CARTESIAN_POINT ( 'NONE',  ( -140.2327345550500000, -362.5000000000318300, 1032.572967037159300 ) ) ;
#436 = CARTESIAN_POINT ( 'NONE',  ( -94.23273455505003000, -362.5000000000318300, 1032.572967037159300 ) ) ;
#437 = AXIS2_PLACEMENT_3D ( 'NONE', #548, #534, #529 ) ;
#438 = DIRECTION ( 'NONE',  ( -0.0000000000000000000, 3.491483361109382500E-015, -1.000000000000000000 ) ) ;
#439 = DIRECTION ( 'NONE',  ( -0.0000000000000000000, -0.0000000000000000000, 1.000000000000000000 ) ) ;
#440 = VECTOR ( 'NONE', #567, 1000.000000000000000 ) ;
#441 = DIRECTION ( 'NONE',  ( 0.0000000000000000000, -3.330669073875481500E-015, 1.000000000000000000 ) ) ;
#442 = VECTOR ( 'NONE', #470, 1000.000000000000000 ) ;
#443 = DIRECTION ( 'NONE',  ( 4.022390059921220800E-017, 1.000000000000000000, 3.514061871351392700E-015 ) ) ;
#444 = CARTESIAN_POINT ( 'NONE',  ( -117.2327345550501600, -362.5000000000362100, 2248.572967037159300 ) ) ;
#445 = ORIENTED_EDGE ( 'NONE', *, *, #404, .F. ) ;
#446 = DIRECTION ( 'NONE',  ( 0.0000000000000000000, 1.000000000000000000, 0.0000000000000000000 ) ) ;
#447 = MECHANICAL_DESIGN_GEOMETRIC_PRESENTATION_REPRESENTATION (  '', ( #260 ), #476 ) ;
#448 = EDGE_CURVE ( 'NONE', #177, #352, #397, .T. ) ;
#449 = CARTESIAN_POINT ( 'NONE',  ( -92.23273455505001600, -390.0000000000358700, 2183.572967037160200 ) ) ;
#450 = EDGE_CURVE ( 'NONE', #194, #209, #19, .T. ) ;
#451 =( NAMED_UNIT ( * ) SI_UNIT ( $, .STERADIAN. ) SOLID_ANGLE_UNIT ( ) );
#452 =( NAMED_UNIT ( * ) PLANE_ANGLE_UNIT ( ) SI_UNIT ( $, .RADIAN. ) );
#453 =( LENGTH_UNIT ( ) NAMED_UNIT ( * ) SI_UNIT ( .MILLI., .METRE. ) );
#454 = SURFACE_STYLE_USAGE ( .BOTH. , #455 ) ;
#455 = SURFACE_SIDE_STYLE ('',( #507 ) ) ;
#456 = LINE ( 'NONE', #776, #570 ) ;
#457 = DIRECTION ( 'NONE',  ( -1.249000902703300000E-014, -4.163336342344333100E-015, 1.000000000000000000 ) ) ;
#458 = AXIS2_PLACEMENT_3D ( 'NONE', #475, #473, #472 ) ;
#459 = DIRECTION ( 'NONE',  ( -0.0000000000000000000, -1.000000000000000000, -3.491483361109382100E-015 ) ) ;
#460 = LINE ( 'NONE', #362, #836 ) ;
#461 = CARTESIAN_POINT ( 'NONE',  ( -180.2317976401440900, -362.5000000000318300, 1032.846741240953600 ) ) ;
#462 = CARTESIAN_POINT ( 'NONE',  ( -142.2327345550500000, -360.0000000000336500, 2183.572967037160200 ) ) ;
#463 = FILL_AREA_STYLE_COLOUR ( '', #848 ) ;
#464 = FILL_AREA_STYLE ('',( #463 ) ) ;
#465 = EDGE_CURVE ( 'NONE', #225, #194, #273, .T. ) ;
#466 = DIRECTION ( 'NONE',  ( -1.000000000000000000, 0.0000000000000000000, -0.0000000000000000000 ) ) ;
#467 = DIRECTION ( 'NONE',  ( 0.0000000000000000000, 0.0000000000000000000, 1.000000000000000000 ) ) ;
#468 = AXIS2_PLACEMENT_3D ( 'NONE', #706, #691, #690 ) ;
#469 = CARTESIAN_POINT ( 'NONE',  ( -142.2327345550500000, -362.5000000000358700, 2183.572967037160200 ) ) ;
#470 = DIRECTION ( 'NONE',  ( -0.0000000000000000000, -1.000000000000000000, -3.491483361109382500E-015 ) ) ;
#471 = DIRECTION ( 'NONE',  ( 0.0000000000000000000, -3.330669073875466900E-015, 1.000000000000000000 ) ) ;
#472 = DIRECTION ( 'NONE',  ( 0.0000000000000000000, -3.330669073875481500E-015, 1.000000000000000000 ) ) ;
#473 = DIRECTION ( 'NONE',  ( 4.022390059921220800E-017, 1.000000000000000000, 3.514061871351392700E-015 ) ) ;
#474 = CARTESIAN_POINT ( 'NONE',  ( -117.2327345550500200, -387.5000000000316000, 968.5729670371594000 ) ) ;
#475 = CARTESIAN_POINT ( 'NONE',  ( -117.2327345550501600, -387.5000000000361000, 2248.572967037159300 ) ) ;
#476 =( GEOMETRIC_REPRESENTATION_CONTEXT ( 3 ) GLOBAL_UNCERTAINTY_ASSIGNED_CONTEXT ( ( #813 ) ) GLOBAL_UNIT_ASSIGNED_CONTEXT ( ( #284, #283, #279 ) ) REPRESENTATION_CONTEXT ( 'NONE', 'WORKASPACE' ) );
#477 = CARTESIAN_POINT ( 'NONE',  ( -117.2327345550501600, -387.5000000000362700, 2298.572967037159300 ) ) ;
#478 = EDGE_CURVE ( 'NONE', #32, #12, #297, .T. ) ;
#479 = MANIFOLD_SOLID_BREP ( 'Cut-Extrude1', #350 ) ;
#480 = CIRCLE ( 'NONE', #458, 49.99999999999982200 ) ;
#481 = CARTESIAN_POINT ( 'NONE',  ( -140.2327345550501400, -360.0000000000359800, 2183.572967037160200 ) ) ;
#482 = SHAPE_DEFINITION_REPRESENTATION ( #196, #840 ) ;
#483 = DIRECTION ( 'NONE',  ( 4.022390059921220800E-017, 1.000000000000000000, 3.514061871351392700E-015 ) ) ;
#484 = AXIS2_PLACEMENT_3D ( 'NONE', #818, #758, #866 ) ;
#485 = DIRECTION ( 'NONE',  ( 0.0000000000000000000, 0.0000000000000000000, -1.000000000000000000 ) ) ;
#486 = SURFACE_SIDE_STYLE ('',( #781 ) ) ;
#487 = SURFACE_STYLE_USAGE ( .BOTH. , #486 ) ;
#488 =( LENGTH_UNIT ( ) NAMED_UNIT ( * ) SI_UNIT ( .MILLI., .METRE. ) );
#489 = DIRECTION ( 'NONE',  ( 1.000000000000000000, -0.0000000000000000000, 0.0000000000000000000 ) ) ;
#490 = LINE ( 'NONE', #757, #638 ) ;
#491 = PLANE ( 'NONE',  #60 ) ;
#492 = VECTOR ( 'NONE', #417, 1000.000000000000000 ) ;
#493 = EDGE_CURVE ( 'NONE', #352, #26, #621, .T. ) ;
#494 = CARTESIAN_POINT ( 'NONE',  ( -117.2327345550500200, -362.5000000000316600, 988.5729670371596300 ) ) ;
#495 = CARTESIAN_POINT ( 'NONE',  ( -142.2327345550500000, -366.0000000000358700, 2183.572967037160200 ) ) ;
#496 = AXIS2_PLACEMENT_3D ( 'NONE', #679, #676, #670 ) ;
#497 = CARTESIAN_POINT ( 'NONE',  ( -117.2327345550501600, -387.5000000000361000, 2248.572967037159300 ) ) ;
#498 = VERTEX_POINT ( 'NONE', #462 ) ;
#499 = DIRECTION ( 'NONE',  ( 0.0000000000000000000, 1.000000000000000000, 3.491483361109382100E-015 ) ) ;
#500 = AXIS2_PLACEMENT_3D ( 'NONE', #805, #812, #796 ) ;
#501 = DIRECTION ( 'NONE',  ( 5.782411586589356700E-016, -1.000000000000000000, 0.0000000000000000000 ) ) ;
#502 = DIRECTION ( 'NONE',  ( 1.000000000000000000, -0.0000000000000000000, 0.0000000000000000000 ) ) ;
#503 = DIRECTION ( 'NONE',  ( -1.000000000000000000, -5.782411586589356700E-016, -2.018919384166284200E-030 ) ) ;
#504 = DIRECTION ( 'NONE',  ( 0.0000000000000000000, -3.330669073875481500E-015, 1.000000000000000000 ) ) ;
#505 = PLANE ( 'NONE',  #622 ) ;
#506 = AXIS2_PLACEMENT_3D ( 'NONE', #800, #794, #791 ) ;
#507 = SURFACE_STYLE_FILL_AREA ( #464 ) ;
#508 = DIRECTION ( 'NONE',  ( 4.022390059921220800E-017, 1.000000000000000000, 3.514061871351392700E-015 ) ) ;
#509 = DIRECTION ( 'NONE',  ( 0.0000000000000000000, 2.775557561562889000E-015, -1.000000000000000000 ) ) ;
#510 = CARTESIAN_POINT ( 'NONE',  ( -117.2327345550501600, -362.5000000000361000, 2228.572967037159300 ) ) ;
#511 =( NAMED_UNIT ( * ) SI_UNIT ( $, .STERADIAN. ) SOLID_ANGLE_UNIT ( ) );
#512 = CARTESIAN_POINT ( 'NONE',  ( -94.23273455505003000, -362.5000000000318300, 1032.572967037157000 ) ) ;
#513 = DIRECTION ( 'NONE',  ( 0.0000000000000000000, 2.775557561562889000E-015, -1.000000000000000000 ) ) ;
#514 = LINE ( 'NONE', #394, #212 ) ;
#515 = EDGE_CURVE ( 'NONE', #1, #16, #595, .T. ) ;
#516 = CARTESIAN_POINT ( 'NONE',  ( -140.2327345550500000, -387.5000000000318300, 1032.572967037157900 ) ) ;
#517 =( NAMED_UNIT ( * ) PLANE_ANGLE_UNIT ( ) SI_UNIT ( $, .RADIAN. ) );
#518 = MECHANICAL_DESIGN_GEOMETRIC_PRESENTATION_REPRESENTATION (  '', ( #723 ), #787 ) ;
#519 =( LENGTH_UNIT ( ) NAMED_UNIT ( * ) SI_UNIT ( .MILLI., .METRE. ) );
#520 = SURFACE_STYLE_USAGE ( .BOTH. , #521 ) ;
#521 = SURFACE_SIDE_STYLE ('',( #785 ) ) ;
#522 = FILL_AREA_STYLE ('',( #531 ) ) ;
#523 = CARTESIAN_POINT ( 'NONE',  ( -92.23273455505001600, -360.0000000000359800, 2183.572967037160200 ) ) ;
#524 = DIRECTION ( 'NONE',  ( -1.862479723388573700E-031, -1.000000000000000000, -3.514061871351393100E-015 ) ) ;
#525 = CARTESIAN_POINT ( 'NONE',  ( -117.2327345550501600, -387.5000000000361000, 2248.572967037159300 ) ) ;
#526 = CARTESIAN_POINT ( 'NONE',  ( -117.2327345550500200, -360.0000000000271700, 968.5729670371595100 ) ) ;
#527 = AXIS2_PLACEMENT_3D ( 'NONE', #526, #524, #509 ) ;
#528 = CARTESIAN_POINT ( 'NONE',  ( -152.2322140467689500, -387.5000000000317200, 1004.280619372600700 ) ) ;
#529 = DIRECTION ( 'NONE',  ( 0.0000000000000000000, 2.775557561562889000E-015, -1.000000000000000000 ) ) ;
#530 = EDGE_CURVE ( 'NONE', #25, #177, #59, .T. ) ;
#531 = FILL_AREA_STYLE_COLOUR ( '', #211 ) ;
#532 = DIRECTION ( 'NONE',  ( 0.0000000000000000000, 1.000000000000000000, 3.491483361109382100E-015 ) ) ;
#533 = FACE_BOUND ( 'NONE', #35, .T. ) ;
#534 = DIRECTION ( 'NONE',  ( -1.862479723388573700E-031, -1.000000000000000000, -3.514061871351393100E-015 ) ) ;
#535 = AXIS2_PLACEMENT_3D ( 'NONE', #9, #5, #3 ) ;
#536 = FACE_OUTER_BOUND ( 'NONE', #344, .T. ) ;
#537 = ORIENTED_EDGE ( 'NONE', *, *, #239, .T. ) ;
#538 = CARTESIAN_POINT ( 'NONE',  ( -54.23367146995593700, -387.5000000000318300, 1032.846741240953600 ) ) ;
#539 = DIRECTION ( 'NONE',  ( 0.0000000000000000000, 2.775557561562889000E-015, -1.000000000000000000 ) ) ;
#540 =( NAMED_UNIT ( * ) SI_UNIT ( $, .STERADIAN. ) SOLID_ANGLE_UNIT ( ) );
#541 =( NAMED_UNIT ( * ) PLANE_ANGLE_UNIT ( ) SI_UNIT ( $, .RADIAN. ) );
#542 = DIRECTION ( 'NONE',  ( 0.0000000000000000000, 1.000000000000000000, 3.491483361109382100E-015 ) ) ;
#543 =( LENGTH_UNIT ( ) NAMED_UNIT ( * ) SI_UNIT ( .MILLI., .METRE. ) );
#544 = SURFACE_STYLE_USAGE ( .BOTH. , #545 ) ;
#545 = SURFACE_SIDE_STYLE ('',( #363 ) ) ;
#546 = FILL_AREA_STYLE ('',( #574 ) ) ;
#547 = DIRECTION ( 'NONE',  ( 0.0000000000000000000, -4.163336342344333100E-015, 1.000000000000000000 ) ) ;
#548 = CARTESIAN_POINT ( 'NONE',  ( -117.2327345550501600, -387.5000000000361000, 2248.572967037159300 ) ) ;
#549 = AXIS2_PLACEMENT_3D ( 'NONE', #643, #655, #633 ) ;
#550 = CARTESIAN_POINT ( 'NONE',  ( -117.2327345550500200, -360.0000000000271700, 968.5729670371595100 ) ) ;
#551 = DIRECTION ( 'NONE',  ( 0.0000000000000000000, -3.491483361109382500E-015, 1.000000000000000000 ) ) ;
#552 = DIRECTION ( 'NONE',  ( -0.0000000000000000000, 1.000000000000000000, 3.491483361109382500E-015 ) ) ;
#553 = CIRCLE ( 'NONE', #681, 40.00000000000003600 ) ;
#554 = FACE_OUTER_BOUND ( 'NONE', #386, .T. ) ;
#555 = CARTESIAN_POINT ( 'NONE',  ( -117.2327345550500200, -362.5000000000316000, 968.5729670371595100 ) ) ;
#556 = LINE ( 'NONE', #331, #695 ) ;
#557 = EDGE_LOOP ( 'NONE', ( #161, #246 ) ) ;
#558 = DIRECTION ( 'NONE',  ( 0.0000000000000000000, -3.330669073875481500E-015, 1.000000000000000000 ) ) ;
#559 = DIRECTION ( 'NONE',  ( 4.022390059921220800E-017, 1.000000000000000000, 3.514061871351392700E-015 ) ) ;
#560 = EDGE_CURVE ( 'NONE', #12, #8, #79, .T. ) ;
#561 = CARTESIAN_POINT ( 'NONE',  ( -117.2327345550501600, -362.5000000000362100, 2248.572967037159300 ) ) ;
#562 = CARTESIAN_POINT ( 'NONE',  ( -180.2317976401440900, -362.5000000000318300, 1032.846741240953900 ) ) ;
#563 = AXIS2_PLACEMENT_3D ( 'NONE', #761, #760, #759 ) ;
#564 = DIRECTION ( 'NONE',  ( -1.862479723388573700E-031, -1.000000000000000000, -3.514061871351393100E-015 ) ) ;
#565 = DIRECTION ( 'NONE',  ( 0.0000000000000000000, -3.330669073875474000E-015, 1.000000000000000000 ) ) ;
#566 = VECTOR ( 'NONE', #628, 1000.000000000000000 ) ;
#567 = DIRECTION ( 'NONE',  ( 0.0000000000000000000, 1.000000000000000000, 3.491483361109382500E-015 ) ) ;
#568 = CARTESIAN_POINT ( 'NONE',  ( -94.23273455505001600, -360.0000000000318300, 1033.572967037159500 ) ) ;
#569 = DIRECTION ( 'NONE',  ( -0.0000000000000000000, -1.000000000000000000, -3.491483361109382100E-015 ) ) ;
#570 = VECTOR ( 'NONE', #752, 1000.000000000000000 ) ;
#571 = LINE ( 'NONE', #312, #730 ) ;
#572 = LINE ( 'NONE', #672, #579 ) ;
#573 = CIRCLE ( 'NONE', #381, 49.99999999999993600 ) ;
#574 = FILL_AREA_STYLE_COLOUR ( '', #229 ) ;
#575 = AXIS2_PLACEMENT_3D ( 'NONE', #689, #696, #692 ) ;
#576 = PLANE ( 'NONE',  #856 ) ;
#577 = DIRECTION ( 'NONE',  ( 4.022390059921220800E-017, 1.000000000000000000, 3.514061871351392700E-015 ) ) ;
#578 = AXIS2_PLACEMENT_3D ( 'NONE', #751, #728, #727 ) ;
#579 = VECTOR ( 'NONE', #623, 1000.000000000000000 ) ;
#580 = CARTESIAN_POINT ( 'NONE',  ( -180.2317976401442400, -387.5000000000358700, 2184.299192833364900 ) ) ;
#581 = CIRCLE ( 'NONE', #654, 50.00000000000004300 ) ;
#582 = PRESENTATION_STYLE_ASSIGNMENT (( #454 ) ) ;
#583 = CIRCLE ( 'NONE', #850, 20.00000000000001800 ) ;
#584 = DIRECTION ( 'NONE',  ( 0.0000000000000000000, 2.775557561562889000E-015, -1.000000000000000000 ) ) ;
#585 = AXIS2_PLACEMENT_3D ( 'NONE', #632, #642, #614 ) ;
#586 =( NAMED_UNIT ( * ) SI_UNIT ( $, .STERADIAN. ) SOLID_ANGLE_UNIT ( ) );
#587 =( NAMED_UNIT ( * ) PLANE_ANGLE_UNIT ( ) SI_UNIT ( $, .RADIAN. ) );
#588 =( LENGTH_UNIT ( ) NAMED_UNIT ( * ) SI_UNIT ( .MILLI., .METRE. ) );
#589 = VECTOR ( 'NONE', #324, 1000.000000000000000 ) ;
#590 = CYLINDRICAL_SURFACE ( 'NONE', #778, 20.00000000000001800 ) ;
#591 = SURFACE_STYLE_USAGE ( .BOTH. , #597 ) ;
#592 = LINE ( 'NONE', #528, #605 ) ;
#593 = CARTESIAN_POINT ( 'NONE',  ( -142.2327345550500000, -360.0000000000318300, 1033.572967037159500 ) ) ;
#594 = CIRCLE ( 'NONE', #705, 40.00000000000003600 ) ;
#595 = LINE ( 'NONE', #449, #687 ) ;
#596 = DIRECTION ( 'NONE',  ( -3.469446951953611000E-015, -4.163336342344333100E-015, 1.000000000000000000 ) ) ;
#597 = SURFACE_SIDE_STYLE ('',( #854 ) ) ;
#598 = DIRECTION ( 'NONE',  ( 0.0000000000000000000, -4.163336342344333100E-015, 1.000000000000000000 ) ) ;
#599 = DIRECTION ( 'NONE',  ( -1.862479723388573700E-031, -1.000000000000000000, -3.514061871351393100E-015 ) ) ;
#600 = AXIS2_PLACEMENT_3D ( 'NONE', #306, #274, #272 ) ;
#601 = CARTESIAN_POINT ( 'NONE',  ( -117.2327345550501600, -360.0000000000316600, 2248.572967037159300 ) ) ;
#602 = EDGE_CURVE ( 'NONE', #53, #252, #675, .T. ) ;
#603 = FILL_AREA_STYLE_COLOUR ( '', #18 ) ;
#604 = DIRECTION ( 'NONE',  ( 0.0000000000000000000, 1.000000000000000000, 3.491483361109382500E-015 ) ) ;
#605 = VECTOR ( 'NONE', #499, 1000.000000000000000 ) ;
#606 = FILL_AREA_STYLE ('',( #603 ) ) ;
#607 = LINE ( 'NONE', #428, #617 ) ;
#608 = CIRCLE ( 'NONE', #815, 20.00000000000001800 ) ;
#609 = AXIS2_PLACEMENT_3D ( 'NONE', #782, #802, #808 ) ;
#610 = CIRCLE ( 'NONE', #535, 20.00000000000001800 ) ;
#611 = PLANE ( 'NONE',  #635 ) ;
#612 = CARTESIAN_POINT ( 'NONE',  ( -54.23367146995593700, -387.5000000000318300, 1032.846741240953600 ) ) ;
#613 = CARTESIAN_POINT ( 'NONE',  ( -142.2327345550500000, -360.0000000000318300, 1033.572967037159500 ) ) ;
#614 = DIRECTION ( 'NONE',  ( 0.0000000000000000000, -3.491483361109382500E-015, 1.000000000000000000 ) ) ;
#615 = CYLINDRICAL_SURFACE ( 'NONE', #527, 20.00000000000001800 ) ;
#616 = DIRECTION ( 'NONE',  ( 0.0000000000000000000, 3.491483361109382500E-015, -1.000000000000000000 ) ) ;
#617 = VECTOR ( 'NONE', #502, 1000.000000000000000 ) ;
#618 = LINE ( 'NONE', #403, #625 ) ;
#619 = PLANE ( 'NONE',  #585 ) ;
#620 = CIRCLE ( 'NONE', #624, 20.00000000000001800 ) ;
#621 = CIRCLE ( 'NONE', #219, 49.99999999999982200 ) ;
#622 = AXIS2_PLACEMENT_3D ( 'NONE', #523, #503, #501 ) ;
#623 = DIRECTION ( 'NONE',  ( -4.022390059921258400E-017, -1.000000000000000000, -0.0000000000000000000 ) ) ;
#624 = AXIS2_PLACEMENT_3D ( 'NONE', #65, #30, #58 ) ;
#625 = VECTOR ( 'NONE', #291, 1000.000000000000000 ) ;
#626 = LINE ( 'NONE', #372, #121 ) ;
#627 = CIRCLE ( 'NONE', #834, 40.00000000000003600 ) ;
#628 = DIRECTION ( 'NONE',  ( -5.782411586589356700E-016, 1.000000000000000000, -0.0000000000000000000 ) ) ;
#629 = VECTOR ( 'NONE', #820, 1000.000000000000000 ) ;
#630 = AXIS2_PLACEMENT_3D ( 'NONE', #738, #737, #739 ) ;
#631 = LINE ( 'NONE', #830, #647 ) ;
#632 = CARTESIAN_POINT ( 'NONE',  ( -92.23273455505001600, -390.0000000000358700, 2183.572967037160200 ) ) ;
#633 = DIRECTION ( 'NONE',  ( 0.0000000000000000000, 2.775557561562889000E-015, -1.000000000000000000 ) ) ;
#634 =( NAMED_UNIT ( * ) SI_UNIT ( $, .STERADIAN. ) SOLID_ANGLE_UNIT ( ) );
#635 = AXIS2_PLACEMENT_3D ( 'NONE', #613, #616, #604 ) ;
#636 =( NAMED_UNIT ( * ) PLANE_ANGLE_UNIT ( ) SI_UNIT ( $, .RADIAN. ) );
#637 = FACE_OUTER_BOUND ( 'NONE', #226, .T. ) ;
#638 = VECTOR ( 'NONE', #852, 1000.000000000000000 ) ;
#639 = FILL_AREA_STYLE ('',( #658 ) ) ;
#640 = CIRCLE ( 'NONE', #171, 40.00000000000003600 ) ;
#641 = LINE ( 'NONE', #821, #629 ) ;
#642 = DIRECTION ( 'NONE',  ( -0.0000000000000000000, 1.000000000000000000, 3.491483361109382500E-015 ) ) ;
#643 = CARTESIAN_POINT ( 'NONE',  ( -117.2327345550501600, -360.0000000000316600, 2248.572967037159300 ) ) ;
#644 = DIRECTION ( 'NONE',  ( 0.0000000000000000000, -3.491483361109382500E-015, 1.000000000000000000 ) ) ;
#645 = EDGE_CURVE ( 'NONE', #7, #173, #651, .T. ) ;
#646 = PRODUCT_DEFINITION ( 'UNKNOWN', '', #700, #702 ) ;
#647 = VECTOR ( 'NONE', #29, 1000.000000000000000 ) ;
#648 = DIRECTION ( 'NONE',  ( -0.0000000000000000000, 1.000000000000000000, 3.491483361109382500E-015 ) ) ;
#649 = EDGE_CURVE ( 'NONE', #358, #28, #133, .T. ) ;
#650 = LINE ( 'NONE', #819, #664 ) ;
#651 = LINE ( 'NONE', #436, #492 ) ;
#652 = LINE ( 'NONE', #816, #663 ) ;
#653 = PLANE ( 'NONE',  #769 ) ;
#654 = AXIS2_PLACEMENT_3D ( 'NONE', #474, #256, #471 ) ;
#655 = DIRECTION ( 'NONE',  ( -1.862479723388573700E-031, -1.000000000000000000, -3.514061871351393100E-015 ) ) ;
#656 = CARTESIAN_POINT ( 'NONE',  ( -180.2317976401440900, -387.5000000000318300, 1032.846741240953600 ) ) ;
#657 = DIRECTION ( 'NONE',  ( 0.0000000000000000000, 3.491483361109382500E-015, -1.000000000000000000 ) ) ;
#658 = FILL_AREA_STYLE_COLOUR ( '', #806 ) ;
#659 = VECTOR ( 'NONE', #439, 1000.000000000000000 ) ;
#660 = PLANE ( 'NONE',  #673 ) ;
#661 = FACE_OUTER_BOUND ( 'NONE', #44, .T. ) ;
#662 = CARTESIAN_POINT ( 'NONE',  ( -117.2327345550500200, -387.5000000000316600, 988.5729670371595100 ) ) ;
#663 = VECTOR ( 'NONE', #811, 1000.000000000000000 ) ;
#664 = VECTOR ( 'NONE', #814, 1000.000000000000000 ) ;
#665 = CARTESIAN_POINT ( 'NONE',  ( -142.2327345550500000, -360.0000000000359800, 2183.572967037160200 ) ) ;
#666 = DIRECTION ( 'NONE',  ( 0.0000000000000000000, 0.0000000000000000000, 1.000000000000000000 ) ) ;
#667 = EDGE_CURVE ( 'NONE', #419, #358, #316, .T. ) ;
#668 = CARTESIAN_POINT ( 'NONE',  ( -94.23273455505003000, -387.5000000000318300, 1033.572967037159500 ) ) ;
#669 = DIRECTION ( 'NONE',  ( -1.000000000000000000, 0.0000000000000000000, 0.0000000000000000000 ) ) ;
#670 = DIRECTION ( 'NONE',  ( -6.938893903907222500E-016, -4.163336342344333100E-015, 1.000000000000000000 ) ) ;
#671 = CIRCLE ( 'NONE', #506, 20.00000000000001800 ) ;
#672 = CARTESIAN_POINT ( 'NONE',  ( -140.2327345550501400, -387.5000000000358700, 2184.572967037157900 ) ) ;
#673 = AXIS2_PLACEMENT_3D ( 'NONE', #665, #683, #657 ) ;
#674 = FACE_OUTER_BOUND ( 'NONE', #43, .T. ) ;
#675 = LINE ( 'NONE', #422, #230 ) ;
#676 = DIRECTION ( 'NONE',  ( -0.0000000000000000000, -1.000000000000000000, -3.491483361109382100E-015 ) ) ;
#677 = FACE_OUTER_BOUND ( 'NONE', #296, .T. ) ;
#678 = SURFACE_STYLE_FILL_AREA ( #293 ) ;
#679 = CARTESIAN_POINT ( 'NONE',  ( -180.2317976401440900, -387.5000000000318300, 1032.846741240953600 ) ) ;
#680 = PLANE ( 'NONE',  #799 ) ;
#681 = AXIS2_PLACEMENT_3D ( 'NONE', #612, #569, #596 ) ;
#682 = CARTESIAN_POINT ( 'NONE',  ( -94.23273455505003000, -387.5000000000318300, 1032.572967037159300 ) ) ;
#683 = DIRECTION ( 'NONE',  ( 0.0000000000000000000, -1.000000000000000000, -3.491483361109382500E-015 ) ) ;
#684 = EDGE_LOOP ( 'NONE', ( #216, #210, #207, #235 ) ) ;
#685 = FACE_BOUND ( 'NONE', #72, .T. ) ;
#686 = MECHANICAL_DESIGN_GEOMETRIC_PRESENTATION_REPRESENTATION (  '', ( #15 ), #715 ) ;
#687 = VECTOR ( 'NONE', #438, 1000.000000000000000 ) ;
#688 = FACE_BOUND ( 'NONE', #83, .T. ) ;
#689 = CARTESIAN_POINT ( 'NONE',  ( -117.2327345550501600, -387.5000000000361000, 2248.572967037159300 ) ) ;
#690 = DIRECTION ( 'NONE',  ( 4.022390059921258400E-017, 1.000000000000000000, 0.0000000000000000000 ) ) ;
#691 = DIRECTION ( 'NONE',  ( 1.000000000000000000, -4.022390059921258400E-017, -4.465750058547938700E-033 ) ) ;
#692 = DIRECTION ( 'NONE',  ( 0.0000000000000000000, -3.330669073875481500E-015, 1.000000000000000000 ) ) ;
#693 = CIRCLE ( 'NONE', #563, 40.00000000000003600 ) ;
#694 = EDGE_CURVE ( 'NONE', #67, #168, #259, .T. ) ;
#695 = VECTOR ( 'NONE', #327, 1000.000000000000000 ) ;
#696 = DIRECTION ( 'NONE',  ( 4.022390059921220800E-017, 1.000000000000000000, 3.514061871351392700E-015 ) ) ;
#697 = CYLINDRICAL_SURFACE ( 'NONE', #609, 50.00000000000004300 ) ;
#698 = CYLINDRICAL_SURFACE ( 'NONE', #175, 49.99999999999982200 ) ;
#699 = DIRECTION ( 'NONE',  ( 0.0000000000000000000, 0.0000000000000000000, -1.000000000000000000 ) ) ;
#700 = PRODUCT_DEFINITION_FORMATION_WITH_SPECIFIED_SOURCE ( 'ANY', '', #803, .NOT_KNOWN. ) ;
#701 = FACE_OUTER_BOUND ( 'NONE', #390, .T. ) ;
#702 = PRODUCT_DEFINITION_CONTEXT ( 'detailed design', #266, 'design' ) ;
#703 = EDGE_CURVE ( 'NONE', #167, #23, #286, .T. ) ;
#704 = DIRECTION ( 'NONE',  ( 1.000000000000000000, -0.0000000000000000000, 0.0000000000000000000 ) ) ;
#705 = AXIS2_PLACEMENT_3D ( 'NONE', #427, #426, #414 ) ;
#706 = CARTESIAN_POINT ( 'NONE',  ( -140.2327345550501400, -387.5000000000358700, 2184.572967037159300 ) ) ;
#707 = VECTOR ( 'NONE', #792, 1000.000000000000000 ) ;
#708 = DIRECTION ( 'NONE',  ( 5.782411586589356700E-016, -1.000000000000000000, 0.0000000000000000000 ) ) ;
#709 = LINE ( 'NONE', #771, #719 ) ;
#710 = VECTOR ( 'NONE', #319, 1000.000000000000000 ) ;
#711 = CYLINDRICAL_SURFACE ( 'NONE', #22, 40.00000000000003600 ) ;
#712 = PLANE ( 'NONE',  #468 ) ;
#713 = CARTESIAN_POINT ( 'NONE',  ( -140.2327345550500000, -387.5000000000318300, 1032.572967037159300 ) ) ;
#714 = PLANE ( 'NONE',  #364 ) ;
#715 =( GEOMETRIC_REPRESENTATION_CONTEXT ( 3 ) GLOBAL_UNCERTAINTY_ASSIGNED_CONTEXT ( ( #240 ) ) GLOBAL_UNIT_ASSIGNED_CONTEXT ( ( #588, #587, #586 ) ) REPRESENTATION_CONTEXT ( 'NONE', 'WORKASPACE' ) );
#716 = DIRECTION ( 'NONE',  ( 0.0000000000000000000, -3.514061871351393100E-015, 1.000000000000000000 ) ) ;
#717 = EDGE_CURVE ( 'NONE', #233, #498, #626, .T. ) ;
#718 = PLANE ( 'NONE',  #80 ) ;
#719 = VECTOR ( 'NONE', #750, 1000.000000000000000 ) ;
#720 = FACE_OUTER_BOUND ( 'NONE', #48, .T. ) ;
#721 = CARTESIAN_POINT ( 'NONE',  ( -152.2322140467690000, -362.5000000000317200, 1004.280619372600800 ) ) ;
#722 = VERTEX_POINT ( 'NONE', #371 ) ;
#723 = STYLED_ITEM ( 'NONE', ( #795 ), #382 ) ;
#724 = CARTESIAN_POINT ( 'NONE',  ( -54.23367146995607900, -387.5000000000358700, 2184.299192833365400 ) ) ;
#725 = CARTESIAN_POINT ( 'NONE',  ( -92.23273455505001600, -360.0000000000359800, 1033.572967037159500 ) ) ;
#726 = UNCERTAINTY_MEASURE_WITH_UNIT (LENGTH_MEASURE( 1.000000000000000100E-005 ), #543, 'distance_accuracy_value', 'NONE');
#727 = DIRECTION ( 'NONE',  ( 0.0000000000000000000, 1.000000000000000000, 3.491483361109382500E-015 ) ) ;
#728 = DIRECTION ( 'NONE',  ( 0.0000000000000000000, 3.491483361109382500E-015, -1.000000000000000000 ) ) ;
#729 = PLANE ( 'NONE',  #578 ) ;
#730 = VECTOR ( 'NONE', #310, 1000.000000000000000 ) ;
#731 = FACE_BOUND ( 'NONE', #40, .T. ) ;
#732 = FACE_OUTER_BOUND ( 'NONE', #42, .T. ) ;
#733 = CARTESIAN_POINT ( 'NONE',  ( -117.2327345550500200, -362.5000000000315500, 948.5729670371595100 ) ) ;
#734 = AXIS2_PLACEMENT_3D ( 'NONE', #561, #559, #558 ) ;
#735 = CARTESIAN_POINT ( 'NONE',  ( -117.2327345550501600, -362.5000000000363200, 2298.572967037159300 ) ) ;
#736 = DIRECTION ( 'NONE',  ( 1.862479723388573500E-031, 1.000000000000000000, 3.514061871351393100E-015 ) ) ;
#737 = DIRECTION ( 'NONE',  ( 4.022390059921220800E-017, 1.000000000000000000, 3.514061871351392700E-015 ) ) ;
#738 = CARTESIAN_POINT ( 'NONE',  ( -54.23367146995607900, -387.5000000000358700, 2184.299192833365400 ) ) ;
#739 = DIRECTION ( 'NONE',  ( 0.0000000000000000000, -4.163336342344333100E-015, 1.000000000000000000 ) ) ;
#740 = VERTEX_POINT ( 'NONE', #366 ) ;
#741 = DIRECTION ( 'NONE',  ( 0.0000000000000000000, -3.514061871351393100E-015, 1.000000000000000000 ) ) ;
#742 = FACE_OUTER_BOUND ( 'NONE', #34, .T. ) ;
#743 = CYLINDRICAL_SURFACE ( 'NONE', #630, 40.00000000000003600 ) ;
#744 = LINE ( 'NONE', #347, #807 ) ;
#745 = DIRECTION ( 'NONE',  ( 1.862479723388573500E-031, 1.000000000000000000, 3.514061871351393100E-015 ) ) ;
#746 = CARTESIAN_POINT ( 'NONE',  ( -54.23367146995607900, -362.5000000000358700, 2184.299192833365400 ) ) ;
#747 = EDGE_CURVE ( 'NONE', #16, #67, #514, .T. ) ;
#748 = PRODUCT_RELATED_PRODUCT_CATEGORY ( 'part', '', ( #803 ) ) ;
#749 = EDGE_CURVE ( 'NONE', #252, #225, #192, .T. ) ;
#750 = DIRECTION ( 'NONE',  ( -1.000000000000000000, 0.0000000000000000000, -0.0000000000000000000 ) ) ;
#751 = CARTESIAN_POINT ( 'NONE',  ( -142.2327345550500000, -360.0000000000359800, 2183.572967037160200 ) ) ;
#752 = DIRECTION ( 'NONE',  ( 4.022390059921259700E-017, 1.000000000000000000, 4.465750058547939400E-033 ) ) ;
#753 = PLANE ( 'NONE',  #69 ) ;
#754 = FACE_OUTER_BOUND ( 'NONE', #115, .T. ) ;
#755 = CARTESIAN_POINT ( 'NONE',  ( -82.23325506333112900, -362.5000000000317200, 1004.280619372600700 ) ) ;
#756 = FACE_OUTER_BOUND ( 'NONE', #70, .T. ) ;
#757 = CARTESIAN_POINT ( 'NONE',  ( -140.2327345550501400, -362.5000000000358700, 2184.572967037159300 ) ) ;
#758 = DIRECTION ( 'NONE',  ( -1.862479723388573700E-031, -1.000000000000000000, -3.514061871351393100E-015 ) ) ;
#759 = DIRECTION ( 'NONE',  ( -9.020562075079389000E-015, -4.163336342344333100E-015, 1.000000000000000000 ) ) ;
#760 = DIRECTION ( 'NONE',  ( -4.022390059921220800E-017, -1.000000000000000000, -3.514061871351392700E-015 ) ) ;
#761 = CARTESIAN_POINT ( 'NONE',  ( -180.2317976401442400, -387.5000000000358700, 2184.299192833364900 ) ) ;
#762 = VECTOR ( 'NONE', #467, 1000.000000000000000 ) ;
#763 = LINE ( 'NONE', #725, #773 ) ;
#764 = CARTESIAN_POINT ( 'NONE',  ( -180.2317976401440900, -387.5000000000318300, 1032.846741240953600 ) ) ;
#765 = STYLED_ITEM ( 'NONE', ( #868 ), #407 ) ;
#766 = FACE_OUTER_BOUND ( 'NONE', #117, .T. ) ;
#767 = EDGE_CURVE ( 'NONE', #173, #255, #744, .T. ) ;
#768 = CARTESIAN_POINT ( 'NONE',  ( -140.2327345550500000, -387.5000000000318300, 1032.572967037160700 ) ) ;
#769 = AXIS2_PLACEMENT_3D ( 'NONE', #656, #648, #644 ) ;
#770 = DIRECTION ( 'NONE',  ( 0.0000000000000000000, -4.163336342344333100E-015, 1.000000000000000000 ) ) ;
#771 = CARTESIAN_POINT ( 'NONE',  ( -142.2327345550500000, -362.5000000000318300, 1033.572967037159500 ) ) ;
#772 = VECTOR ( 'NONE', #323, 1000.000000000000000 ) ;
#773 = VECTOR ( 'NONE', #708, 1000.000000000000000 ) ;
#774 = FACE_OUTER_BOUND ( 'NONE', #52, .T. ) ;
#775 = FACE_OUTER_BOUND ( 'NONE', #73, .T. ) ;
#776 = CARTESIAN_POINT ( 'NONE',  ( -94.23273455505017200, -387.5000000000358700, 2184.572967037158800 ) ) ;
#777 = DIRECTION ( 'NONE',  ( 0.0000000000000000000, 1.000000000000000000, 3.491483361109382100E-015 ) ) ;
#778 = AXIS2_PLACEMENT_3D ( 'NONE', #601, #599, #584 ) ;
#779 = CARTESIAN_POINT ( 'NONE',  ( -82.23325506333137000, -362.5000000000361000, 2212.865314701718500 ) ) ;
#780 = VECTOR ( 'NONE', #313, 1000.000000000000000 ) ;
#781 = SURFACE_STYLE_FILL_AREA ( #639 ) ;
#782 = CARTESIAN_POINT ( 'NONE',  ( -117.2327345550500200, -387.5000000000316000, 968.5729670371594000 ) ) ;
#783 = CIRCLE ( 'NONE', #496, 40.00000000000003600 ) ;
#784 = CYLINDRICAL_SURFACE ( 'NONE', #575, 49.99999999999982200 ) ;
#785 = SURFACE_STYLE_FILL_AREA ( #522 ) ;
#786 = FACE_BOUND ( 'NONE', #557, .T. ) ;
#787 =( GEOMETRIC_REPRESENTATION_CONTEXT ( 3 ) GLOBAL_UNCERTAINTY_ASSIGNED_CONTEXT ( ( #430 ) ) GLOBAL_UNIT_ASSIGNED_CONTEXT ( ( #488, #636, #634 ) ) REPRESENTATION_CONTEXT ( 'NONE', 'WORKASPACE' ) );
#788 = DIRECTION ( 'NONE',  ( -1.110223024625155100E-016, 0.0000000000000000000, 1.000000000000000000 ) ) ;
#789 = DIRECTION ( 'NONE',  ( -1.000000000000000000, 4.022390059921259700E-017, -1.110223024625155100E-016 ) ) ;
#790 = EDGE_CURVE ( 'NONE', #168, #498, #98, .T. ) ;
#791 = DIRECTION ( 'NONE',  ( 0.0000000000000000000, 2.775557561562889000E-015, -1.000000000000000000 ) ) ;
#792 = DIRECTION ( 'NONE',  ( 0.0000000000000000000, 1.000000000000000000, 0.0000000000000000000 ) ) ;
#793 = EDGE_CURVE ( 'NONE', #282, #14, #110, .T. ) ;
#794 = DIRECTION ( 'NONE',  ( -1.862479723388573700E-031, -1.000000000000000000, -3.514061871351393100E-015 ) ) ;
#795 = PRESENTATION_STYLE_ASSIGNMENT (( #487 ) ) ;
#796 = DIRECTION ( 'NONE',  ( 0.0000000000000000000, -4.163336342344333100E-015, 1.000000000000000000 ) ) ;
#797 = FACE_OUTER_BOUND ( 'NONE', #384, .T. ) ;
#798 = FACE_OUTER_BOUND ( 'NONE', #328, .T. ) ;
#799 = AXIS2_PLACEMENT_3D ( 'NONE', #682, #669, #666 ) ;
#800 = CARTESIAN_POINT ( 'NONE',  ( -117.2327345550500200, -387.5000000000316000, 968.5729670371594000 ) ) ;
#801 = CARTESIAN_POINT ( 'NONE',  ( -94.23273455505017200, -387.5000000000358700, 2184.572967037159300 ) ) ;
#802 = DIRECTION ( 'NONE',  ( 0.0000000000000000000, 1.000000000000000000, 3.491483361109382100E-015 ) ) ;
#803 = PRODUCT ( 'IRB660_180-315_LINK_V_CAD_rev02', 'IRB660_180-315_LINK_V_CAD_rev02', '', ( #269 ) ) ;
#804 = PRESENTATION_STYLE_ASSIGNMENT (( #287 ) ) ;
#805 = CARTESIAN_POINT ( 'NONE',  ( -54.23367146995593700, -362.5000000000318300, 1032.846741240953600 ) ) ;
#806 = COLOUR_RGB ( '',0.2901960784313725200, 0.3294117647058823500, 0.3490196078431372400 ) ;
#807 = VECTOR ( 'NONE', #345, 1000.000000000000000 ) ;
#808 = DIRECTION ( 'NONE',  ( 0.0000000000000000000, -3.330669073875466900E-015, 1.000000000000000000 ) ) ;
#809 = EDGE_CURVE ( 'NONE', #67, #233, #556, .T. ) ;
#810 = PLANE ( 'NONE',  #301 ) ;
#811 = DIRECTION ( 'NONE',  ( 0.0000000000000000000, -3.514061871351393100E-015, 1.000000000000000000 ) ) ;
#812 = DIRECTION ( 'NONE',  ( -0.0000000000000000000, -1.000000000000000000, -3.491483361109382100E-015 ) ) ;
#813 = UNCERTAINTY_MEASURE_WITH_UNIT (LENGTH_MEASURE( 1.000000000000000100E-005 ), #284, 'distance_accuracy_value', 'NONE');
#814 = DIRECTION ( 'NONE',  ( 1.000000000000000000, -0.0000000000000000000, 0.0000000000000000000 ) ) ;
#815 = AXIS2_PLACEMENT_3D ( 'NONE', #402, #24, #56 ) ;
#816 = CARTESIAN_POINT ( 'NONE',  ( -140.2327345550501400, -387.5000000000358700, 2184.299192833365400 ) ) ;
#817 = CIRCLE ( 'NONE', #437, 20.00000000000001800 ) ;
#818 = CARTESIAN_POINT ( 'NONE',  ( -117.2327345550500200, -387.5000000000316000, 968.5729670371594000 ) ) ;
#819 = CARTESIAN_POINT ( 'NONE',  ( -142.2327345550500000, -360.0000000000348500, 2183.572967037160200 ) ) ;
#820 = DIRECTION ( 'NONE',  ( 1.000000000000000000, 0.0000000000000000000, 0.0000000000000000000 ) ) ;
#821 = CARTESIAN_POINT ( 'NONE',  ( -92.23273455505001600, -390.0000000000358700, 2183.572967037160200 ) ) ;
#822 = VECTOR ( 'NONE', #466, 1000.000000000000000 ) ;
#823 = AXIS2_PLACEMENT_3D ( 'NONE', #580, #577, #598 ) ;
#824 = FACE_OUTER_BOUND ( 'NONE', #253, .T. ) ;
#825 = CARTESIAN_POINT ( 'NONE',  ( -117.2327345550501600, -362.5000000000362100, 2268.572967037159300 ) ) ;
#826 = DIRECTION ( 'NONE',  ( 1.734723475976805500E-015, -4.163336342344333100E-015, 1.000000000000000000 ) ) ;
#827 = DIRECTION ( 'NONE',  ( -4.022390059921220800E-017, -1.000000000000000000, -3.514061871351392700E-015 ) ) ;
#828 = CARTESIAN_POINT ( 'NONE',  ( -54.23367146995607900, -387.5000000000358700, 2184.299192833365400 ) ) ;
#829 = EDGE_CURVE ( 'NONE', #168, #85, #203, .T. ) ;
#830 = CARTESIAN_POINT ( 'NONE',  ( -82.23325506333111400, -387.5000000000317200, 1004.280619372600700 ) ) ;
#831 = EDGE_CURVE ( 'NONE', #64, #225, #183, .T. ) ;
#832 = DIRECTION ( 'NONE',  ( -4.022390059921220800E-017, -1.000000000000000000, -3.514061871351392700E-015 ) ) ;
#833 = CARTESIAN_POINT ( 'NONE',  ( -152.2322140467688300, -362.5000000000360400, 2212.865314701718000 ) ) ;
#834 = AXIS2_PLACEMENT_3D ( 'NONE', #841, #832, #859 ) ;
#835 = VECTOR ( 'NONE', #855, 1000.000000000000000 ) ;
#836 = VECTOR ( 'NONE', #351, 1000.000000000000000 ) ;
#837 = FACE_BOUND ( 'NONE', #82, .T. ) ;
#838 = VECTOR ( 'NONE', #333, 1000.000000000000000 ) ;
#839 = CARTESIAN_POINT ( 'NONE',  ( -142.2327345550500000, -390.0000000000328600, 1033.572967037159500 ) ) ;
#840 = ADVANCED_BREP_SHAPE_REPRESENTATION ( 'IRB660_180-315_LINK_V_CAD_rev02', ( #479, #600 ), #280 ) ;
#841 = CARTESIAN_POINT ( 'NONE',  ( -180.2317976401442400, -362.5000000000358700, 2184.299192833364900 ) ) ;
#842 = CARTESIAN_POINT ( 'NONE',  ( -94.23273455505017200, -362.5000000000359300, 2184.572967037161600 ) ) ;
#843 = PRESENTATION_LAYER_ASSIGNMENT (  '', '', ( #15 ) ) ;
#844 = CARTESIAN_POINT ( 'NONE',  ( -92.23273455505001600, -360.0000000000359800, 2183.572967037160200 ) ) ;
#845 = EDGE_CURVE ( 'NONE', #8, #20, #307, .T. ) ;
#846 = FACE_OUTER_BOUND ( 'NONE', #292, .T. ) ;
#847 = CARTESIAN_POINT ( 'NONE',  ( -92.23273455505001600, -360.0000000000329100, 1033.572967037159500 ) ) ;
#848 = COLOUR_RGB ( '',0.8431372549019607900, 0.8431372549019607900, 0.8431372549019607900 ) ;
#849 = CYLINDRICAL_SURFACE ( 'NONE', #549, 20.00000000000001800 ) ;
#850 = AXIS2_PLACEMENT_3D ( 'NONE', #525, #431, #513 ) ;
#851 = VECTOR ( 'NONE', #483, 1000.000000000000000 ) ;
#852 = DIRECTION ( 'NONE',  ( 4.465750058547938700E-033, -1.796298864559600600E-049, 1.000000000000000000 ) ) ;
#853 = CARTESIAN_POINT ( 'NONE',  ( -117.2327345550501600, -387.5000000000360400, 2228.572967037159300 ) ) ;
#854 = SURFACE_STYLE_FILL_AREA ( #606 ) ;
#855 = DIRECTION ( 'NONE',  ( 2.018919384166284200E-030, 1.167422283939297000E-045, -1.000000000000000000 ) ) ;
#856 = AXIS2_PLACEMENT_3D ( 'NONE', #562, #552, #551 ) ;
#857 = CARTESIAN_POINT ( 'NONE',  ( -94.23273455505017200, -387.5000000000358700, 2184.572967037161600 ) ) ;
#858 = CARTESIAN_POINT ( 'NONE',  ( -82.23325506333147000, -387.5000000000359800, 2212.865314701718500 ) ) ;
#859 = DIRECTION ( 'NONE',  ( 0.0000000000000000000, -4.163336342344333100E-015, 1.000000000000000000 ) ) ;
#860 = DIRECTION ( 'NONE',  ( 4.022390059921220800E-017, 1.000000000000000000, 3.514061871351392700E-015 ) ) ;
#861 = CARTESIAN_POINT ( 'NONE',  ( -92.23273455505001600, -360.0000000000359800, 2183.572967037160200 ) ) ;
#862 = CARTESIAN_POINT ( 'NONE',  ( -94.23273455505003000, -387.5000000000318300, 1032.572967037159300 ) ) ;
#863 = VECTOR ( 'NONE', #376, 1000.000000000000000 ) ;
#864 = CARTESIAN_POINT ( 'NONE',  ( -117.2327345550500200, -387.5000000000315500, 948.5729670371594000 ) ) ;
#865 = FACE_OUTER_BOUND ( 'NONE', #81, .T. ) ;
#866 = DIRECTION ( 'NONE',  ( 0.0000000000000000000, 2.775557561562889000E-015, -1.000000000000000000 ) ) ;
#867 = PRESENTATION_STYLE_ASSIGNMENT (( #591 ) ) ;
#868 = PRESENTATION_STYLE_ASSIGNMENT (( #544 ) ) ;
#869 = CARTESIAN_POINT ( 'NONE',  ( -94.23273455505017200, -387.5000000000358700, 2183.572967037160200 ) ) ;
#870 = EDGE_CURVE ( 'NONE', #159, #20, #571, .T. ) ;
#871 = CARTESIAN_POINT ( 'NONE',  ( -94.23273455505003000, -387.5000000000318300, 1032.572967037157000 ) ) ;
#872 = ORIENTED_EDGE ( 'NONE', *, *, #809, .F. ) ;
#873 = EDGE_CURVE ( 'NONE', #276, #25, #460, .T. ) ;
ENDSEC;
END-ISO-10303-21;
